<svg width="50" height="50" viewBox="0 0 50 50" fill="none" xmlns="http://www.w3.org/2000/svg">
<path d="M43.7501 25C43.7501 24.1712 43.4209 23.3763 42.8348 22.7903C42.2488 22.2042 41.4539 21.875 40.6251 21.875H15.8751L24.0834 13.6667C24.6354 13.0743 24.9359 12.2907 24.9217 11.4812C24.9074 10.6716 24.5794 9.89913 24.0069 9.32658C23.4343 8.75402 22.6619 8.42606 21.8523 8.41177C21.0427 8.39749 20.2592 8.698 19.6668 9.25L6.1251 22.7917C5.53989 23.3776 5.21118 24.1719 5.21118 25C5.21118 25.8281 5.53989 26.6224 6.1251 27.2083L19.6668 40.75C20.2592 41.302 21.0427 41.6025 21.8523 41.5882C22.6619 41.5739 23.4343 41.246 24.0069 40.6734C24.5794 40.1009 24.9074 39.3284 24.9217 38.5188C24.9359 37.7093 24.6354 36.9257 24.0834 36.3333L15.8751 28.125H40.6251C41.4539 28.125 42.2488 27.7958 42.8348 27.2097C43.4209 26.6237 43.7501 25.8288 43.7501 25Z" fill="url(#paint0_linear_100_6)"/>
<defs>
<linearGradient id="paint0_linear_100_6" x1="24.4806" y1="8.41129" x2="24.4806" y2="41.5887" gradientUnits="userSpaceOnUse">
<stop stop-color="#F8FAE5"/>
<stop offset="1" stop-color="#939488"/>
</linearGradient>
</defs>
</svg>
