<svg width="36" height="36" viewBox="0 0 36 36" fill="none" xmlns="http://www.w3.org/2000/svg">
<path d="M14.1593 25.4093L21.5663 18L14.1581 10.5907L15.75 9L24.75 18L15.75 27L14.1593 25.4093Z" fill="url(#paint0_linear_71_889)"/>
<path d="M18 2.25C9.315 2.25 2.25 9.315 2.25 18C2.25 26.685 9.315 33.75 18 33.75C26.685 33.75 33.75 26.685 33.75 18C33.75 9.315 26.685 2.25 18 2.25ZM18 31.5C10.5559 31.5 4.5 25.4441 4.5 18C4.5 10.5559 10.5559 4.5 18 4.5C25.4441 4.5 31.5 10.5559 31.5 18C31.5 25.4441 25.4441 31.5 18 31.5Z" fill="url(#paint1_linear_71_889)"/>
<defs>
<linearGradient id="paint0_linear_71_889" x1="19.4541" y1="9" x2="19.4541" y2="27" gradientUnits="userSpaceOnUse">
<stop stop-color="#43766C"/>
<stop offset="1" stop-color="#7DDCC9"/>
</linearGradient>
<linearGradient id="paint1_linear_71_889" x1="18" y1="2.25" x2="18" y2="33.75" gradientUnits="userSpaceOnUse">
<stop stop-color="#43766C"/>
<stop offset="1" stop-color="#7DDCC9"/>
</linearGradient>
</defs>
</svg>
