<svg width="51" height="13" viewBox="0 0 51 13" fill="none" xmlns="http://www.w3.org/2000/svg">
<path d="M2.47831 0.879999V7.968C2.47831 8.81067 2.69698 9.44533 3.13431 9.872C3.58231 10.2987 4.20098 10.512 4.99031 10.512C5.79031 10.512 6.40898 10.2987 6.84631 9.872C7.29431 9.44533 7.51831 8.81067 7.51831 7.968V0.879999H9.34231V7.936C9.34231 8.84267 9.14498 9.61067 8.75031 10.24C8.35565 10.8693 7.82765 11.3387 7.16631 11.648C6.50498 11.9573 5.77431 12.112 4.97431 12.112C4.17431 12.112 3.44365 11.9573 2.78231 11.648C2.13165 11.3387 1.61431 10.8693 1.23031 10.24C0.846312 9.61067 0.654312 8.84267 0.654312 7.936V0.879999H2.47831ZM16.1812 12.112C15.4345 12.112 14.7625 11.984 14.1652 11.728C13.5679 11.4613 13.0985 11.088 12.7572 10.608C12.4159 10.128 12.2452 9.568 12.2452 8.928H14.1972C14.2399 9.408 14.4265 9.80267 14.7572 10.112C15.0985 10.4213 15.5732 10.576 16.1812 10.576C16.8105 10.576 17.3012 10.4267 17.6532 10.128C18.0052 9.81867 18.1812 9.424 18.1812 8.944C18.1812 8.57067 18.0692 8.26667 17.8452 8.032C17.6319 7.79733 17.3599 7.616 17.0292 7.488C16.7092 7.36 16.2612 7.22133 15.6852 7.072C14.9599 6.88 14.3679 6.688 13.9092 6.496C13.4612 6.29333 13.0772 5.984 12.7572 5.568C12.4372 5.152 12.2772 4.59733 12.2772 3.904C12.2772 3.264 12.4372 2.704 12.7572 2.224C13.0772 1.744 13.5252 1.376 14.1012 1.12C14.6772 0.863999 15.3439 0.735999 16.1012 0.735999C17.1785 0.735999 18.0585 1.008 18.7412 1.552C19.4345 2.08533 19.8185 2.82133 19.8932 3.76H17.8772C17.8452 3.35467 17.6532 3.008 17.3012 2.72C16.9492 2.432 16.4852 2.288 15.9092 2.288C15.3865 2.288 14.9599 2.42133 14.6292 2.688C14.2985 2.95467 14.1332 3.33867 14.1332 3.84C14.1332 4.18133 14.2345 4.464 14.4372 4.688C14.6505 4.90133 14.9172 5.072 15.2372 5.2C15.5572 5.328 15.9945 5.46667 16.5492 5.616C17.2852 5.81867 17.8825 6.02133 18.3412 6.224C18.8105 6.42667 19.2052 6.74133 19.5252 7.168C19.8559 7.584 20.0212 8.144 20.0212 8.848C20.0212 9.41333 19.8665 9.94667 19.5572 10.448C19.2585 10.9493 18.8159 11.3547 18.2292 11.664C17.6532 11.9627 16.9705 12.112 16.1812 12.112ZM24.7974 2.352V5.616H28.6374V7.104H24.7974V10.512H29.1174V12H22.9734V0.863999H29.1174V2.352H24.7974ZM37.9401 12L35.3801 7.552H33.9881V12H32.1641V0.879999H36.0041C36.8574 0.879999 37.5774 1.02933 38.1641 1.328C38.7614 1.62667 39.2041 2.02667 39.4921 2.528C39.7907 3.02933 39.9401 3.58933 39.9401 4.208C39.9401 4.93333 39.7267 5.59467 39.3001 6.192C38.8841 6.77867 38.2387 7.17867 37.3641 7.392L40.1161 12H37.9401ZM33.9881 6.096H36.0041C36.6867 6.096 37.1987 5.92533 37.5401 5.584C37.8921 5.24267 38.0681 4.784 38.0681 4.208C38.0681 3.632 37.8974 3.184 37.5561 2.864C37.2147 2.53333 36.6974 2.368 36.0041 2.368H33.9881V6.096ZM46.7374 12.112C45.9908 12.112 45.3188 11.984 44.7214 11.728C44.1241 11.4613 43.6548 11.088 43.3134 10.608C42.9721 10.128 42.8014 9.568 42.8014 8.928H44.7534C44.7961 9.408 44.9828 9.80267 45.3134 10.112C45.6548 10.4213 46.1294 10.576 46.7374 10.576C47.3668 10.576 47.8574 10.4267 48.2094 10.128C48.5614 9.81867 48.7374 9.424 48.7374 8.944C48.7374 8.57067 48.6254 8.26667 48.4014 8.032C48.1881 7.79733 47.9161 7.616 47.5854 7.488C47.2654 7.36 46.8174 7.22133 46.2414 7.072C45.5161 6.88 44.9241 6.688 44.4654 6.496C44.0174 6.29333 43.6334 5.984 43.3134 5.568C42.9934 5.152 42.8334 4.59733 42.8334 3.904C42.8334 3.264 42.9934 2.704 43.3134 2.224C43.6334 1.744 44.0814 1.376 44.6574 1.12C45.2334 0.863999 45.9001 0.735999 46.6574 0.735999C47.7348 0.735999 48.6148 1.008 49.2974 1.552C49.9908 2.08533 50.3748 2.82133 50.4494 3.76H48.4334C48.4014 3.35467 48.2094 3.008 47.8574 2.72C47.5054 2.432 47.0414 2.288 46.4654 2.288C45.9428 2.288 45.5161 2.42133 45.1854 2.688C44.8548 2.95467 44.6894 3.33867 44.6894 3.84C44.6894 4.18133 44.7908 4.464 44.9934 4.688C45.2068 4.90133 45.4734 5.072 45.7934 5.2C46.1134 5.328 46.5508 5.46667 47.1054 5.616C47.8414 5.81867 48.4388 6.02133 48.8974 6.224C49.3668 6.42667 49.7614 6.74133 50.0814 7.168C50.4121 7.584 50.5774 8.144 50.5774 8.848C50.5774 9.41333 50.4228 9.94667 50.1134 10.448C49.8148 10.9493 49.3721 11.3547 48.7854 11.664C48.2094 11.9627 47.5268 12.112 46.7374 12.112Z" fill="#F8FAE5"/>
<path d="M2.47831 0.879999H2.97831V0.379999H2.47831V0.879999ZM3.13431 9.872L2.78513 10.2299L2.78948 10.2341L3.13431 9.872ZM6.84631 9.872L6.50146 9.5099L6.49715 9.51411L6.84631 9.872ZM7.51831 0.879999V0.379999H7.01831V0.879999H7.51831ZM9.34231 0.879999H9.84231V0.379999H9.34231V0.879999ZM8.75031 10.24L9.17391 10.5056L9.17391 10.5056L8.75031 10.24ZM7.16631 11.648L6.95447 11.1951L7.16631 11.648ZM2.78231 11.648L2.56763 12.0996L2.57047 12.1009L2.78231 11.648ZM1.23031 10.24L0.803493 10.5004L0.803493 10.5004L1.23031 10.24ZM0.654312 0.879999V0.379999H0.154312V0.879999H0.654312ZM1.97831 0.879999V7.968H2.97831V0.879999H1.97831ZM1.97831 7.968C1.97831 8.89307 2.21942 9.67796 2.78515 10.2299L3.48347 9.51411C3.17453 9.2127 2.97831 8.72826 2.97831 7.968H1.97831ZM2.78948 10.2341C3.35411 10.7718 4.10947 11.012 4.99031 11.012V10.012C4.29249 10.012 3.81051 9.82553 3.47914 9.50993L2.78948 10.2341ZM4.99031 11.012C5.87898 11.012 6.63858 10.7732 7.19547 10.2299L6.49715 9.51411C6.17938 9.82413 5.70165 10.012 4.99031 10.012V11.012ZM7.19114 10.2341C7.77002 9.68275 8.01831 8.89632 8.01831 7.968H7.01831C7.01831 8.72501 6.8186 9.20792 6.50148 9.50993L7.19114 10.2341ZM8.01831 7.968V0.879999H7.01831V7.968H8.01831ZM7.51831 1.38H9.34231V0.379999H7.51831V1.38ZM8.84231 0.879999V7.936H9.84231V0.879999H8.84231ZM8.84231 7.936C8.84231 8.76949 8.66146 9.44058 8.32672 9.97436L9.17391 10.5056C9.6285 9.78075 9.84231 8.91584 9.84231 7.936H8.84231ZM8.32672 9.97436C7.98221 10.5237 7.52708 10.9273 6.95447 11.1951L7.37816 12.1009C8.12821 11.7501 8.72908 11.215 9.17391 10.5056L8.32672 9.97436ZM6.95447 11.1951C6.36559 11.4705 5.7082 11.612 4.97431 11.612V12.612C5.84043 12.612 6.64437 12.4441 7.37816 12.1009L6.95447 11.1951ZM4.97431 11.612C4.24043 11.612 3.58303 11.4705 2.99415 11.1951L2.57047 12.1009C3.30426 12.4441 4.1082 12.612 4.97431 12.612V11.612ZM2.99699 11.1964C2.43626 10.9299 1.99175 10.528 1.65713 9.97957L0.803493 10.5004C1.23687 11.2107 1.82703 11.7475 2.56763 12.0996L2.99699 11.1964ZM1.65713 9.97957C1.3309 9.4449 1.15431 8.77186 1.15431 7.936H0.154312C0.154312 8.91347 0.361729 9.77643 0.803493 10.5004L1.65713 9.97957ZM1.15431 7.936V0.879999H0.154312V7.936H1.15431ZM0.654312 1.38H2.47831V0.379999H0.654312V1.38ZM14.1652 11.728L13.9613 12.1846L13.9682 12.1876L14.1652 11.728ZM12.7572 10.608L13.1647 10.3182L13.1647 10.3182L12.7572 10.608ZM12.2452 8.928V8.428H11.7452V8.928H12.2452ZM14.1972 8.928L14.6952 8.88373L14.6547 8.428H14.1972V8.928ZM14.7572 10.112L14.4156 10.4772L14.4214 10.4825L14.7572 10.112ZM17.6532 10.128L17.9767 10.5093L17.9832 10.5036L17.6532 10.128ZM17.8452 8.032L17.4751 8.36844L17.4835 8.37724L17.8452 8.032ZM17.0292 7.488L16.8435 7.95227L16.8487 7.95428L17.0292 7.488ZM15.6852 7.072L15.5572 7.55536L15.5597 7.556L15.6852 7.072ZM13.9092 6.496L13.7031 6.95155L13.7096 6.95448L13.7161 6.95722L13.9092 6.496ZM12.7572 2.224L13.1732 2.50135L13.1732 2.50135L12.7572 2.224ZM14.1012 1.12L14.3043 1.57691L14.3043 1.57691L14.1012 1.12ZM18.7412 1.552L18.4295 1.94309L18.4363 1.94831L18.7412 1.552ZM19.8932 3.76V4.26H20.4345L20.3916 3.72035L19.8932 3.76ZM17.8772 3.76L17.3787 3.79935L17.4151 4.26H17.8772V3.76ZM14.6292 2.688L14.9431 3.07721L14.9431 3.07721L14.6292 2.688ZM14.4372 4.688L14.0664 5.02346L14.0748 5.03272L14.0836 5.04155L14.4372 4.688ZM16.5492 5.616L16.6819 5.13393L16.6792 5.13319L16.5492 5.616ZM18.3412 6.224L18.1391 6.68136L18.143 6.68303L18.3412 6.224ZM19.5252 7.168L19.125 7.46812L19.1338 7.47912L19.5252 7.168ZM19.5572 10.448L19.1316 10.1854L19.1276 10.1921L19.5572 10.448ZM18.2292 11.664L18.4594 12.1079L18.4624 12.1063L18.2292 11.664ZM16.1812 11.612C15.4922 11.612 14.8887 11.4941 14.3621 11.2684L13.9682 12.1876C14.6364 12.4739 15.3768 12.612 16.1812 12.612V11.612ZM14.369 11.2714C13.844 11.037 13.4487 10.7176 13.1647 10.3182L12.3497 10.8978C12.7484 11.4584 13.2917 11.8856 13.9614 12.1846L14.369 11.2714ZM13.1647 10.3182C12.8888 9.93027 12.7452 9.47361 12.7452 8.928H11.7452C11.7452 9.66239 11.9429 10.3257 12.3497 10.8978L13.1647 10.3182ZM12.2452 9.428H14.1972V8.428H12.2452V9.428ZM13.6992 8.97227C13.7519 9.56625 13.989 10.078 14.4156 10.4771L15.0988 9.74686C14.8641 9.5273 14.7278 9.24975 14.6952 8.88373L13.6992 8.97227ZM14.4214 10.4825C14.8809 10.8989 15.4896 11.076 16.1812 11.076V10.076C15.6567 10.076 15.3161 9.94377 15.0929 9.74151L14.4214 10.4825ZM16.1812 11.076C16.8859 11.076 17.5062 10.9085 17.9767 10.5093L17.3297 9.74675C17.0962 9.94485 16.7351 10.076 16.1812 10.076V11.076ZM17.9832 10.5036C18.4462 10.0967 18.6812 9.56381 18.6812 8.944H17.6812C17.6812 9.28419 17.5641 9.54062 17.3231 9.75242L17.9832 10.5036ZM18.6812 8.944C18.6812 8.46296 18.5331 8.02852 18.2069 7.68676L17.4835 8.37724C17.6053 8.50482 17.6812 8.67838 17.6812 8.944H18.6812ZM18.2152 7.69566C17.9437 7.39708 17.6041 7.17439 17.2097 7.02172L16.8487 7.95428C17.1156 8.05761 17.32 8.19759 17.4752 8.36834L18.2152 7.69566ZM17.2149 7.02376C16.8662 6.88427 16.3947 6.73943 15.8107 6.588L15.5597 7.556C16.1276 7.70324 16.5522 7.83573 16.8435 7.95224L17.2149 7.02376ZM15.8131 6.58865C15.1 6.39989 14.532 6.21467 14.1023 6.03478L13.7161 6.95722C14.2037 7.16133 14.8197 7.36011 15.5572 7.55535L15.8131 6.58865ZM14.1153 6.04045C13.7471 5.8739 13.4269 5.61856 13.1535 5.26314L12.3609 5.87286C12.7275 6.34943 13.1753 6.71277 13.7031 6.95155L14.1153 6.04045ZM13.1535 5.26314C12.9195 4.95896 12.7772 4.52244 12.7772 3.904H11.7772C11.7772 4.67223 11.9549 5.34504 12.3609 5.87286L13.1535 5.26314ZM12.7772 3.904C12.7772 3.35149 12.9139 2.89035 13.1732 2.50135L12.3412 1.94665C11.9605 2.51765 11.7772 3.17651 11.7772 3.904H12.7772ZM13.1732 2.50135C13.4358 2.10742 13.8065 1.79813 14.3043 1.57691L13.8981 0.663094C13.2439 0.953866 12.7185 1.38058 12.3412 1.94665L13.1732 2.50135ZM14.3043 1.57691C14.8048 1.35445 15.4 1.236 16.1012 1.236V0.235999C15.2877 0.235999 14.5496 0.373551 13.8981 0.663094L14.3043 1.57691ZM16.1012 1.236C17.0925 1.236 17.8546 1.48486 18.4296 1.94303L19.0528 1.16097C18.2624 0.531139 17.2645 0.235999 16.1012 0.235999V1.236ZM18.4363 1.94831C19.0083 2.38832 19.3303 2.98978 19.3948 3.79965L20.3916 3.72035C20.3067 2.65289 19.8607 1.78234 19.046 1.15569L18.4363 1.94831ZM19.8932 3.26H17.8772V4.26H19.8932V3.26ZM18.3756 3.72065C18.3316 3.16275 18.0615 2.69603 17.6178 2.33302L16.9846 3.10698C17.2449 3.31997 17.3588 3.54659 17.3787 3.79935L18.3756 3.72065ZM17.6178 2.33302C17.1549 1.95424 16.5692 1.788 15.9092 1.788V2.788C16.4012 2.788 16.7435 2.90976 16.9846 3.10698L17.6178 2.33302ZM15.9092 1.788C15.2994 1.788 14.7539 1.94509 14.3153 2.29879L14.9431 3.07721C15.1658 2.89757 15.4736 2.788 15.9092 2.788V1.788ZM14.3153 2.29879C13.8452 2.67794 13.6332 3.21785 13.6332 3.84H14.6332C14.6332 3.45948 14.7519 3.23139 14.9431 3.07721L14.3153 2.29879ZM13.6332 3.84C13.6332 4.28801 13.7697 4.69546 14.0664 5.02346L14.808 4.35254C14.6994 4.23254 14.6332 4.07466 14.6332 3.84H13.6332ZM14.0836 5.04155C14.3512 5.30911 14.6775 5.51465 15.0515 5.66424L15.4229 4.73576C15.1568 4.62935 14.9498 4.49355 14.7907 4.33445L14.0836 5.04155ZM15.0515 5.66424C15.3977 5.80271 15.8563 5.94725 16.4192 6.09881L16.6792 5.13319C16.1328 4.98608 15.7167 4.85329 15.4229 4.73576L15.0515 5.66424ZM16.4164 6.09806C17.1396 6.29719 17.7113 6.49231 18.1391 6.68134L18.5433 5.76666C18.0537 5.55036 17.4307 5.34014 16.6819 5.13394L16.4164 6.09806ZM18.143 6.68303C18.5288 6.84964 18.8551 7.10788 19.1252 7.468L19.9252 6.868C19.5553 6.37479 19.0922 6.00369 18.5394 5.76497L18.143 6.68303ZM19.1338 7.47912C19.3742 7.78162 19.5212 8.22021 19.5212 8.848H20.5212C20.5212 8.06779 20.3375 7.38638 19.9166 6.85688L19.1338 7.47912ZM19.5212 8.848C19.5212 9.3166 19.3945 9.75955 19.1317 10.1854L19.9827 10.7106C20.3386 10.1338 20.5212 9.51007 20.5212 8.848H19.5212ZM19.1276 10.1921C18.8822 10.6041 18.5127 10.9493 17.996 11.2217L18.4624 12.1063C19.119 11.7601 19.6348 11.2946 19.9867 10.7039L19.1276 10.1921ZM17.999 11.2201C17.5079 11.4748 16.9076 11.612 16.1812 11.612V12.612C17.0335 12.612 17.7984 12.4506 18.4593 12.1079L17.999 11.2201ZM24.7974 2.352V1.852H24.2974V2.352H24.7974ZM24.7974 5.616H24.2974V6.116H24.7974V5.616ZM28.6374 5.616H29.1374V5.116H28.6374V5.616ZM28.6374 7.104V7.604H29.1374V7.104H28.6374ZM24.7974 7.104V6.604H24.2974V7.104H24.7974ZM24.7974 10.512H24.2974V11.012H24.7974V10.512ZM29.1174 10.512H29.6174V10.012H29.1174V10.512ZM29.1174 12V12.5H29.6174V12H29.1174ZM22.9734 12H22.4734V12.5H22.9734V12ZM22.9734 0.863999V0.363999H22.4734V0.863999H22.9734ZM29.1174 0.863999H29.6174V0.363999H29.1174V0.863999ZM29.1174 2.352V2.852H29.6174V2.352H29.1174ZM24.2974 2.352V5.616H25.2974V2.352H24.2974ZM24.7974 6.116H28.6374V5.116H24.7974V6.116ZM28.1374 5.616V7.104H29.1374V5.616H28.1374ZM28.6374 6.604H24.7974V7.604H28.6374V6.604ZM24.2974 7.104V10.512H25.2974V7.104H24.2974ZM24.7974 11.012H29.1174V10.012H24.7974V11.012ZM28.6174 10.512V12H29.6174V10.512H28.6174ZM29.1174 11.5H22.9734V12.5H29.1174V11.5ZM23.4734 12V0.863999H22.4734V12H23.4734ZM22.9734 1.364H29.1174V0.363999H22.9734V1.364ZM28.6174 0.863999V2.352H29.6174V0.863999H28.6174ZM29.1174 1.852H24.7974V2.852H29.1174V1.852ZM37.9401 12L37.5067 12.2494L37.6509 12.5H37.9401V12ZM35.3801 7.552L35.8134 7.30259L35.6692 7.052H35.3801V7.552ZM33.9881 7.552V7.052H33.4881V7.552H33.9881ZM33.9881 12V12.5H34.4881V12H33.9881ZM32.1641 12H31.6641V12.5H32.1641V12ZM32.1641 0.879999V0.379999H31.6641V0.879999H32.1641ZM38.1641 1.328L37.9372 1.77359L37.9405 1.77521L38.1641 1.328ZM39.4921 2.528L39.0585 2.77709L39.0625 2.7839L39.4921 2.528ZM39.3001 6.192L38.8932 5.90138L38.8922 5.90279L39.3001 6.192ZM37.3641 7.392L37.2456 6.90624L36.5874 7.06676L36.9348 7.64837L37.3641 7.392ZM40.1161 12V12.5H40.9971L40.5453 11.7436L40.1161 12ZM33.9881 6.096H33.4881V6.596H33.9881V6.096ZM37.5401 5.584L37.1919 5.22501L37.1865 5.23045L37.5401 5.584ZM37.5561 2.864L37.2081 3.22317L37.2141 3.22877L37.5561 2.864ZM33.9881 2.368V1.868H33.4881V2.368H33.9881ZM38.3734 11.7506L35.8134 7.30259L34.9467 7.80141L37.5067 12.2494L38.3734 11.7506ZM35.3801 7.052H33.9881V8.052H35.3801V7.052ZM33.4881 7.552V12H34.4881V7.552H33.4881ZM33.9881 11.5H32.1641V12.5H33.9881V11.5ZM32.6641 12V0.879999H31.6641V12H32.6641ZM32.1641 1.38H36.0041V0.379999H32.1641V1.38ZM36.0041 1.38C36.8011 1.38 37.4385 1.51969 37.9372 1.77358L38.3909 0.882418C37.7163 0.538978 36.9137 0.379999 36.0041 0.379999V1.38ZM37.9405 1.77521C38.4638 2.03691 38.8267 2.37361 39.0585 2.77706L39.9256 2.27894C39.5814 1.67972 39.0589 1.21642 38.3877 0.880785L37.9405 1.77521ZM39.0625 2.7839C39.3123 3.20313 39.4401 3.67378 39.4401 4.208H40.4401C40.4401 3.50488 40.2692 2.85553 39.9216 2.2721L39.0625 2.7839ZM39.4401 4.208C39.4401 4.82778 39.2601 5.38775 38.8932 5.90138L39.7069 6.48262C40.1934 5.80158 40.4401 5.03888 40.4401 4.208H39.4401ZM38.8922 5.90279C38.5621 6.36836 38.0337 6.71401 37.2456 6.90624L37.4825 7.87776C38.4437 7.64332 39.2061 7.18897 39.7079 6.48121L38.8922 5.90279ZM36.9348 7.64837L39.6868 12.2564L40.5453 11.7436L37.7933 7.13563L36.9348 7.64837ZM40.1161 11.5H37.9401V12.5H40.1161V11.5ZM33.9881 6.596H36.0041V5.596H33.9881V6.596ZM36.0041 6.596C36.7638 6.596 37.4254 6.40573 37.8936 5.93755L37.1865 5.23045C36.972 5.44494 36.6097 5.596 36.0041 5.596V6.596ZM37.8881 5.94295C38.3542 5.491 38.5681 4.89368 38.5681 4.208H37.5681C37.5681 4.67432 37.4299 4.99433 37.192 5.22505L37.8881 5.94295ZM38.5681 4.208C38.5681 3.52805 38.3627 2.93488 37.898 2.49923L37.2141 3.22877C37.4321 3.43312 37.5681 3.73595 37.5681 4.208H38.5681ZM37.904 2.50488C37.4341 2.04966 36.768 1.868 36.0041 1.868V2.868C36.6268 2.868 36.9954 3.01701 37.2082 3.22312L37.904 2.50488ZM36.0041 1.868H33.9881V2.868H36.0041V1.868ZM33.4881 2.368V6.096H34.4881V2.368H33.4881ZM44.7214 11.728L44.5176 12.1846L44.5245 12.1876L44.7214 11.728ZM43.3134 10.608L43.7209 10.3182L43.7209 10.3182L43.3134 10.608ZM42.8014 8.928V8.428H42.3014V8.928H42.8014ZM44.7534 8.928L45.2515 8.88373L45.211 8.428H44.7534V8.928ZM45.3134 10.112L44.9718 10.4772L44.9777 10.4825L45.3134 10.112ZM48.2094 10.128L48.533 10.5093L48.5395 10.5036L48.2094 10.128ZM48.4014 8.032L48.0314 8.36844L48.0398 8.37724L48.4014 8.032ZM47.5854 7.488L47.3997 7.95227L47.4049 7.95428L47.5854 7.488ZM46.2414 7.072L46.1135 7.55536L46.116 7.556L46.2414 7.072ZM44.4654 6.496L44.2594 6.95155L44.2658 6.95448L44.2724 6.95722L44.4654 6.496ZM43.3134 2.224L43.7295 2.50135L43.7295 2.50135L43.3134 2.224ZM44.6574 1.12L44.8605 1.57691L44.8605 1.57691L44.6574 1.12ZM49.2974 1.552L48.9858 1.94309L48.9926 1.94831L49.2974 1.552ZM50.4494 3.76V4.26H50.9908L50.9479 3.72035L50.4494 3.76ZM48.4334 3.76L47.935 3.79935L47.9714 4.26H48.4334V3.76ZM45.1854 2.688L45.4993 3.07721L45.4993 3.07721L45.1854 2.688ZM44.9934 4.688L44.6227 5.02346L44.631 5.03272L44.6399 5.04155L44.9934 4.688ZM47.1054 5.616L47.2382 5.13393L47.2354 5.13319L47.1054 5.616ZM48.8974 6.224L48.6953 6.68136L48.6992 6.68303L48.8974 6.224ZM50.0814 7.168L49.6813 7.46812L49.69 7.47912L50.0814 7.168ZM50.1134 10.448L49.6879 10.1854L49.6839 10.1921L50.1134 10.448ZM48.7854 11.664L49.0156 12.1079L49.0186 12.1063L48.7854 11.664ZM46.7374 11.612C46.0485 11.612 45.4449 11.4941 44.9184 11.2684L44.5245 12.1876C45.1926 12.4739 45.9331 12.612 46.7374 12.612V11.612ZM44.9253 11.2714C44.4002 11.037 44.0049 10.7176 43.7209 10.3182L42.906 10.8978C43.3046 11.4584 43.848 11.8856 44.5176 12.1846L44.9253 11.2714ZM43.7209 10.3182C43.445 9.93027 43.3014 9.47361 43.3014 8.928H42.3014C42.3014 9.66239 42.4992 10.3257 42.906 10.8978L43.7209 10.3182ZM42.8014 9.428H44.7534V8.428H42.8014V9.428ZM44.2554 8.97227C44.3082 9.56625 44.5452 10.078 44.9719 10.4771L45.655 9.74686C45.4203 9.5273 45.284 9.24975 45.2515 8.88373L44.2554 8.97227ZM44.9777 10.4825C45.4372 10.8989 46.0459 11.076 46.7374 11.076V10.076C46.213 10.076 45.8724 9.94377 45.6492 9.74151L44.9777 10.4825ZM46.7374 11.076C47.4422 11.076 48.0624 10.9085 48.5329 10.5093L47.8859 9.74675C47.6525 9.94485 47.2914 10.076 46.7374 10.076V11.076ZM48.5395 10.5036C49.0025 10.0967 49.2374 9.56381 49.2374 8.944H48.2374C48.2374 9.28419 48.1204 9.54062 47.8794 9.75242L48.5395 10.5036ZM49.2374 8.944C49.2374 8.46296 49.0893 8.02852 48.7631 7.68676L48.0398 8.37724C48.1615 8.50482 48.2374 8.67838 48.2374 8.944H49.2374ZM48.7714 7.69566C48.5 7.39708 48.1604 7.17439 47.7659 7.02172L47.4049 7.95428C47.6719 8.05761 47.8762 8.19759 48.0315 8.36834L48.7714 7.69566ZM47.7711 7.02376C47.4224 6.88427 46.951 6.73943 46.3669 6.588L46.116 7.556C46.6839 7.70324 47.1085 7.83573 47.3997 7.95224L47.7711 7.02376ZM46.3694 6.58865C45.6563 6.39989 45.0883 6.21467 44.6585 6.03478L44.2724 6.95722C44.76 7.16133 45.3759 7.36011 46.1135 7.55535L46.3694 6.58865ZM44.6715 6.04045C44.3034 5.8739 43.9831 5.61856 43.7097 5.26314L42.9171 5.87286C43.2837 6.34943 43.7315 6.71277 44.2594 6.95155L44.6715 6.04045ZM43.7097 5.26314C43.4758 4.95896 43.3334 4.52244 43.3334 3.904H42.3334C42.3334 4.67223 42.5111 5.34504 42.9171 5.87286L43.7097 5.26314ZM43.3334 3.904C43.3334 3.35149 43.4701 2.89035 43.7295 2.50135L42.8974 1.94665C42.5167 2.51765 42.3334 3.17651 42.3334 3.904H43.3334ZM43.7295 2.50135C43.9921 2.10742 44.3627 1.79813 44.8605 1.57691L44.4544 0.663094C43.8001 0.953866 43.2748 1.38058 42.8974 1.94665L43.7295 2.50135ZM44.8605 1.57691C45.361 1.35445 45.9562 1.236 46.6574 1.236V0.235999C45.844 0.235999 45.1058 0.373551 44.4544 0.663094L44.8605 1.57691ZM46.6574 1.236C47.6488 1.236 48.4109 1.48486 48.9858 1.94303L49.609 1.16097C48.8187 0.531139 47.8208 0.235999 46.6574 0.235999V1.236ZM48.9926 1.94831C49.5646 2.38832 49.8866 2.98978 49.951 3.79965L50.9479 3.72035C50.863 2.65289 50.4169 1.78234 49.6023 1.15569L48.9926 1.94831ZM50.4494 3.26H48.4334V4.26H50.4494V3.26ZM48.9319 3.72065C48.8878 3.16275 48.6177 2.69603 48.1741 2.33302L47.5408 3.10698C47.8011 3.31997 47.915 3.54659 47.935 3.79935L48.9319 3.72065ZM48.1741 2.33302C47.7111 1.95424 47.1254 1.788 46.4654 1.788V2.788C46.9574 2.788 47.2998 2.90976 47.5408 3.10698L48.1741 2.33302ZM46.4654 1.788C45.8557 1.788 45.3101 1.94509 44.8716 2.29879L45.4993 3.07721C45.7221 2.89757 46.0299 2.788 46.4654 2.788V1.788ZM44.8716 2.29879C44.4014 2.67794 44.1894 3.21785 44.1894 3.84H45.1894C45.1894 3.45948 45.3081 3.23139 45.4993 3.07721L44.8716 2.29879ZM44.1894 3.84C44.1894 4.28801 44.3259 4.69546 44.6227 5.02346L45.3642 4.35254C45.2556 4.23254 45.1894 4.07466 45.1894 3.84H44.1894ZM44.6399 5.04155C44.9074 5.30911 45.2338 5.51465 45.6077 5.66424L45.9791 4.73576C45.7131 4.62935 45.5061 4.49355 45.347 4.33445L44.6399 5.04155ZM45.6077 5.66424C45.9539 5.80271 46.4125 5.94725 46.9754 6.09881L47.2354 5.13319C46.689 4.98608 46.273 4.85329 45.9791 4.73576L45.6077 5.66424ZM46.9727 6.09806C47.6959 6.29719 48.2675 6.49231 48.6954 6.68134L49.0995 5.76666C48.61 5.55036 47.987 5.34014 47.2382 5.13394L46.9727 6.09806ZM48.6992 6.68303C49.0851 6.84964 49.4113 7.10788 49.6814 7.468L50.4814 6.868C50.1115 6.37479 49.6485 6.00369 49.0957 5.76497L48.6992 6.68303ZM49.69 7.47912C49.9305 7.78162 50.0774 8.22021 50.0774 8.848H51.0774C51.0774 8.06779 50.8937 7.38638 50.4728 6.85688L49.69 7.47912ZM50.0774 8.848C50.0774 9.3166 49.9507 9.75955 49.6879 10.1854L50.539 10.7106C50.8948 10.1338 51.0774 9.51007 51.0774 8.848H50.0774ZM49.6839 10.1921C49.4384 10.6041 49.0689 10.9493 48.5522 11.2217L49.0186 12.1063C49.6753 11.7601 50.1911 11.2946 50.543 10.7039L49.6839 10.1921ZM48.5553 11.2201C48.0642 11.4748 47.4638 11.612 46.7374 11.612V12.612C47.5897 12.612 48.3547 12.4506 49.0156 12.1079L48.5553 11.2201Z" fill="#11826C"/>
</svg>
