<svg width="105" height="13" viewBox="0 0 105 13" fill="none" xmlns="http://www.w3.org/2000/svg">
<path d="M0.867002 6.416C0.867002 5.328 1.11767 4.352 1.619 3.488C2.131 2.624 2.819 1.952 3.683 1.472C4.55767 0.981332 5.51234 0.735999 6.547 0.735999C7.731 0.735999 8.78167 1.02933 9.699 1.616C10.627 2.192 11.299 3.01333 11.715 4.08H9.523C9.235 3.49333 8.835 3.056 8.323 2.768C7.811 2.48 7.219 2.336 6.547 2.336C5.811 2.336 5.155 2.50133 4.579 2.832C4.003 3.16267 3.54967 3.63733 3.219 4.256C2.899 4.87467 2.739 5.59467 2.739 6.416C2.739 7.23733 2.899 7.95733 3.219 8.576C3.54967 9.19467 4.003 9.67467 4.579 10.016C5.155 10.3467 5.811 10.512 6.547 10.512C7.219 10.512 7.811 10.368 8.323 10.08C8.835 9.792 9.235 9.35467 9.523 8.768H11.715C11.299 9.83467 10.627 10.656 9.699 11.232C8.78167 11.808 7.731 12.096 6.547 12.096C5.50167 12.096 4.547 11.856 3.683 11.376C2.819 10.8853 2.131 10.208 1.619 9.344C1.11767 8.48 0.867002 7.504 0.867002 6.416ZM21.354 9.728H16.698L15.898 12H13.994L17.978 0.863999H20.09L24.074 12H22.154L21.354 9.728ZM20.842 8.24L19.034 3.072L17.21 8.24H20.842ZM33.7903 0.879999V2.368H30.8303V12H29.0063V2.368H26.0303V0.879999H33.7903ZM38.2615 2.352V5.616H42.1015V7.104H38.2615V10.512H42.5815V12H36.4375V0.863999H42.5815V2.352H38.2615ZM53.6761 4.08C53.3881 3.52533 52.9881 3.10933 52.4761 2.832C51.9641 2.544 51.3721 2.4 50.7001 2.4C49.9641 2.4 49.3081 2.56533 48.7321 2.896C48.1561 3.22667 47.7028 3.696 47.3721 4.304C47.0521 4.912 46.8921 5.616 46.8921 6.416C46.8921 7.216 47.0521 7.92533 47.3721 8.544C47.7028 9.152 48.1561 9.62133 48.7321 9.952C49.3081 10.2827 49.9641 10.448 50.7001 10.448C51.6921 10.448 52.4975 10.1707 53.1161 9.616C53.7348 9.06133 54.1135 8.30933 54.2521 7.36H50.0761V5.904H56.2041V7.328C56.0868 8.192 55.7775 8.98667 55.2761 9.712C54.7855 10.4373 54.1401 11.0187 53.3401 11.456C52.5508 11.8827 51.6708 12.096 50.7001 12.096C49.6548 12.096 48.7001 11.856 47.8361 11.376C46.9721 10.8853 46.2841 10.208 45.7721 9.344C45.2708 8.48 45.0201 7.504 45.0201 6.416C45.0201 5.328 45.2708 4.352 45.7721 3.488C46.2841 2.624 46.9721 1.952 47.8361 1.472C48.7108 0.981332 49.6655 0.735999 50.7001 0.735999C51.8841 0.735999 52.9348 1.02933 53.8521 1.616C54.7801 2.192 55.4521 3.01333 55.8681 4.08H53.6761ZM63.8751 12.112C62.8405 12.112 61.8858 11.872 61.0111 11.392C60.1471 10.9013 59.4591 10.224 58.9471 9.36C58.4458 8.48533 58.1951 7.504 58.1951 6.416C58.1951 5.328 58.4458 4.352 58.9471 3.488C59.4591 2.624 60.1471 1.952 61.0111 1.472C61.8858 0.981332 62.8405 0.735999 63.8751 0.735999C64.9205 0.735999 65.8751 0.981332 66.7391 1.472C67.6138 1.952 68.3018 2.624 68.8031 3.488C69.3045 4.352 69.5551 5.328 69.5551 6.416C69.5551 7.504 69.3045 8.48533 68.8031 9.36C68.3018 10.224 67.6138 10.9013 66.7391 11.392C65.8751 11.872 64.9205 12.112 63.8751 12.112ZM63.8751 10.528C64.6111 10.528 65.2671 10.3627 65.8431 10.032C66.4191 9.69067 66.8671 9.21067 67.1871 8.592C67.5178 7.96267 67.6831 7.23733 67.6831 6.416C67.6831 5.59467 67.5178 4.87467 67.1871 4.256C66.8671 3.63733 66.4191 3.16267 65.8431 2.832C65.2671 2.50133 64.6111 2.336 63.8751 2.336C63.1391 2.336 62.4831 2.50133 61.9071 2.832C61.3311 3.16267 60.8778 3.63733 60.5471 4.256C60.2271 4.87467 60.0671 5.59467 60.0671 6.416C60.0671 7.23733 60.2271 7.96267 60.5471 8.592C60.8778 9.21067 61.3311 9.69067 61.9071 10.032C62.4831 10.3627 63.1391 10.528 63.8751 10.528ZM77.926 12L75.366 7.552H73.974V12H72.15V0.879999H75.99C76.8433 0.879999 77.5633 1.02933 78.15 1.328C78.7473 1.62667 79.19 2.02667 79.478 2.528C79.7767 3.02933 79.926 3.58933 79.926 4.208C79.926 4.93333 79.7127 5.59467 79.286 6.192C78.87 6.77867 78.2247 7.17867 77.35 7.392L80.102 12H77.926ZM73.974 6.096H75.99C76.6727 6.096 77.1847 5.92533 77.526 5.584C77.878 5.24267 78.054 4.784 78.054 4.208C78.054 3.632 77.8833 3.184 77.542 2.864C77.2007 2.53333 76.6833 2.368 75.99 2.368H73.974V6.096ZM84.8834 0.879999V12H83.0594V0.879999H84.8834ZM89.9021 2.352V5.616H93.7421V7.104H89.9021V10.512H94.2221V12H88.0781V0.863999H94.2221V2.352H89.9021ZM100.933 12.112C100.186 12.112 99.5141 11.984 98.9167 11.728C98.3194 11.4613 97.8501 11.088 97.5087 10.608C97.1674 10.128 96.9967 9.568 96.9967 8.928H98.9487C98.9914 9.408 99.1781 9.80267 99.5087 10.112C99.8501 10.4213 100.325 10.576 100.933 10.576C101.562 10.576 102.053 10.4267 102.405 10.128C102.757 9.81867 102.933 9.424 102.933 8.944C102.933 8.57067 102.821 8.26667 102.597 8.032C102.383 7.79733 102.111 7.616 101.781 7.488C101.461 7.36 101.013 7.22133 100.437 7.072C99.7114 6.88 99.1194 6.688 98.6607 6.496C98.2127 6.29333 97.8287 5.984 97.5087 5.568C97.1887 5.152 97.0287 4.59733 97.0287 3.904C97.0287 3.264 97.1887 2.704 97.5087 2.224C97.8287 1.744 98.2767 1.376 98.8527 1.12C99.4287 0.863999 100.095 0.735999 100.853 0.735999C101.93 0.735999 102.81 1.008 103.493 1.552C104.186 2.08533 104.57 2.82133 104.645 3.76H102.629C102.597 3.35467 102.405 3.008 102.053 2.72C101.701 2.432 101.237 2.288 100.661 2.288C100.138 2.288 99.7114 2.42133 99.3807 2.688C99.0501 2.95467 98.8847 3.33867 98.8847 3.84C98.8847 4.18133 98.9861 4.464 99.1887 4.688C99.4021 4.90133 99.6687 5.072 99.9887 5.2C100.309 5.328 100.746 5.46667 101.301 5.616C102.037 5.81867 102.634 6.02133 103.093 6.224C103.562 6.42667 103.957 6.74133 104.277 7.168C104.607 7.584 104.773 8.144 104.773 8.848C104.773 9.41333 104.618 9.94667 104.309 10.448C104.01 10.9493 103.567 11.3547 102.981 11.664C102.405 11.9627 101.722 12.112 100.933 12.112Z" fill="#F8FAE5"/>
<path d="M1.619 3.488L1.18884 3.23309L1.18653 3.23706L1.619 3.488ZM3.683 1.472L3.92583 1.90908L3.92763 1.90807L3.683 1.472ZM9.699 1.616L9.42959 2.03726L9.43532 2.04082L9.699 1.616ZM11.715 4.08V4.58H12.4467L12.1808 3.89833L11.715 4.08ZM9.523 4.08L9.07417 4.30034L9.21146 4.58H9.523V4.08ZM8.323 2.768L8.56813 2.33221L8.323 2.768ZM4.579 2.832L4.82794 3.26563L4.82794 3.26563L4.579 2.832ZM3.219 4.256L2.778 4.02029L2.77489 4.02629L3.219 4.256ZM3.219 8.576L2.77485 8.80573L2.77804 8.81169L3.219 8.576ZM4.579 10.016L4.32408 10.4462L4.33007 10.4496L4.579 10.016ZM8.323 10.08L8.56813 10.5158L8.323 10.08ZM9.523 8.768V8.268H9.21146L9.07417 8.54766L9.523 8.768ZM11.715 8.768L12.1808 8.94967L12.4467 8.268H11.715V8.768ZM9.699 11.232L9.43532 10.8072L9.43312 10.8086L9.699 11.232ZM3.683 11.376L3.43608 11.8108L3.44018 11.8131L3.683 11.376ZM1.619 9.344L1.18651 9.59495L1.18886 9.5989L1.619 9.344ZM1.367 6.416C1.367 5.40804 1.59827 4.51999 2.05147 3.73894L1.18653 3.23706C0.63707 4.18401 0.367002 5.24796 0.367002 6.416H1.367ZM2.04915 3.7429C2.51672 2.95387 3.14061 2.34531 3.92582 1.90908L3.44018 1.03492C2.49739 1.55869 1.74528 2.29413 1.18886 3.2331L2.04915 3.7429ZM3.92763 1.90807C4.72515 1.46068 5.59518 1.236 6.547 1.236V0.235999C5.42949 0.235999 4.39019 0.501983 3.43838 1.03593L3.92763 1.90807ZM6.547 1.236C7.6442 1.236 8.59972 1.50648 9.42961 2.03722L9.96839 1.19477C8.96361 0.552185 7.8178 0.235999 6.547 0.235999V1.236ZM9.43532 2.04082C10.2668 2.5569 10.8705 3.29059 11.2492 4.26167L12.1808 3.89833C11.7276 2.73608 10.9872 1.8271 9.96268 1.19118L9.43532 2.04082ZM11.715 3.58H9.523V4.58H11.715V3.58ZM9.97184 3.85966C9.6445 3.19287 9.17805 2.67529 8.56813 2.33221L8.07787 3.20379C8.49196 3.43671 8.8255 3.79379 9.07417 4.30034L9.97184 3.85966ZM8.56813 2.33221C7.97108 1.99637 7.29235 1.836 6.547 1.836V2.836C7.14566 2.836 7.65092 2.96363 8.07787 3.20379L8.56813 2.33221ZM6.547 1.836C5.73333 1.836 4.9898 2.01964 4.33007 2.39837L4.82794 3.26563C5.32021 2.98303 5.88867 2.836 6.547 2.836V1.836ZM4.33007 2.39837C3.66812 2.77838 3.15029 3.32383 2.77804 4.02031L3.65997 4.49169C3.94904 3.95084 4.33789 3.54695 4.82794 3.26563L4.33007 2.39837ZM2.77489 4.02629C2.41212 4.72764 2.239 5.52902 2.239 6.416H3.239C3.239 5.66032 3.38588 5.02169 3.66311 4.48571L2.77489 4.02629ZM2.239 6.416C2.239 7.30298 2.41212 8.10435 2.77489 8.80571L3.66311 8.34629C3.38588 7.81031 3.239 7.17168 3.239 6.416H2.239ZM2.77804 8.81169C3.14964 9.50694 3.66564 10.0559 4.3241 10.4461L4.8339 9.58585C4.34036 9.29339 3.9497 8.88239 3.65997 8.34031L2.77804 8.81169ZM4.33007 10.4496C4.9898 10.8284 5.73333 11.012 6.547 11.012V10.012C5.88867 10.012 5.32021 9.86497 4.82794 9.58237L4.33007 10.4496ZM6.547 11.012C7.29235 11.012 7.97108 10.8516 8.56813 10.5158L8.07787 9.64421C7.65092 9.88437 7.14566 10.012 6.547 10.012V11.012ZM8.56813 10.5158C9.17805 10.1727 9.6445 9.65513 9.97184 8.98834L9.07417 8.54766C8.8255 9.05421 8.49196 9.41129 8.07787 9.64421L8.56813 10.5158ZM9.523 9.268H11.715V8.268H9.523V9.268ZM11.2492 8.58633C10.8705 9.55741 10.2668 10.2911 9.43532 10.8072L9.96268 11.6568C10.9872 11.0209 11.7276 10.1119 12.1808 8.94967L11.2492 8.58633ZM9.43312 10.8086C8.6028 11.3299 7.64602 11.596 6.547 11.596V12.596C7.81599 12.596 8.96054 12.2861 9.96489 11.6554L9.43312 10.8086ZM6.547 11.596C5.58157 11.596 4.71124 11.3753 3.92582 10.9389L3.44018 11.8131C4.38277 12.3367 5.42176 12.596 6.547 12.596V11.596ZM3.92991 10.9412C3.14246 10.494 2.51727 9.87906 2.04915 9.0891L1.18886 9.5989C1.74473 10.5369 2.49554 11.2766 3.43609 11.8108L3.92991 10.9412ZM2.05147 9.09306C1.59827 8.31201 1.367 7.42396 1.367 6.416H0.367002C0.367002 7.58404 0.63707 8.64799 1.18653 9.59494L2.05147 9.09306ZM21.354 9.728L21.8256 9.56194L21.708 9.228H21.354V9.728ZM16.698 9.728V9.228H16.344L16.2264 9.56194L16.698 9.728ZM15.898 12V12.5H16.252L16.3696 12.1661L15.898 12ZM13.994 12L13.5232 11.8316L13.2841 12.5H13.994V12ZM17.978 0.863999V0.363999H17.6258L17.5072 0.695574L17.978 0.863999ZM20.09 0.863999L20.5608 0.695574L20.4422 0.363999H20.09V0.863999ZM24.074 12V12.5H24.7839L24.5448 11.8316L24.074 12ZM22.154 12L21.6824 12.1661L21.8 12.5H22.154V12ZM20.842 8.24V8.74H21.5466L21.314 8.07489L20.842 8.24ZM19.034 3.072L19.506 2.90689L19.0361 1.5638L18.5625 2.90559L19.034 3.072ZM17.21 8.24L16.7385 8.07359L16.5033 8.74H17.21V8.24ZM21.354 9.228H16.698V10.228H21.354V9.228ZM16.2264 9.56194L15.4264 11.8339L16.3696 12.1661L17.1696 9.89406L16.2264 9.56194ZM15.898 11.5H13.994V12.5H15.898V11.5ZM14.4648 12.1684L18.4488 1.03242L17.5072 0.695574L13.5232 11.8316L14.4648 12.1684ZM17.978 1.364H20.09V0.363999H17.978V1.364ZM19.6192 1.03242L23.6032 12.1684L24.5448 11.8316L20.5608 0.695574L19.6192 1.03242ZM24.074 11.5H22.154V12.5H24.074V11.5ZM22.6256 11.8339L21.8256 9.56194L20.8824 9.89406L21.6824 12.1661L22.6256 11.8339ZM21.314 8.07489L19.506 2.90689L18.562 3.23711L20.3701 8.40511L21.314 8.07489ZM18.5625 2.90559L16.7385 8.07359L17.6815 8.40641L19.5055 3.23841L18.5625 2.90559ZM17.21 8.74H20.842V7.74H17.21V8.74ZM33.7903 0.879999H34.2903V0.379999H33.7903V0.879999ZM33.7903 2.368V2.868H34.2903V2.368H33.7903ZM30.8303 2.368V1.868H30.3303V2.368H30.8303ZM30.8303 12V12.5H31.3303V12H30.8303ZM29.0063 12H28.5063V12.5H29.0063V12ZM29.0063 2.368H29.5063V1.868H29.0063V2.368ZM26.0303 2.368H25.5303V2.868H26.0303V2.368ZM26.0303 0.879999V0.379999H25.5303V0.879999H26.0303ZM33.2903 0.879999V2.368H34.2903V0.879999H33.2903ZM33.7903 1.868H30.8303V2.868H33.7903V1.868ZM30.3303 2.368V12H31.3303V2.368H30.3303ZM30.8303 11.5H29.0063V12.5H30.8303V11.5ZM29.5063 12V2.368H28.5063V12H29.5063ZM29.0063 1.868H26.0303V2.868H29.0063V1.868ZM26.5303 2.368V0.879999H25.5303V2.368H26.5303ZM26.0303 1.38H33.7903V0.379999H26.0303V1.38ZM38.2615 2.352V1.852H37.7615V2.352H38.2615ZM38.2615 5.616H37.7615V6.116H38.2615V5.616ZM42.1015 5.616H42.6015V5.116H42.1015V5.616ZM42.1015 7.104V7.604H42.6015V7.104H42.1015ZM38.2615 7.104V6.604H37.7615V7.104H38.2615ZM38.2615 10.512H37.7615V11.012H38.2615V10.512ZM42.5815 10.512H43.0815V10.012H42.5815V10.512ZM42.5815 12V12.5H43.0815V12H42.5815ZM36.4375 12H35.9375V12.5H36.4375V12ZM36.4375 0.863999V0.363999H35.9375V0.863999H36.4375ZM42.5815 0.863999H43.0815V0.363999H42.5815V0.863999ZM42.5815 2.352V2.852H43.0815V2.352H42.5815ZM37.7615 2.352V5.616H38.7615V2.352H37.7615ZM38.2615 6.116H42.1015V5.116H38.2615V6.116ZM41.6015 5.616V7.104H42.6015V5.616H41.6015ZM42.1015 6.604H38.2615V7.604H42.1015V6.604ZM37.7615 7.104V10.512H38.7615V7.104H37.7615ZM38.2615 11.012H42.5815V10.012H38.2615V11.012ZM42.0815 10.512V12H43.0815V10.512H42.0815ZM42.5815 11.5H36.4375V12.5H42.5815V11.5ZM36.9375 12V0.863999H35.9375V12H36.9375ZM36.4375 1.364H42.5815V0.363999H36.4375V1.364ZM42.0815 0.863999V2.352H43.0815V0.863999H42.0815ZM42.5815 1.852H38.2615V2.852H42.5815V1.852ZM53.6761 4.08L53.2324 4.31041L53.3724 4.58H53.6761V4.08ZM52.4761 2.832L52.231 3.26784L52.238 3.27165L52.4761 2.832ZM48.7321 2.896L48.9811 3.32963V3.32963L48.7321 2.896ZM47.3721 4.304L46.9328 4.06509L46.9297 4.07113L47.3721 4.304ZM47.3721 8.544L46.9279 8.77376L46.9329 8.78289L47.3721 8.544ZM48.7321 9.952L48.9811 9.51837L48.7321 9.952ZM53.1161 9.616L53.4499 9.98829V9.98828L53.1161 9.616ZM54.2521 7.36L54.7469 7.43227L54.8305 6.86H54.2521V7.36ZM50.0761 7.36H49.5761V7.86H50.0761V7.36ZM50.0761 5.904V5.404H49.5761V5.904H50.0761ZM56.2041 5.904H56.7041V5.404H56.2041V5.904ZM56.2041 7.328L56.6996 7.39528L56.7041 7.3618V7.328H56.2041ZM55.2761 9.712L54.8648 9.4277L54.862 9.43185L55.2761 9.712ZM53.3401 11.456L53.5779 11.8959L53.58 11.8947L53.3401 11.456ZM47.8361 11.376L47.5892 11.8108L47.5933 11.8131L47.8361 11.376ZM45.7721 9.344L45.3396 9.59495L45.342 9.5989L45.7721 9.344ZM45.7721 3.488L45.342 3.23309L45.3397 3.23706L45.7721 3.488ZM47.8361 1.472L48.079 1.90908L48.0808 1.90807L47.8361 1.472ZM53.8521 1.616L53.5827 2.03726L53.5884 2.04082L53.8521 1.616ZM55.8681 4.08V4.58H56.5998L56.334 3.89833L55.8681 4.08ZM54.1199 3.84959C53.7893 3.21302 53.3207 2.72085 52.7143 2.39235L52.238 3.27165C52.6555 3.49782 52.9869 3.83764 53.2324 4.31041L54.1199 3.84959ZM52.7213 2.39621C52.1242 2.06037 51.4455 1.9 50.7001 1.9V2.9C51.2988 2.9 51.804 3.02763 52.231 3.26779L52.7213 2.39621ZM50.7001 1.9C49.8865 1.9 49.1429 2.08364 48.4832 2.46237L48.9811 3.32963C49.4733 3.04703 50.0418 2.9 50.7001 2.9V1.9ZM48.4832 2.46237C47.8235 2.84109 47.3058 3.37943 46.9329 4.06511L47.8114 4.54288C48.0998 4.01257 48.4888 3.61224 48.9811 3.32963L48.4832 2.46237ZM46.9297 4.07113C46.5661 4.7619 46.3921 5.54823 46.3921 6.416H47.3921C47.3921 5.68377 47.5382 5.0621 47.8146 4.53687L46.9297 4.07113ZM46.3921 6.416C46.3921 7.284 46.5662 8.07415 46.928 8.77371L47.8162 8.31429C47.5381 7.77652 47.3921 7.148 47.3921 6.416H46.3921ZM46.9329 8.78289C47.3058 9.46857 47.8235 10.0069 48.4832 10.3856L48.9811 9.51837C48.4888 9.23575 48.0998 8.83543 47.8114 8.30511L46.9329 8.78289ZM48.4832 10.3856C49.1429 10.7644 49.8865 10.948 50.7001 10.948V9.948C50.0418 9.948 49.4733 9.80097 48.9811 9.51837L48.4832 10.3856ZM50.7001 10.948C51.7901 10.948 52.7223 10.6406 53.4499 9.98829L52.7824 9.24372C52.2726 9.70075 51.5941 9.948 50.7001 9.948V10.948ZM53.4499 9.98828C54.1689 9.34367 54.5941 8.47848 54.7469 7.43227L53.7574 7.28773C53.6329 8.14019 53.3007 8.779 52.7824 9.24372L53.4499 9.98828ZM54.2521 6.86H50.0761V7.86H54.2521V6.86ZM50.5761 7.36V5.904H49.5761V7.36H50.5761ZM50.0761 6.404H56.2041V5.404H50.0761V6.404ZM55.7041 5.904V7.328H56.7041V5.904H55.7041ZM55.7087 7.26072C55.6021 8.04586 55.3219 8.76633 54.8648 9.42771L55.6874 9.99629C56.233 9.207 56.5715 8.33814 56.6996 7.39528L55.7087 7.26072ZM54.862 9.43185C54.4178 10.0884 53.8334 10.6165 53.1003 11.0173L53.58 11.8947C54.4469 11.4208 55.1531 10.7862 55.6903 9.99215L54.862 9.43185ZM53.1024 11.0161C52.392 11.4002 51.5947 11.596 50.7001 11.596V12.596C51.7468 12.596 52.7096 12.3652 53.5779 11.8959L53.1024 11.0161ZM50.7001 11.596C49.7347 11.596 48.8644 11.3753 48.0789 10.9389L47.5933 11.8131C48.5359 12.3367 49.5749 12.596 50.7001 12.596V11.596ZM48.083 10.9412C47.2956 10.494 46.6704 9.87906 46.2023 9.0891L45.342 9.5989C45.8979 10.5369 46.6487 11.2766 47.5892 11.8108L48.083 10.9412ZM46.2046 9.09306C45.7514 8.31201 45.5201 7.42396 45.5201 6.416H44.5201C44.5201 7.58404 44.7902 8.64799 45.3397 9.59494L46.2046 9.09306ZM45.5201 6.416C45.5201 5.40804 45.7514 4.51999 46.2046 3.73894L45.3397 3.23706C44.7902 4.18401 44.5201 5.24796 44.5201 6.416H45.5201ZM46.2023 3.7429C46.6698 2.95387 47.2937 2.34531 48.0789 1.90908L47.5933 1.03492C46.6505 1.55869 45.8984 2.29413 45.342 3.2331L46.2023 3.7429ZM48.0808 1.90807C48.8783 1.46068 49.7483 1.236 50.7001 1.236V0.235999C49.5826 0.235999 48.5433 0.501983 47.5915 1.03593L48.0808 1.90807ZM50.7001 1.236C51.7973 1.236 52.7528 1.50648 53.5827 2.03722L54.1215 1.19477C53.1167 0.552185 51.9709 0.235999 50.7001 0.235999V1.236ZM53.5884 2.04082C54.4199 2.5569 55.0236 3.29059 55.4023 4.26167L56.334 3.89833C55.8807 2.73608 55.1404 1.8271 54.1158 1.19118L53.5884 2.04082ZM55.8681 3.58H53.6761V4.58H55.8681V3.58ZM61.0111 11.392L60.7642 11.8268L60.7706 11.8303L61.0111 11.392ZM58.9471 9.36L58.5133 9.60867L58.517 9.6149L58.9471 9.36ZM58.9471 3.488L58.517 3.23309L58.5147 3.23706L58.9471 3.488ZM61.0111 1.472L61.254 1.90908L61.2558 1.90807L61.0111 1.472ZM66.7391 1.472L66.4922 1.90683L66.4986 1.91033L66.7391 1.472ZM68.8031 3.488L68.3707 3.73894V3.73894L68.8031 3.488ZM68.8031 9.36L69.2356 9.61094L69.2369 9.60864L68.8031 9.36ZM66.7391 11.392L66.9819 11.8291L66.9837 11.8281L66.7391 11.392ZM65.8431 10.032L66.0921 10.4657L66.098 10.4621L65.8431 10.032ZM67.1871 8.592L66.7445 8.35943L66.743 8.36229L67.1871 8.592ZM67.1871 4.256L66.743 4.48573L66.7462 4.49169L67.1871 4.256ZM65.8431 2.832L65.5942 3.26563L65.8431 2.832ZM61.9071 2.832L62.1561 3.26563V3.26563L61.9071 2.832ZM60.5471 4.256L60.1061 4.02029L60.103 4.02629L60.5471 4.256ZM60.5471 8.592L60.1013 8.81867L60.1062 8.82769L60.5471 8.592ZM61.9071 10.032L61.6522 10.4622L61.6582 10.4656L61.9071 10.032ZM63.8751 11.612C62.9213 11.612 62.0498 11.3917 61.2517 10.9537L60.7706 11.8303C61.7218 12.3523 62.7596 12.612 63.8751 12.612V11.612ZM61.258 10.9572C60.4706 10.51 59.8454 9.89506 59.3773 9.1051L58.517 9.6149C59.0729 10.5529 59.8237 11.2926 60.7642 11.8268L61.258 10.9572ZM59.3809 9.11136C58.9264 8.31833 58.6951 7.42389 58.6951 6.416H57.6951C57.6951 7.58411 57.9652 8.65233 58.5133 9.60864L59.3809 9.11136ZM58.6951 6.416C58.6951 5.40804 58.9264 4.51999 59.3796 3.73894L58.5147 3.23706C57.9652 4.18401 57.6951 5.24796 57.6951 6.416H58.6951ZM59.3773 3.7429C59.8448 2.95387 60.4687 2.34531 61.2539 1.90908L60.7683 1.03492C59.8255 1.55869 59.0734 2.29413 58.517 3.2331L59.3773 3.7429ZM61.2558 1.90807C62.0533 1.46068 62.9233 1.236 63.8751 1.236V0.235999C62.7576 0.235999 61.7183 0.501983 60.7665 1.03593L61.2558 1.90807ZM63.8751 1.236C64.8386 1.236 65.7075 1.46111 66.4922 1.90678L66.986 1.03722C66.0428 0.501553 65.0023 0.235999 63.8751 0.235999V1.236ZM66.4986 1.91033C67.2933 2.34646 67.915 2.95362 68.3707 3.73894L69.2356 3.23706C68.6886 2.29438 67.9343 1.55754 66.9797 1.03367L66.4986 1.91033ZM68.3707 3.73894C68.8239 4.51999 69.0551 5.40804 69.0551 6.416H70.0551C70.0551 5.24796 69.7851 4.18401 69.2356 3.23706L68.3707 3.73894ZM69.0551 6.416C69.0551 7.42389 68.8239 8.31833 68.3693 9.11136L69.2369 9.60864C69.785 8.65233 70.0551 7.58411 70.0551 6.416H69.0551ZM68.3707 9.10906C67.9144 9.89533 67.2914 10.5089 66.4945 10.9559L66.9837 11.8281C67.9361 11.2938 68.6892 10.5527 69.2356 9.61094L68.3707 9.10906ZM66.4963 10.9549C65.7109 11.3913 64.8406 11.612 63.8751 11.612V12.612C65.0004 12.612 66.0394 12.3527 66.9819 11.8291L66.4963 10.9549ZM63.8751 11.028C64.6888 11.028 65.4323 10.8444 66.0921 10.4656L65.5942 9.59837C65.1019 9.88097 64.5335 10.028 63.8751 10.028V11.028ZM66.098 10.4621C66.758 10.0711 67.27 9.52007 67.6312 8.82171L66.743 8.36229C66.4642 8.90126 66.0803 9.31027 65.5882 9.60185L66.098 10.4621ZM67.6297 8.82456C68.0036 8.11309 68.1831 7.30571 68.1831 6.416H67.1831C67.1831 7.16895 67.032 7.81225 66.7445 8.35944L67.6297 8.82456ZM68.1831 6.416C68.1831 5.52652 68.0036 4.72297 67.6281 4.02031L66.7462 4.49169C67.0319 5.02637 67.1831 5.66281 67.1831 6.416H68.1831ZM67.6312 4.02629C67.2694 3.32669 66.7555 2.77925 66.0921 2.39837L65.5942 3.26563C66.0827 3.54608 66.4649 3.94798 66.743 4.48571L67.6312 4.02629ZM66.0921 2.39837C65.4323 2.01964 64.6888 1.836 63.8751 1.836V2.836C64.5335 2.836 65.1019 2.98303 65.5942 3.26563L66.0921 2.39837ZM63.8751 1.836C63.0615 1.836 62.3179 2.01964 61.6582 2.39837L62.1561 3.26563C62.6483 2.98303 63.2168 2.836 63.8751 2.836V1.836ZM61.6582 2.39837C60.9962 2.77838 60.4784 3.32383 60.1062 4.02031L60.9881 4.49169C61.2772 3.95084 61.666 3.54695 62.1561 3.26563L61.6582 2.39837ZM60.103 4.02629C59.7402 4.72764 59.5671 5.52902 59.5671 6.416H60.5671C60.5671 5.66032 60.714 5.02169 60.9912 4.48571L60.103 4.02629ZM59.5671 6.416C59.5671 7.30323 59.7403 8.10844 60.1014 8.81862L60.9928 8.36538C60.7139 7.81689 60.5671 7.17144 60.5671 6.416H59.5671ZM60.1062 8.82769C60.4778 9.52294 60.9938 10.0719 61.6522 10.4621L62.162 9.60185C61.6685 9.30939 61.2778 8.89839 60.9881 8.35631L60.1062 8.82769ZM61.6582 10.4656C62.3179 10.8444 63.0615 11.028 63.8751 11.028V10.028C63.2168 10.028 62.6483 9.88097 62.1561 9.59837L61.6582 10.4656ZM77.926 12L77.4927 12.2494L77.6369 12.5H77.926V12ZM75.366 7.552L75.7994 7.30259L75.6551 7.052H75.366V7.552ZM73.974 7.552V7.052H73.474V7.552H73.974ZM73.974 12V12.5H74.474V12H73.974ZM72.15 12H71.65V12.5H72.15V12ZM72.15 0.879999V0.379999H71.65V0.879999H72.15ZM78.15 1.328L77.9232 1.77359L77.9264 1.77521L78.15 1.328ZM79.478 2.528L79.0444 2.77709L79.0485 2.7839L79.478 2.528ZM79.286 6.192L78.8791 5.90138L78.8781 5.90279L79.286 6.192ZM77.35 7.392L77.2315 6.90624L76.5734 7.06676L76.9207 7.64837L77.35 7.392ZM80.102 12V12.5H80.983L80.5313 11.7436L80.102 12ZM73.974 6.096H73.474V6.596H73.974V6.096ZM77.526 5.584L77.1779 5.22501L77.1725 5.23045L77.526 5.584ZM77.542 2.864L77.1941 3.22317L77.2 3.22877L77.542 2.864ZM73.974 2.368V1.868H73.474V2.368H73.974ZM78.3594 11.7506L75.7994 7.30259L74.9327 7.80141L77.4927 12.2494L78.3594 11.7506ZM75.366 7.052H73.974V8.052H75.366V7.052ZM73.474 7.552V12H74.474V7.552H73.474ZM73.974 11.5H72.15V12.5H73.974V11.5ZM72.65 12V0.879999H71.65V12H72.65ZM72.15 1.38H75.99V0.379999H72.15V1.38ZM75.99 1.38C76.7871 1.38 77.4244 1.51969 77.9232 1.77358L78.3768 0.882418C77.7022 0.538978 76.8996 0.379999 75.99 0.379999V1.38ZM77.9264 1.77521C78.4498 2.03691 78.8127 2.37361 79.0444 2.77706L79.9116 2.27894C79.5673 1.67972 79.0449 1.21642 78.3736 0.880785L77.9264 1.77521ZM79.0485 2.7839C79.2982 3.20313 79.426 3.67378 79.426 4.208H80.426C80.426 3.50488 80.2551 2.85553 79.9076 2.2721L79.0485 2.7839ZM79.426 4.208C79.426 4.82778 79.246 5.38775 78.8791 5.90138L79.6929 6.48262C80.1793 5.80158 80.426 5.03888 80.426 4.208H79.426ZM78.8781 5.90279C78.548 6.36836 78.0197 6.71401 77.2315 6.90624L77.4685 7.87776C78.4297 7.64332 79.192 7.18897 79.6939 6.48121L78.8781 5.90279ZM76.9207 7.64837L79.6727 12.2564L80.5313 11.7436L77.7793 7.13563L76.9207 7.64837ZM80.102 11.5H77.926V12.5H80.102V11.5ZM73.974 6.596H75.99V5.596H73.974V6.596ZM75.99 6.596C76.7497 6.596 77.4114 6.40573 77.8796 5.93755L77.1725 5.23045C76.958 5.44494 76.5956 5.596 75.99 5.596V6.596ZM77.8741 5.94295C78.3401 5.491 78.554 4.89368 78.554 4.208H77.554C77.554 4.67432 77.4159 4.99433 77.1779 5.22505L77.8741 5.94295ZM78.554 4.208C78.554 3.52805 78.3487 2.93488 77.884 2.49923L77.2 3.22877C77.418 3.43312 77.554 3.73595 77.554 4.208H78.554ZM77.8899 2.50488C77.42 2.04965 76.7539 1.868 75.99 1.868V2.868C76.6127 2.868 76.9813 3.01701 77.1941 3.22312L77.8899 2.50488ZM75.99 1.868H73.974V2.868H75.99V1.868ZM73.474 2.368V6.096H74.474V2.368H73.474ZM84.8834 0.879999H85.3834V0.379999H84.8834V0.879999ZM84.8834 12V12.5H85.3834V12H84.8834ZM83.0594 12H82.5594V12.5H83.0594V12ZM83.0594 0.879999V0.379999H82.5594V0.879999H83.0594ZM84.3834 0.879999V12H85.3834V0.879999H84.3834ZM84.8834 11.5H83.0594V12.5H84.8834V11.5ZM83.5594 12V0.879999H82.5594V12H83.5594ZM83.0594 1.38H84.8834V0.379999H83.0594V1.38ZM89.9021 2.352V1.852H89.4021V2.352H89.9021ZM89.9021 5.616H89.4021V6.116H89.9021V5.616ZM93.7421 5.616H94.2421V5.116H93.7421V5.616ZM93.7421 7.104V7.604H94.2421V7.104H93.7421ZM89.9021 7.104V6.604H89.4021V7.104H89.9021ZM89.9021 10.512H89.4021V11.012H89.9021V10.512ZM94.2221 10.512H94.7221V10.012H94.2221V10.512ZM94.2221 12V12.5H94.7221V12H94.2221ZM88.0781 12H87.5781V12.5H88.0781V12ZM88.0781 0.863999V0.363999H87.5781V0.863999H88.0781ZM94.2221 0.863999H94.7221V0.363999H94.2221V0.863999ZM94.2221 2.352V2.852H94.7221V2.352H94.2221ZM89.4021 2.352V5.616H90.4021V2.352H89.4021ZM89.9021 6.116H93.7421V5.116H89.9021V6.116ZM93.2421 5.616V7.104H94.2421V5.616H93.2421ZM93.7421 6.604H89.9021V7.604H93.7421V6.604ZM89.4021 7.104V10.512H90.4021V7.104H89.4021ZM89.9021 11.012H94.2221V10.012H89.9021V11.012ZM93.7221 10.512V12H94.7221V10.512H93.7221ZM94.2221 11.5H88.0781V12.5H94.2221V11.5ZM88.5781 12V0.863999H87.5781V12H88.5781ZM88.0781 1.364H94.2221V0.363999H88.0781V1.364ZM93.7221 0.863999V2.352H94.7221V0.863999H93.7221ZM94.2221 1.852H89.9021V2.852H94.2221V1.852ZM98.9167 11.728L98.7129 12.1846L98.7198 12.1876L98.9167 11.728ZM97.5088 10.608L97.9162 10.3182L97.5088 10.608ZM96.9967 8.928V8.428H96.4967V8.928H96.9967ZM98.9487 8.928L99.4468 8.88373L99.4063 8.428H98.9487V8.928ZM99.5088 10.112L99.1671 10.4772L99.173 10.4825L99.5088 10.112ZM102.405 10.128L102.728 10.5093L102.735 10.5036L102.405 10.128ZM102.597 8.032L102.227 8.36844L102.235 8.37724L102.597 8.032ZM101.781 7.488L101.595 7.95227L101.6 7.95428L101.781 7.488ZM100.437 7.072L100.309 7.55536L100.311 7.556L100.437 7.072ZM98.6608 6.496L98.4547 6.95155L98.4611 6.95448L98.4677 6.95722L98.6608 6.496ZM97.5088 2.224L97.9248 2.50135L97.5088 2.224ZM98.8527 1.12L99.0558 1.57691L98.8527 1.12ZM103.493 1.552L103.181 1.94309L103.188 1.94831L103.493 1.552ZM104.645 3.76V4.26H105.186L105.143 3.72035L104.645 3.76ZM102.629 3.76L102.13 3.79935L102.167 4.26H102.629V3.76ZM99.3808 2.688L99.6946 3.07721V3.07721L99.3808 2.688ZM99.1888 4.688L98.818 5.02346L98.8264 5.03272L98.8352 5.04155L99.1888 4.688ZM101.301 5.616L101.433 5.13393L101.431 5.13319L101.301 5.616ZM103.093 6.224L102.891 6.68136L102.895 6.68303L103.093 6.224ZM104.277 7.168L103.877 7.46812L103.885 7.47912L104.277 7.168ZM104.309 10.448L103.883 10.1854L103.879 10.1921L104.309 10.448ZM102.981 11.664L103.211 12.1079L103.214 12.1063L102.981 11.664ZM100.933 11.612C100.244 11.612 99.6402 11.4941 99.1137 11.2684L98.7198 12.1876C99.3879 12.4739 100.128 12.612 100.933 12.612V11.612ZM99.1206 11.2714C98.5955 11.037 98.2002 10.7176 97.9162 10.3182L97.1013 10.8978C97.4999 11.4584 98.0433 11.8856 98.7129 12.1846L99.1206 11.2714ZM97.9162 10.3182C97.6403 9.93027 97.4967 9.47361 97.4967 8.928H96.4967C96.4967 9.66239 96.6945 10.3257 97.1013 10.8978L97.9162 10.3182ZM96.9967 9.428H98.9487V8.428H96.9967V9.428ZM98.4507 8.97227C98.5035 9.56625 98.7405 10.078 99.1672 10.4771L99.8503 9.74686C99.6156 9.5273 99.4793 9.24975 99.4468 8.88373L98.4507 8.97227ZM99.173 10.4825C99.6325 10.8989 100.241 11.076 100.933 11.076V10.076C100.408 10.076 100.068 9.94377 99.8445 9.74151L99.173 10.4825ZM100.933 11.076C101.637 11.076 102.258 10.9085 102.728 10.5093L102.081 9.74675C101.848 9.94485 101.487 10.076 100.933 10.076V11.076ZM102.735 10.5036C103.198 10.0967 103.433 9.56381 103.433 8.944H102.433C102.433 9.28419 102.316 9.54062 102.075 9.75242L102.735 10.5036ZM103.433 8.944C103.433 8.46296 103.285 8.02852 102.958 7.68676L102.235 8.37724C102.357 8.50482 102.433 8.67838 102.433 8.944H103.433ZM102.967 7.69566C102.695 7.39708 102.356 7.17439 101.961 7.02172L101.6 7.95428C101.867 8.05761 102.072 8.19759 102.227 8.36834L102.967 7.69566ZM101.966 7.02376C101.618 6.88427 101.146 6.73943 100.562 6.588L100.311 7.556C100.879 7.70324 101.304 7.83573 101.595 7.95224L101.966 7.02376ZM100.565 6.58865C99.8516 6.39989 99.2836 6.21467 98.8538 6.03478L98.4677 6.95722C98.9553 7.16133 99.5712 7.36011 100.309 7.55535L100.565 6.58865ZM98.8668 6.04045C98.4987 5.8739 98.1785 5.61856 97.9051 5.26314L97.1124 5.87286C97.479 6.34943 97.9268 6.71277 98.4547 6.95155L98.8668 6.04045ZM97.9051 5.26314C97.6711 4.95896 97.5287 4.52244 97.5287 3.904H96.5287C96.5287 4.67223 96.7064 5.34503 97.1124 5.87286L97.9051 5.26314ZM97.5287 3.904C97.5287 3.35149 97.6654 2.89035 97.9248 2.50135L97.0927 1.94665C96.7121 2.51765 96.5287 3.17651 96.5287 3.904H97.5287ZM97.9248 2.50135C98.1874 2.10742 98.5581 1.79813 99.0558 1.57691L98.6497 0.663094C97.9954 0.953866 97.4701 1.38058 97.0927 1.94665L97.9248 2.50135ZM99.0558 1.57691C99.5564 1.35445 100.152 1.236 100.853 1.236V0.235999C100.039 0.235999 99.3011 0.373551 98.6497 0.663094L99.0558 1.57691ZM100.853 1.236C101.844 1.236 102.606 1.48486 103.181 1.94303L103.804 1.16097C103.014 0.531139 102.016 0.235999 100.853 0.235999V1.236ZM103.188 1.94831C103.76 2.38832 104.082 2.98978 104.146 3.79965L105.143 3.72035C105.058 2.65289 104.612 1.78234 103.798 1.15569L103.188 1.94831ZM104.645 3.26H102.629V4.26H104.645V3.26ZM103.127 3.72065C103.083 3.16275 102.813 2.69603 102.369 2.33302L101.736 3.10698C101.996 3.31997 102.11 3.54659 102.13 3.79935L103.127 3.72065ZM102.369 2.33302C101.906 1.95424 101.321 1.788 100.661 1.788V2.788C101.153 2.788 101.495 2.90976 101.736 3.10698L102.369 2.33302ZM100.661 1.788C100.051 1.788 99.5055 1.9451 99.0669 2.29879L99.6946 3.07721C99.9174 2.89757 100.225 2.788 100.661 2.788V1.788ZM99.0669 2.29879C98.5967 2.67794 98.3848 3.21785 98.3848 3.84H99.3848C99.3848 3.45948 99.5034 3.23139 99.6946 3.07721L99.0669 2.29879ZM98.3848 3.84C98.3848 4.28801 98.5212 4.69546 98.818 5.02346L99.5595 4.35254C99.4509 4.23254 99.3848 4.07466 99.3848 3.84H98.3848ZM98.8352 5.04155C99.1028 5.30911 99.4291 5.51465 99.8031 5.66424L100.174 4.73576C99.9084 4.62935 99.7014 4.49355 99.5423 4.33445L98.8352 5.04155ZM99.8031 5.66424C100.149 5.8027 100.608 5.94725 101.171 6.09881L101.431 5.13319C100.884 4.98608 100.468 4.85329 100.174 4.73576L99.8031 5.66424ZM101.168 6.09806C101.891 6.29719 102.463 6.49231 102.891 6.68134L103.295 5.76666C102.805 5.55036 102.182 5.34014 101.433 5.13394L101.168 6.09806ZM102.895 6.68303C103.28 6.84964 103.607 7.10788 103.877 7.468L104.677 6.868C104.307 6.37479 103.844 6.00369 103.291 5.76497L102.895 6.68303ZM103.885 7.47912C104.126 7.78162 104.273 8.22021 104.273 8.848H105.273C105.273 8.06779 105.089 7.38638 104.668 6.85688L103.885 7.47912ZM104.273 8.848C104.273 9.3166 104.146 9.75955 103.883 10.1854L104.734 10.7106C105.09 10.1338 105.273 9.51007 105.273 8.848H104.273ZM103.879 10.1921C103.634 10.6041 103.264 10.9493 102.748 11.2217L103.214 12.1063C103.871 11.76 104.386 11.2946 104.738 10.7039L103.879 10.1921ZM102.751 11.2201C102.26 11.4748 101.659 11.612 100.933 11.612V12.612C101.785 12.612 102.55 12.4506 103.211 12.1079L102.751 11.2201Z" fill="#11826C"/>
</svg>
