<svg width="125" height="38" viewBox="0 0 125 38" fill="none" xmlns="http://www.w3.org/2000/svg">
<path d="M3.47266 13.9746C3.47266 13.1895 3.43164 12.5332 3.34961 12.0059C3.2793 11.4785 3.14453 11.0566 2.94531 10.7402C2.75781 10.4238 2.49414 10.2012 2.1543 10.0723C1.81445 9.94336 1.22266 9.88477 0.378906 9.89648L0.308594 9.58008C2.21875 9.00586 3.99414 8.71875 5.63477 8.71875C5.88086 9.33984 6.00391 10.0078 6.00391 10.7227V12.8848L6.07422 12.9551C6.56641 12.2754 7.03516 11.6719 7.48047 11.1445C7.9375 10.6172 8.40039 10.1777 8.86914 9.82617C9.33789 9.47461 9.83008 9.21094 10.3457 9.03516C10.8613 8.84766 11.4355 8.75391 12.0684 8.75391C12.4668 8.75391 12.9062 8.78906 13.3867 8.85938L12.3672 13.1484L11.7168 12.9551C11.7168 12.7793 11.7051 12.5391 11.6816 12.2344C11.6582 11.9297 11.623 11.6309 11.5762 11.3379C11.541 11.0332 11.4883 10.7754 11.418 10.5645C11.3594 10.3418 11.2891 10.2305 11.207 10.2305C10.8672 10.2305 10.5215 10.3066 10.1699 10.459C9.83008 10.5996 9.45508 10.834 9.04492 11.1621C8.63477 11.4902 8.18359 11.918 7.69141 12.4453C7.19922 12.9727 6.63672 13.6113 6.00391 14.3613V24.5918C6.00391 24.9668 6.0332 25.2715 6.0918 25.5059C6.15039 25.7285 6.27344 25.916 6.46094 26.0684C6.64844 26.2207 6.91211 26.3555 7.25195 26.4727C7.5918 26.5898 8.03711 26.7188 8.58789 26.8594L8.44727 27.2812C7.76758 27.1875 7.1875 27.1172 6.70703 27.0703C6.23828 27.0234 5.85742 27 5.56445 27C4.89648 27 4.11719 27.0938 3.22656 27.2812L3.12109 27.1055C3.35547 26.7656 3.47266 26.1445 3.47266 25.2422V13.9746ZM15.9004 18.4395C15.9004 17.1973 16.1055 15.9961 16.5156 14.8359C16.9258 13.6641 17.5117 12.627 18.2734 11.7246C19.0352 10.8105 19.9551 10.084 21.0332 9.54492C22.123 8.99414 23.3418 8.71875 24.6895 8.71875C25.5332 8.71875 26.3301 8.86523 27.0801 9.1582C27.8301 9.43945 28.4805 9.88477 29.0312 10.4941C29.5938 11.0918 30.0332 11.8652 30.3496 12.8145C30.6777 13.752 30.8418 14.8711 30.8418 16.1719L30.1562 16.8047H18.6777C18.6543 17.0039 18.6426 17.1973 18.6426 17.3848C18.6426 17.5723 18.6426 17.7598 18.6426 17.9473C18.6426 19.2246 18.7891 20.3848 19.082 21.4277C19.3867 22.4707 19.791 23.3672 20.2949 24.1172C20.8105 24.8555 21.4141 25.4297 22.1055 25.8398C22.7969 26.25 23.5293 26.4551 24.3027 26.4551C24.7949 26.4551 25.293 26.4199 25.7969 26.3496C26.3125 26.2676 26.8105 26.1445 27.291 25.9805C27.7832 25.8164 28.2578 25.6055 28.7148 25.3477C29.1719 25.0898 29.5938 24.7793 29.9805 24.416L30.7012 25.1719C29.7754 26.0859 28.7676 26.7363 27.6777 27.123C26.5879 27.5215 25.3281 27.7207 23.8984 27.7207C22.7734 27.7207 21.7188 27.5039 20.7344 27.0703C19.7617 26.6367 18.918 26.0156 18.2031 25.207C17.4883 24.3984 16.9258 23.4258 16.5156 22.2891C16.1055 21.1406 15.9004 19.8574 15.9004 18.4395ZM24.3027 9.93164C22.4863 9.93164 21.1562 10.4062 20.3125 11.3555C19.4688 12.293 18.959 13.6465 18.7832 15.416H28.5742C28.4805 13.4941 28.0469 12.0996 27.2734 11.2324C26.5117 10.3652 25.5215 9.93164 24.3027 9.93164ZM50.5645 31.4648C50.5645 32.6367 50.125 33.6738 49.2461 34.5762C48.3789 35.4902 47.2539 36.1758 45.8711 36.6328C44.4883 37.1016 42.9941 37.3359 41.3887 37.3359C40.1582 37.3359 39.0508 37.1719 38.0664 36.8438C37.082 36.5156 36.2676 35.9707 35.623 35.209C34.9785 34.4473 34.6562 33.5215 34.6562 32.4316C34.6562 31.2949 35.1543 30.2402 36.1504 29.2676C37.1465 28.2949 38.459 27.4688 40.0879 26.7891C38.6113 26.4609 37.5508 26.1035 36.9062 25.7168C36.2617 25.3184 35.9395 24.7031 35.9395 23.8711C35.9395 23.1328 36.168 22.541 36.625 22.0957C37.082 21.6387 37.8613 21.2695 38.9629 20.9883C37.6738 20.5898 36.666 19.9043 35.9395 18.9316C35.2246 17.959 34.8672 16.6992 34.8672 15.1523C34.8672 14.0273 35.1953 12.9668 35.8516 11.9707C36.5195 10.9746 37.3926 10.1836 38.4707 9.59766C39.5605 9.01172 40.6973 8.71875 41.8809 8.71875C43.2402 8.71875 44.4414 8.92969 45.4844 9.35156L51.25 8.71875L51.3906 9.31641L50.125 10.6172L46.9961 10.3359C48.2031 11.4141 48.8066 12.9727 48.8066 15.0117C48.8066 16.043 48.4961 17.0449 47.875 18.0176C47.2539 18.9902 46.3984 19.7871 45.3086 20.4082C44.2188 21.0293 43.0527 21.3398 41.8105 21.3398C40.123 21.6328 39.0391 21.8906 38.5586 22.1133C38.0898 22.3359 37.8555 22.6934 37.8555 23.1855C37.8555 23.4785 38.1777 23.7656 38.8223 24.0469C39.4668 24.3164 40.7383 24.6914 42.6367 25.1719C43.5039 25.3828 44.2363 25.5762 44.834 25.752C45.4316 25.916 46.0293 26.1094 46.627 26.332C47.2246 26.543 47.7109 26.7598 48.0859 26.9824C48.4727 27.2051 48.8359 27.4629 49.1758 27.7559C49.5273 28.0605 49.791 28.3887 49.9668 28.7402C50.1543 29.1035 50.3008 29.5078 50.4062 29.9531C50.5117 30.3984 50.5645 30.9023 50.5645 31.4648ZM42.4609 27.2461L41.7402 27.0703C40.2637 27.6211 39.0977 28.3652 38.2422 29.3027C37.3867 30.2402 36.959 31.1895 36.959 32.1504C36.959 32.8301 37.1406 33.4277 37.5039 33.9434C37.8789 34.4707 38.377 34.8809 38.998 35.1738C39.6191 35.4668 40.2812 35.6836 40.9844 35.8242C41.6875 35.9648 42.4199 36.0352 43.1816 36.0352C46.6152 36.0352 48.332 34.6934 48.332 32.0098C48.332 30.709 47.8398 29.6953 46.8555 28.9688C45.8828 28.2422 44.418 27.668 42.4609 27.2461ZM41.1602 9.9668C39.6836 9.9668 38.6582 10.3477 38.084 11.1094C37.5215 11.8594 37.2402 13.1133 37.2402 14.8711C37.2402 15.6914 37.3691 16.4238 37.627 17.0684C37.8965 17.7012 38.2305 18.2051 38.6289 18.5801C39.0273 18.9434 39.4902 19.248 40.0176 19.4941C40.5566 19.7285 41.0547 19.8867 41.5117 19.9688C41.9805 20.0508 42.4434 20.0918 42.9004 20.0918C44.0957 20.0918 44.9805 19.6641 45.5547 18.8086C46.1289 17.9531 46.416 16.7812 46.416 15.293C46.416 14.4375 46.2812 13.6816 46.0117 13.0254C45.7539 12.3574 45.4316 11.8418 45.0449 11.4785C44.6699 11.1035 44.2305 10.7988 43.7266 10.5645C43.2227 10.3184 42.7656 10.1602 42.3555 10.0898C41.9453 10.0078 41.5469 9.9668 41.1602 9.9668ZM56.3477 13.9746C56.3477 12.3105 56.1484 11.1973 55.75 10.6348C55.3633 10.0605 54.5312 9.81445 53.2539 9.89648L53.1836 9.58008C55.1172 9.00586 56.8926 8.71875 58.5098 8.71875C58.7559 9.32812 58.8789 9.99609 58.8789 10.7227V23.8359C58.8789 24.7617 59.0957 25.4473 59.5293 25.8926C59.9629 26.3379 60.7305 26.6602 61.832 26.8594L61.6914 27.2812C60.3438 27.0938 59.3008 27 58.5625 27C57.8359 27 57.0156 27.0938 56.1016 27.2812L55.9961 27.1055C56.2305 26.7656 56.3477 26.1445 56.3477 25.2422V13.9746ZM54.5547 2.19727C55.668 1.55273 56.9277 1.01367 58.334 0.580078C58.334 1.55273 58.4922 2.51367 58.8086 3.46289L58.5801 3.7793C57.4668 3.84961 56.3066 4.16016 55.0996 4.71094C54.8066 3.90234 54.625 3.06445 54.5547 2.19727ZM76.6328 22.9043C76.6328 23.748 76.4629 24.4746 76.123 25.084C75.7832 25.6934 75.3262 26.1973 74.752 26.5957C74.1895 26.9824 73.5273 27.2637 72.7656 27.4395C72.0156 27.627 71.2246 27.7207 70.3926 27.7207C68.377 27.7207 66.4844 27.2988 64.7148 26.4551C64.9375 25.6816 65.1602 24.9668 65.3828 24.3105C65.6055 23.6426 65.834 23.0273 66.0684 22.4648L66.5781 22.6406C66.4727 23.1562 66.4199 23.6543 66.4199 24.1348C66.4199 24.6035 66.4375 25.0312 66.4727 25.418C66.8359 25.6055 67.1758 25.7695 67.4922 25.9102C67.8086 26.0391 68.125 26.1504 68.4414 26.2441C68.7578 26.3262 69.0977 26.3906 69.4609 26.4375C69.8242 26.4727 70.2461 26.4902 70.7266 26.4902C71.4414 26.4902 72.0332 26.4434 72.502 26.3496C72.9707 26.2559 73.334 26.0977 73.5918 25.875C73.8613 25.6406 74.0488 25.3359 74.1543 24.9609C74.2598 24.5742 74.3125 24.0996 74.3125 23.5371C74.3125 23.1035 74.2363 22.6992 74.084 22.3242C73.9434 21.9375 73.6914 21.5566 73.3281 21.1816C72.9766 20.8066 72.502 20.4199 71.9043 20.0215C71.3184 19.6113 70.5859 19.166 69.707 18.6855C68.2891 17.8418 67.2168 17.0039 66.4902 16.1719C65.7637 15.3281 65.4004 14.4258 65.4004 13.4648C65.4004 12.7031 65.5586 12.0293 65.875 11.4434C66.1914 10.8457 66.6191 10.3477 67.1582 9.94922C67.709 9.53906 68.3477 9.23438 69.0742 9.03516C69.8008 8.82422 70.5684 8.71875 71.377 8.71875C71.7871 8.71875 72.2148 8.74805 72.6602 8.80664C73.1172 8.86523 73.5566 8.95312 73.9785 9.07031C74.4004 9.17578 74.793 9.31055 75.1562 9.47461C75.5312 9.62695 75.8535 9.80273 76.123 10.002C75.748 11.5371 75.291 12.8848 74.752 14.0449L74.2422 13.8516C74.2656 13.5117 74.2832 13.0957 74.2949 12.6035C74.3066 12.0996 74.3125 11.5078 74.3125 10.8281C73.5508 10.2305 72.4961 9.93164 71.1484 9.93164C70.4805 9.93164 69.9121 9.97266 69.4434 10.0547C68.9863 10.1367 68.6172 10.2773 68.3359 10.4766C68.0547 10.6758 67.8496 10.9512 67.7207 11.3027C67.6035 11.6426 67.5449 12.0762 67.5449 12.6035C67.5449 12.9902 67.5977 13.3535 67.7031 13.6934C67.8086 14.0215 67.9961 14.3496 68.2656 14.6777C68.5352 14.9941 68.8984 15.3223 69.3555 15.6621C69.8242 15.9902 70.4219 16.3477 71.1484 16.7344C72.2852 17.3555 73.2051 17.9004 73.9082 18.3691C74.623 18.8379 75.1797 19.3008 75.5781 19.7578C75.9883 20.2031 76.2637 20.6719 76.4043 21.1641C76.5566 21.6562 76.6328 22.2363 76.6328 22.9043ZM85.3867 22.1484C85.3867 23.7422 85.5625 24.8438 85.9141 25.4531C86.2656 26.0508 86.834 26.3496 87.6191 26.3496C88.4746 26.3496 89.5176 26.0273 90.748 25.3828L91.293 26.1387C89.3594 27.1934 87.7773 27.7207 86.5469 27.7207C85.8906 27.7207 85.3574 27.6621 84.9473 27.5449C84.5371 27.4277 84.1621 27.1992 83.8223 26.8594C83.4824 26.5195 83.2363 26.0215 83.084 25.3652C82.9434 24.6973 82.873 23.8359 82.873 22.7812V10.8633L80.2363 11.0215V9.89648C81.1621 9.69727 82.041 9.56836 82.873 9.50977V7.01367C83.8691 6.45117 84.6836 5.64844 85.3164 4.60547L85.8613 4.81641C85.6621 5.28516 85.5332 5.81836 85.4746 6.41602C85.416 7.00195 85.3867 7.99805 85.3867 9.4043H91.4336V10.0195C90.9414 10.2188 90.4434 10.3887 89.9395 10.5293C89.4355 10.6582 88.9141 10.7227 88.375 10.7227H85.3867V22.1484ZM94.123 18.4395C94.123 17.1973 94.3281 15.9961 94.7383 14.8359C95.1484 13.6641 95.7344 12.627 96.4961 11.7246C97.2578 10.8105 98.1777 10.084 99.2559 9.54492C100.346 8.99414 101.564 8.71875 102.912 8.71875C103.756 8.71875 104.553 8.86523 105.303 9.1582C106.053 9.43945 106.703 9.88477 107.254 10.4941C107.816 11.0918 108.256 11.8652 108.572 12.8145C108.9 13.752 109.064 14.8711 109.064 16.1719L108.379 16.8047H96.9004C96.877 17.0039 96.8652 17.1973 96.8652 17.3848C96.8652 17.5723 96.8652 17.7598 96.8652 17.9473C96.8652 19.2246 97.0117 20.3848 97.3047 21.4277C97.6094 22.4707 98.0137 23.3672 98.5176 24.1172C99.0332 24.8555 99.6367 25.4297 100.328 25.8398C101.02 26.25 101.752 26.4551 102.525 26.4551C103.018 26.4551 103.516 26.4199 104.02 26.3496C104.535 26.2676 105.033 26.1445 105.514 25.9805C106.006 25.8164 106.48 25.6055 106.938 25.3477C107.395 25.0898 107.816 24.7793 108.203 24.416L108.924 25.1719C107.998 26.0859 106.99 26.7363 105.9 27.123C104.811 27.5215 103.551 27.7207 102.121 27.7207C100.996 27.7207 99.9414 27.5039 98.957 27.0703C97.9844 26.6367 97.1406 26.0156 96.4258 25.207C95.7109 24.3984 95.1484 23.4258 94.7383 22.2891C94.3281 21.1406 94.123 19.8574 94.123 18.4395ZM102.525 9.93164C100.709 9.93164 99.3789 10.4062 98.5352 11.3555C97.6914 12.293 97.1816 13.6465 97.0059 15.416H106.797C106.703 13.4941 106.27 12.0996 105.496 11.2324C104.734 10.3652 103.744 9.93164 102.525 9.93164ZM114.953 13.9746C114.953 13.1895 114.912 12.5332 114.83 12.0059C114.76 11.4785 114.625 11.0566 114.426 10.7402C114.238 10.4238 113.975 10.2012 113.635 10.0723C113.295 9.94336 112.703 9.88477 111.859 9.89648L111.789 9.58008C113.699 9.00586 115.475 8.71875 117.115 8.71875C117.361 9.33984 117.484 10.0078 117.484 10.7227V12.8848L117.555 12.9551C118.047 12.2754 118.516 11.6719 118.961 11.1445C119.418 10.6172 119.881 10.1777 120.35 9.82617C120.818 9.47461 121.311 9.21094 121.826 9.03516C122.342 8.84766 122.916 8.75391 123.549 8.75391C123.947 8.75391 124.387 8.78906 124.867 8.85938L123.848 13.1484L123.197 12.9551C123.197 12.7793 123.186 12.5391 123.162 12.2344C123.139 11.9297 123.104 11.6309 123.057 11.3379C123.021 11.0332 122.969 10.7754 122.898 10.5645C122.84 10.3418 122.77 10.2305 122.688 10.2305C122.348 10.2305 122.002 10.3066 121.65 10.459C121.311 10.5996 120.936 10.834 120.525 11.1621C120.115 11.4902 119.664 11.918 119.172 12.4453C118.68 12.9727 118.117 13.6113 117.484 14.3613V24.5918C117.484 24.9668 117.514 25.2715 117.572 25.5059C117.631 25.7285 117.754 25.916 117.941 26.0684C118.129 26.2207 118.393 26.3555 118.732 26.4727C119.072 26.5898 119.518 26.7188 120.068 26.8594L119.928 27.2812C119.248 27.1875 118.668 27.1172 118.188 27.0703C117.719 27.0234 117.338 27 117.045 27C116.377 27 115.598 27.0938 114.707 27.2812L114.602 27.1055C114.836 26.7656 114.953 26.1445 114.953 25.2422V13.9746Z" fill="white"/>
</svg>
