<svg width="130" height="26" viewBox="0 0 130 26" fill="none" xmlns="http://www.w3.org/2000/svg">
<path d="M8.57812 8.26562V12.875H15.7812V13.4219C14.8333 13.849 13.9792 14.0625 13.2188 14.0625H8.57812V21.2188H8.03125C7.60417 20.2708 7.39062 19.4167 7.39062 18.6562V14.0625H0.265625V13.5156C1.17188 13.0885 2.02083 12.875 2.8125 12.875H7.39062V5.70312H7.9375C8.36458 6.60938 8.57812 7.46354 8.57812 8.26562ZM44.3125 3.96875C42.6354 3.125 40.9688 2.70312 39.3125 2.70312C38 2.70312 36.8177 2.91667 35.7656 3.34375C34.7135 3.76042 33.8125 4.42188 33.0625 5.32812C32.3229 6.23438 31.7552 7.39062 31.3594 8.79688C30.9635 10.2031 30.7656 11.8906 30.7656 13.8594C30.7656 14.8594 30.8646 15.8177 31.0625 16.7344C31.2604 17.651 31.5417 18.5104 31.9062 19.3125C32.2812 20.1042 32.7344 20.8281 33.2656 21.4844C33.8073 22.1302 34.4167 22.6875 35.0938 23.1562C35.7708 23.6146 36.5104 23.974 37.3125 24.2344C38.125 24.4844 38.9844 24.6094 39.8906 24.6094C40.5469 24.6094 41.1406 24.5781 41.6719 24.5156C42.2135 24.4531 42.724 24.3438 43.2031 24.1875C43.6823 24.0208 44.1562 23.7969 44.625 23.5156C45.0938 23.224 45.5938 22.8542 46.125 22.4062L46.7656 23.1406C46.151 23.599 45.5573 23.9844 44.9844 24.2969C44.4115 24.6094 43.8229 24.8646 43.2188 25.0625C42.625 25.2708 41.9948 25.4167 41.3281 25.5C40.6615 25.5938 39.9271 25.6406 39.125 25.6406C37.5417 25.6406 36.0729 25.3542 34.7188 24.7812C33.375 24.2083 32.2135 23.401 31.2344 22.3594C30.2552 21.3073 29.4896 20.0417 28.9375 18.5625C28.3854 17.0729 28.1094 15.4219 28.1094 13.6094C28.1094 11.7552 28.4115 10.0885 29.0156 8.60938C29.6302 7.11979 30.474 5.85417 31.5469 4.8125C32.6198 3.77083 33.8854 2.97396 35.3438 2.42188C36.8021 1.85938 38.3802 1.57812 40.0781 1.57812C42.224 1.57812 44.276 2.10938 46.2344 3.17188C45.901 4.85938 45.3854 6.42708 44.6875 7.875L44.2812 7.65625C44.4062 6.89583 44.4688 6.14062 44.4688 5.39062C44.4688 4.72396 44.4167 4.25 44.3125 3.96875ZM57.875 8.75C60.2708 8.75 62.151 9.48438 63.5156 10.9531C64.8802 12.4219 65.5625 14.4688 65.5625 17.0938C65.5625 18.6146 65.2135 20.0312 64.5156 21.3438C63.8177 22.6562 62.8698 23.7031 61.6719 24.4844C60.474 25.2552 59.1771 25.6406 57.7812 25.6406C55.375 25.6406 53.4896 24.9167 52.125 23.4688C50.7708 22.0104 50.0938 19.9479 50.0938 17.2812C50.0938 15.6979 50.4427 14.2552 51.1406 12.9531C51.8385 11.6406 52.7812 10.6146 53.9688 9.875C55.1667 9.125 56.4688 8.75 57.875 8.75ZM57.5625 9.82812C56.7396 9.82812 56.026 9.94792 55.4219 10.1875C54.8177 10.4271 54.3333 10.75 53.9688 11.1562C53.6042 11.5625 53.3125 12.0781 53.0938 12.7031C52.875 13.3281 52.724 13.9688 52.6406 14.625C52.5677 15.2812 52.5312 16.0417 52.5312 16.9062C52.5312 18.2812 52.6927 19.4844 53.0156 20.5156C53.349 21.5365 53.7917 22.3333 54.3438 22.9062C54.8958 23.4688 55.4844 23.8854 56.1094 24.1562C56.7344 24.4167 57.3958 24.5469 58.0938 24.5469C58.9062 24.5469 59.6146 24.4219 60.2188 24.1719C60.8333 23.9115 61.3229 23.5781 61.6875 23.1719C62.0521 22.7552 62.3438 22.2344 62.5625 21.6094C62.7812 20.974 62.9271 20.3333 63 19.6875C63.0833 19.0417 63.125 18.3073 63.125 17.4844C63.125 16.3281 63.0156 15.2969 62.7969 14.3906C62.5781 13.4844 62.2865 12.75 61.9219 12.1875C61.5677 11.625 61.1406 11.1615 60.6406 10.7969C60.151 10.4323 59.6562 10.1823 59.1562 10.0469C58.6562 9.90104 58.125 9.82812 57.5625 9.82812ZM73.0156 22.1875C73.0156 23.0104 73.2083 23.6198 73.5938 24.0156C73.9792 24.4115 74.6615 24.6979 75.6406 24.875L75.5156 25.25C74.3177 25.0833 73.3906 25 72.7344 25C72.0885 25 71.3594 25.0833 70.5469 25.25L70.4531 25.0938C70.6615 24.7917 70.7656 24.2396 70.7656 23.4375V4.71875C70.7656 3.23958 70.5885 2.25 70.2344 1.75C69.8906 1.23958 69.151 1.02083 68.0156 1.09375L67.9531 0.8125C69.6719 0.302083 71.25 0.046875 72.6875 0.046875C72.9062 0.588542 73.0156 1.18229 73.0156 1.82812V22.1875ZM82.6094 22.1875C82.6094 23.0104 82.8021 23.6198 83.1875 24.0156C83.5729 24.4115 84.2552 24.6979 85.2344 24.875L85.1094 25.25C83.9115 25.0833 82.9844 25 82.3281 25C81.6823 25 80.9531 25.0833 80.1406 25.25L80.0469 25.0938C80.2552 24.7917 80.3594 24.2396 80.3594 23.4375V4.71875C80.3594 3.23958 80.1823 2.25 79.8281 1.75C79.4844 1.23958 78.7448 1.02083 77.6094 1.09375L77.5469 0.8125C79.2656 0.302083 80.8438 0.046875 82.2812 0.046875C82.5 0.588542 82.6094 1.18229 82.6094 1.82812V22.1875ZM87.9375 17.3906C87.9375 16.2865 88.1198 15.2188 88.4844 14.1875C88.849 13.1458 89.3698 12.224 90.0469 11.4219C90.724 10.6094 91.5417 9.96354 92.5 9.48438C93.4688 8.99479 94.5521 8.75 95.75 8.75C96.5 8.75 97.2083 8.88021 97.875 9.14062C98.5417 9.39062 99.1198 9.78646 99.6094 10.3281C100.109 10.8594 100.5 11.5469 100.781 12.3906C101.073 13.224 101.219 14.2188 101.219 15.375L100.609 15.9375H90.4062C90.3854 16.1146 90.375 16.2865 90.375 16.4531C90.375 16.6198 90.375 16.7865 90.375 16.9531C90.375 18.0885 90.5052 19.1198 90.7656 20.0469C91.0365 20.974 91.3958 21.7708 91.8438 22.4375C92.3021 23.0938 92.8385 23.6042 93.4531 23.9688C94.0677 24.3333 94.7188 24.5156 95.4062 24.5156C95.8438 24.5156 96.2865 24.4844 96.7344 24.4219C97.1927 24.349 97.6354 24.2396 98.0625 24.0938C98.5 23.9479 98.9219 23.7604 99.3281 23.5312C99.7344 23.3021 100.109 23.026 100.453 22.7031L101.094 23.375C100.271 24.1875 99.375 24.7656 98.4062 25.1094C97.4375 25.4635 96.3177 25.6406 95.0469 25.6406C94.0469 25.6406 93.1094 25.4479 92.2344 25.0625C91.3698 24.6771 90.6198 24.125 89.9844 23.4062C89.349 22.6875 88.849 21.8229 88.4844 20.8125C88.1198 19.7917 87.9375 18.651 87.9375 17.3906ZM95.4062 9.82812C93.7917 9.82812 92.6094 10.25 91.8594 11.0938C91.1094 11.9271 90.6562 13.1302 90.5 14.7031H99.2031C99.1198 12.9948 98.7344 11.7552 98.0469 10.9844C97.3698 10.2135 96.4896 9.82812 95.4062 9.82812ZM111.828 25.6406C110.734 25.6406 109.719 25.4219 108.781 24.9844C107.844 24.5469 107.062 23.9635 106.438 23.2344C105.812 22.4948 105.323 21.6562 104.969 20.7188C104.615 19.7708 104.438 18.7865 104.438 17.7656C104.438 16.3073 104.651 15 105.078 13.8438C105.505 12.6875 106.099 11.7448 106.859 11.0156C107.62 10.276 108.505 9.71354 109.516 9.32812C110.536 8.94271 111.651 8.75 112.859 8.75C114.193 8.75 115.568 8.99479 116.984 9.48438L115.969 13.3125L115.391 13.1562C115.505 12.0625 115.474 11.125 115.297 10.3438C114.13 10 113.073 9.82812 112.125 9.82812C110.292 9.82812 108.958 10.4271 108.125 11.625C107.292 12.8125 106.875 14.5729 106.875 16.9062C106.875 19.0833 107.38 20.8958 108.391 22.3438C109.411 23.7917 110.698 24.5156 112.25 24.5156C114.177 24.5156 115.745 23.9115 116.953 22.7031L117.594 23.375C116.812 24.1875 115.958 24.7656 115.031 25.1094C114.115 25.4635 113.047 25.6406 111.828 25.6406ZM124.328 20.6875C124.328 22.1042 124.484 23.0833 124.797 23.625C125.109 24.1562 125.615 24.4219 126.312 24.4219C127.073 24.4219 128 24.1354 129.094 23.5625L129.578 24.2344C127.859 25.1719 126.453 25.6406 125.359 25.6406C124.776 25.6406 124.302 25.5885 123.938 25.4844C123.573 25.3802 123.24 25.1771 122.938 24.875C122.635 24.5729 122.417 24.1302 122.281 23.5469C122.156 22.9531 122.094 22.1875 122.094 21.25V10.6562L119.75 10.7969V9.79688C120.573 9.61979 121.354 9.50521 122.094 9.45312V7.23438C122.979 6.73438 123.703 6.02083 124.266 5.09375L124.75 5.28125C124.573 5.69792 124.458 6.17188 124.406 6.70312C124.354 7.22396 124.328 8.10938 124.328 9.35938H129.703V9.90625C129.266 10.0833 128.823 10.2344 128.375 10.3594C127.927 10.474 127.464 10.5312 126.984 10.5312H124.328V20.6875Z" fill="white"/>
</svg>
