<svg width="74" height="74" viewBox="0 0 74 74" fill="none" xmlns="http://www.w3.org/2000/svg">
<path d="M15.6325 13.875L16.6731 15.9331L17.945 18.5H27.75V30.0625H9.25V13.875H15.6325ZM17.0662 9.25H6.9375C6.32419 9.25 5.73599 9.49364 5.30232 9.92732C4.86864 10.361 4.625 10.9492 4.625 11.5625V32.375C4.625 32.9883 4.86864 33.5765 5.30232 34.0102C5.73599 34.4439 6.32419 34.6875 6.9375 34.6875H30.0625C30.6758 34.6875 31.264 34.4439 31.6977 34.0102C32.1314 33.5765 32.375 32.9883 32.375 32.375V16.1875C32.375 15.5742 32.1314 14.986 31.6977 14.5523C31.264 14.1186 30.6758 13.875 30.0625 13.875H20.8125L19.1475 10.5219C18.9536 10.137 18.6559 9.81397 18.2882 9.58923C17.9204 9.3645 17.4972 9.247 17.0662 9.25ZM52.6325 13.875L53.6731 15.9331L54.945 18.5H64.75V30.0625H46.25V13.875H52.6325ZM54.0662 9.25H43.9375C43.3242 9.25 42.736 9.49364 42.3023 9.92732C41.8686 10.361 41.625 10.9492 41.625 11.5625V32.375C41.625 32.9883 41.8686 33.5765 42.3023 34.0102C42.736 34.4439 43.3242 34.6875 43.9375 34.6875H67.0625C67.6758 34.6875 68.264 34.4439 68.6977 34.0102C69.1314 33.5765 69.375 32.9883 69.375 32.375V16.1875C69.375 15.5742 69.1314 14.986 68.6977 14.5523C68.264 14.1186 67.6758 13.875 67.0625 13.875H57.8125L56.1475 10.5219C55.9536 10.137 55.6559 9.81397 55.2882 9.58923C54.9204 9.3645 54.4972 9.247 54.0662 9.25ZM15.6325 43.9375L16.6731 45.9956L17.945 48.5625H27.75V60.125H9.25V43.9375H15.6325ZM17.0662 39.3125H6.9375C6.32419 39.3125 5.73599 39.5561 5.30232 39.9898C4.86864 40.4235 4.625 41.0117 4.625 41.625V62.4375C4.625 63.0508 4.86864 63.639 5.30232 64.0727C5.73599 64.5064 6.32419 64.75 6.9375 64.75H30.0625C30.6758 64.75 31.264 64.5064 31.6977 64.0727C32.1314 63.639 32.375 63.0508 32.375 62.4375V46.25C32.375 45.6367 32.1314 45.0485 31.6977 44.6148C31.264 44.1811 30.6758 43.9375 30.0625 43.9375H20.8125L19.1475 40.5844C18.9536 40.1995 18.6559 39.8765 18.2882 39.6517C17.9204 39.427 17.4972 39.3095 17.0662 39.3125ZM52.6325 43.9375L53.6731 45.9956L54.945 48.5625H64.75V60.125H46.25V43.9375H52.6325ZM54.0662 39.3125H43.9375C43.3242 39.3125 42.736 39.5561 42.3023 39.9898C41.8686 40.4235 41.625 41.0117 41.625 41.625V62.4375C41.625 63.0508 41.8686 63.639 42.3023 64.0727C42.736 64.5064 43.3242 64.75 43.9375 64.75H67.0625C67.6758 64.75 68.264 64.5064 68.6977 64.0727C69.1314 63.639 69.375 63.0508 69.375 62.4375V46.25C69.375 45.6367 69.1314 45.0485 68.6977 44.6148C68.264 44.1811 67.6758 43.9375 67.0625 43.9375H57.8125L56.1475 40.5844C55.9536 40.1995 55.6559 39.8765 55.2882 39.6517C54.9204 39.427 54.4972 39.3095 54.0662 39.3125Z" fill="#F8FAE5"/>
</svg>
