<svg width="74" height="74" viewBox="0 0 74 74" fill="none" xmlns="http://www.w3.org/2000/svg">
<path d="M67.8333 43.1667H43.1666V67.8333H67.8333V43.1667ZM20.0416 6.16666L33.9166 30.8333H6.16663L20.0416 6.16666ZM55.5 30.8333C58.771 30.8333 61.908 29.5339 64.2209 27.221C66.5339 24.908 67.8333 21.771 67.8333 18.5C67.8333 15.229 66.5339 12.092 64.2209 9.77901C61.908 7.46607 58.771 6.16666 55.5 6.16666C52.229 6.16666 49.0919 7.46607 46.779 9.77901C44.466 12.092 43.1666 15.229 43.1666 18.5C43.1666 21.771 44.466 24.908 46.779 27.221C49.0919 29.5339 52.229 30.8333 55.5 30.8333Z" stroke="#F8FAE5" stroke-width="5" stroke-linejoin="round"/>
<path d="M6.16663 43.1667L30.8333 67.8333M30.8333 43.1667L6.16663 67.8333" stroke="#F8FAE5" stroke-width="5" stroke-linecap="round" stroke-linejoin="round"/>
</svg>
