<svg width="70" height="70" viewBox="0 0 70 70" fill="none" xmlns="http://www.w3.org/2000/svg">
<path d="M50.3125 13.125H19.6875C19.1073 13.125 18.5509 12.8945 18.1407 12.4843C17.7305 12.0741 17.5 11.5177 17.5 10.9375C17.5 10.3573 17.7305 9.80094 18.1407 9.3907C18.5509 8.98047 19.1073 8.75 19.6875 8.75H50.3125C50.8927 8.75 51.4491 8.98047 51.8593 9.3907C52.2695 9.80094 52.5 10.3573 52.5 10.9375C52.5 11.5177 52.2695 12.0741 51.8593 12.4843C51.4491 12.8945 50.8927 13.125 50.3125 13.125ZM54.6875 19.6875H15.3125C14.7323 19.6875 14.1759 19.457 13.7657 19.0468C13.3555 18.6366 13.125 18.0802 13.125 17.5C13.125 16.9198 13.3555 16.3634 13.7657 15.9532C14.1759 15.543 14.7323 15.3125 15.3125 15.3125H54.6875C55.2677 15.3125 55.8241 15.543 56.2343 15.9532C56.6445 16.3634 56.875 16.9198 56.875 17.5C56.875 18.0802 56.6445 18.6366 56.2343 19.0468C55.8241 19.457 55.2677 19.6875 54.6875 19.6875ZM57.3029 61.25H12.6971C11.0706 61.2482 9.51134 60.6013 8.36127 59.4512C7.21121 58.3012 6.56431 56.7419 6.5625 55.1154V28.0096C6.56431 26.3831 7.21121 24.8238 8.36127 23.6738C9.51134 22.5237 11.0706 21.8768 12.6971 21.875H57.3029C58.9294 21.8768 60.4887 22.5237 61.6387 23.6738C62.7888 24.8238 63.4357 26.3831 63.4375 28.0096V55.1154C63.4357 56.7419 62.7888 58.3012 61.6387 59.4512C60.4887 60.6013 58.9294 61.2482 57.3029 61.25Z" fill="url(#paint0_linear_76_18)"/>
<defs>
<linearGradient id="paint0_linear_76_18" x1="35" y1="8.75" x2="35" y2="61.25" gradientUnits="userSpaceOnUse">
<stop stop-color="#F8FAE5"/>
<stop offset="1" stop-color="#43766C"/>
</linearGradient>
</defs>
</svg>
