<svg width="40" height="40" viewBox="0 0 40 40" fill="none" xmlns="http://www.w3.org/2000/svg">
<path fill-rule="evenodd" clip-rule="evenodd" d="M19.9999 3.33332C10.7949 3.33332 3.33325 10.795 3.33325 20C3.33325 29.205 10.7949 36.6667 19.9999 36.6667C29.2049 36.6667 36.6666 29.205 36.6666 20C36.6666 10.795 29.2049 3.33332 19.9999 3.33332ZM19.2166 25.8833C18.9822 26.1174 18.6645 26.2489 18.3333 26.2489C18.002 26.2489 17.6843 26.1174 17.4499 25.8833L12.4499 20.8833C12.2158 20.6489 12.0844 20.3312 12.0844 20C12.0844 19.6687 12.2158 19.351 12.4499 19.1167L17.4499 14.1167C17.5644 13.9938 17.7024 13.8953 17.8557 13.827C18.009 13.7587 18.1745 13.722 18.3424 13.719C18.5102 13.716 18.6769 13.7469 18.8326 13.8098C18.9882 13.8727 19.1296 13.9662 19.2483 14.0849C19.367 14.2036 19.4606 14.345 19.5235 14.5007C19.5863 14.6563 19.6172 14.823 19.6142 14.9909C19.6113 15.1587 19.5745 15.3242 19.5062 15.4776C19.4379 15.6309 19.3394 15.7689 19.2166 15.8833L16.3499 18.75H26.6666C26.9981 18.75 27.316 18.8817 27.5505 19.1161C27.7849 19.3505 27.9166 19.6685 27.9166 20C27.9166 20.3315 27.7849 20.6495 27.5505 20.8839C27.316 21.1183 26.9981 21.25 26.6666 21.25H16.3499L19.2166 24.1167C19.4507 24.351 19.5822 24.6687 19.5822 25C19.5822 25.3312 19.4507 25.6489 19.2166 25.8833Z" fill="url(#paint0_linear_69_291)"/>
<defs>
<linearGradient id="paint0_linear_69_291" x1="3.33325" y1="20" x2="36.6666" y2="20" gradientUnits="userSpaceOnUse">
<stop stop-color="#43766C"/>
<stop offset="1" stop-color="#7DDCC9"/>
</linearGradient>
</defs>
</svg>
