<svg width="70" height="70" viewBox="0 0 70 70" fill="none" xmlns="http://www.w3.org/2000/svg">
<path d="M43.75 40.8333C35.9625 40.8333 20.4167 44.7125 20.4167 52.5V58.3333H67.0834V52.5C67.0834 44.7125 51.5375 40.8333 43.75 40.8333ZM17.5 29.1667V20.4167H11.6667V29.1667H2.91669V35H11.6667V43.75H17.5V35H26.25V29.1667M43.75 35C46.8442 35 49.8117 33.7708 51.9996 31.5829C54.1875 29.395 55.4167 26.4275 55.4167 23.3333C55.4167 20.2391 54.1875 17.2717 51.9996 15.0838C49.8117 12.8958 46.8442 11.6667 43.75 11.6667C40.6558 11.6667 37.6884 12.8958 35.5004 15.0838C33.3125 17.2717 32.0834 20.2391 32.0834 23.3333C32.0834 26.4275 33.3125 29.395 35.5004 31.5829C37.6884 33.7708 40.6558 35 43.75 35Z" fill="url(#paint0_linear_76_13)"/>
<defs>
<linearGradient id="paint0_linear_76_13" x1="35" y1="11.6667" x2="35" y2="58.3333" gradientUnits="userSpaceOnUse">
<stop stop-color="#F8FAE5"/>
<stop offset="1" stop-color="#43766C"/>
</linearGradient>
</defs>
</svg>
