<svg width="70" height="70" viewBox="0 0 70 70" fill="none" xmlns="http://www.w3.org/2000/svg">
<path d="M14.5455 3.18182H52.7273V6.36364H55.9091V63.6364H52.7273V66.8182H14.5455V63.6364H11.3636V44.5455H17.7273V60.4546H49.5455V9.54546H17.7273V25.4546H11.3636V6.36364H14.5455V3.18182ZM24.0909 19.0909H30.4545V22.2727H33.6364V25.4546H36.8182V28.6364H40V31.8182H43.1818V38.1818H40V41.3636H36.8182V44.5455H33.6364V47.7273H30.4545V50.9091H24.0909V44.5455H27.2727V41.3636H30.4545V38.1818H5V31.8182H30.4545V28.6364H27.2727V25.4546H24.0909V19.0909Z" fill="url(#paint0_linear_89_33)"/>
<defs>
<linearGradient id="paint0_linear_89_33" x1="30.4545" y1="3.18182" x2="30.4545" y2="66.8182" gradientUnits="userSpaceOnUse">
<stop stop-color="#F8FAE5"/>
<stop offset="1" stop-color="#43766C"/>
</linearGradient>
</defs>
</svg>
