<svg width="73" height="75" viewBox="0 0 73 75" fill="none" xmlns="http://www.w3.org/2000/svg">
<path d="M35.6959 45.9785C38.5618 43.5035 40.6176 40.1828 41.5843 36.4668C42.551 32.7507 42.3819 28.8191 41.0999 25.2051C39.8179 21.5911 37.485 18.4696 34.4177 16.264C31.3504 14.0584 27.6971 12.8754 23.9531 12.8754C20.2092 12.8754 16.5558 14.0584 13.4885 16.264C10.4212 18.4696 8.08837 21.5911 6.80638 25.2051C5.52439 28.8191 5.35527 32.7507 6.32197 36.4668C7.28867 40.1828 9.34441 43.5035 12.2104 45.9785C7.73509 48.0576 3.85678 51.2864 0.949565 55.3535C0.412605 56.1053 0.188306 57.0454 0.326009 57.967C0.463713 58.8887 0.95214 59.7164 1.68384 60.2681C2.41554 60.8197 3.33058 61.0502 4.22766 60.9087C5.12474 60.7672 5.93038 60.2654 6.46734 59.5137C8.4798 56.6898 11.1119 54.3932 14.1499 52.81C17.188 51.2269 20.5466 50.4019 23.9531 50.4019C27.3597 50.4019 30.7182 51.2269 33.7563 52.81C36.7944 54.3932 39.4264 56.6898 41.4389 59.5137C41.9759 60.2658 42.7816 60.768 43.679 60.9098C44.5763 61.0515 45.4917 60.8212 46.2238 60.2695C46.9559 59.7179 47.4447 58.89 47.5827 57.9681C47.7206 57.0461 47.4965 56.1057 46.9595 55.3535C44.0506 51.2869 40.1715 48.0583 35.6959 45.9785ZM12.5469 31.6406C12.5469 29.3229 13.2158 27.0572 14.4692 25.13C15.7225 23.2029 17.5039 21.7009 19.5881 20.8139C21.6724 19.927 23.9658 19.6949 26.1784 20.1471C28.391 20.5992 30.4234 21.7153 32.0186 23.3542C33.6138 24.9931 34.7001 27.0812 35.1402 29.3544C35.5803 31.6276 35.3544 33.9839 34.4911 36.1252C33.6278 38.2665 32.1658 40.0967 30.2901 41.3844C28.4143 42.6721 26.2091 43.3594 23.9531 43.3594C20.928 43.3594 18.0268 42.1247 15.8877 39.927C13.7486 37.7294 12.5469 34.7486 12.5469 31.6406ZM71.3176 60.2549C70.9553 60.5284 70.5442 60.7259 70.1076 60.836C69.671 60.9462 69.2176 60.9669 68.7733 60.897C68.3289 60.8271 67.9023 60.6679 67.5179 60.4285C67.1334 60.1892 66.7986 59.8743 66.5327 59.502C64.5152 56.6835 61.8821 54.3909 58.8451 52.8084C55.8082 51.2259 52.4521 50.3978 49.0469 50.3906C48.1393 50.3906 47.269 50.0202 46.6272 49.3609C45.9855 48.7016 45.625 47.8074 45.625 46.875C45.625 45.9426 45.9855 45.0484 46.6272 44.3891C47.269 43.7298 48.1393 43.3594 49.0469 43.3594C50.6681 43.3564 52.2701 42.9984 53.746 42.3092C55.2219 41.6201 56.5379 40.6155 57.6062 39.3627C58.6745 38.1098 59.4706 36.6373 59.9413 35.0434C60.4121 33.4496 60.5467 31.7709 60.3363 30.1193C60.1258 28.4678 59.5751 26.8813 58.7208 25.4657C57.8665 24.05 56.7283 22.8378 55.3821 21.9097C54.0359 20.9816 52.5125 20.359 50.9137 20.0834C49.3148 19.8078 47.6771 19.8856 46.1098 20.3115C45.672 20.4416 45.2134 20.4806 44.7608 20.4262C44.3082 20.3717 43.8707 20.2249 43.4741 19.9944C43.0774 19.7639 42.7296 19.4543 42.451 19.0839C42.1724 18.7134 41.9686 18.2895 41.8516 17.837C41.7346 17.3845 41.7068 16.9125 41.7697 16.4488C41.8326 15.9851 41.9851 15.539 42.2181 15.1367C42.4511 14.7343 42.76 14.3839 43.1267 14.1058C43.4933 13.8278 43.9103 13.6278 44.3532 13.5176C48.361 12.4266 52.6108 12.7701 56.4032 14.4916C60.1956 16.2131 63.3044 19.21 65.2178 22.9889C67.1312 26.7678 67.7352 31.1035 66.9304 35.2821C66.1255 39.4607 63.9597 43.2332 60.7896 45.9785C65.2649 48.0576 69.1432 51.2864 72.0504 55.3535C72.5835 56.1042 72.8057 57.0411 72.6684 57.9596C72.5311 58.878 72.0454 59.7033 71.3176 60.2549Z" fill="#F8FAE5"/>
</svg>
