<svg width="36" height="36" viewBox="0 0 36 36" fill="none" xmlns="http://www.w3.org/2000/svg">
<path d="M21.8407 25.4093L14.4337 18L21.8419 10.5907L20.25 9L11.25 18L20.25 27L21.8407 25.4093Z" fill="url(#paint0_linear_71_886)"/>
<path d="M18 2.25C26.685 2.25 33.75 9.315 33.75 18C33.75 26.685 26.685 33.75 18 33.75C9.315 33.75 2.25 26.685 2.25 18C2.25 9.315 9.315 2.25 18 2.25ZM18 31.5C25.4441 31.5 31.5 25.4441 31.5 18C31.5 10.5559 25.4441 4.5 18 4.5C10.5559 4.5 4.5 10.5559 4.5 18C4.5 25.4441 10.5559 31.5 18 31.5Z" fill="url(#paint1_linear_71_886)"/>
<defs>
<linearGradient id="paint0_linear_71_886" x1="16.5459" y1="9" x2="16.5459" y2="27" gradientUnits="userSpaceOnUse">
<stop stop-color="#43766C"/>
<stop offset="1" stop-color="#7DDCC9"/>
</linearGradient>
<linearGradient id="paint1_linear_71_886" x1="18" y1="2.25" x2="18" y2="33.75" gradientUnits="userSpaceOnUse">
<stop stop-color="#43766C"/>
<stop offset="1" stop-color="#7DDCC9"/>
</linearGradient>
</defs>
</svg>
