<svg width="50" height="50" viewBox="0 0 50 50" fill="none" xmlns="http://www.w3.org/2000/svg">
<path d="M43.75 25C43.75 24.1712 43.4208 23.3763 42.8347 22.7903C42.2487 22.2042 41.4538 21.875 40.625 21.875H15.875L24.0833 13.6667C24.6353 13.0743 24.9359 12.2907 24.9216 11.4812C24.9073 10.6716 24.5793 9.89913 24.0068 9.32658C23.4342 8.75402 22.6618 8.42606 21.8522 8.41177C21.0426 8.39749 20.2591 8.698 19.6667 9.25L6.12501 22.7917C5.5398 23.3776 5.21109 24.1719 5.21109 25C5.21109 25.8281 5.5398 26.6224 6.12501 27.2083L19.6667 40.75C20.2591 41.302 21.0426 41.6025 21.8522 41.5882C22.6618 41.5739 23.4342 41.246 24.0068 40.6734C24.5793 40.1009 24.9073 39.3284 24.9216 38.5188C24.9359 37.7093 24.6353 36.9257 24.0833 36.3333L15.875 28.125H40.625C41.4538 28.125 42.2487 27.7958 42.8347 27.2097C43.4208 26.6237 43.75 25.8288 43.75 25Z" fill="url(#paint0_linear_69_109)"/>
<defs>
<linearGradient id="paint0_linear_69_109" x1="24.4805" y1="8.41129" x2="24.4805" y2="41.5887" gradientUnits="userSpaceOnUse">
<stop stop-color="#11826C"/>
<stop offset="1" stop-color="#1EE8C1"/>
</linearGradient>
</defs>
</svg>
