<svg width="40" height="40" viewBox="0 0 40 40" fill="none" xmlns="http://www.w3.org/2000/svg">
<path d="M21.6667 29.1667L17.5001 25M21.6667 29.1667L25.8334 25M21.6667 29.1667V27.3334C21.6667 23.6 21.6667 21.7334 20.9401 20.3067C20.3009 19.0523 19.2811 18.0325 18.0267 17.3934C16.6001 16.6667 14.7334 16.6667 11.0001 16.6667H6.66675" stroke="white" stroke-width="2.5" stroke-linecap="round" stroke-linejoin="round"/>
<path d="M31.3667 14.1667H25.8334C25.3914 14.1667 24.9675 13.9911 24.6549 13.6785C24.3423 13.366 24.1667 12.942 24.1667 12.5V6.96667C24.7884 7.25001 25.2534 7.75334 25.7284 8.22834L30.1051 12.605C30.5801 13.08 31.0851 13.545 31.3667 14.1667" fill="white"/>
<path d="M10.4167 16.6667C10.4167 16.9982 10.5484 17.3161 10.7829 17.5506C11.0173 17.785 11.3352 17.9167 11.6667 17.9167C11.9983 17.9167 12.3162 17.785 12.5506 17.5506C12.7851 17.3161 12.9167 16.9982 12.9167 16.6667H10.4167ZM12.9167 23.3333C12.9167 23.0018 12.7851 22.6839 12.5506 22.4495C12.3162 22.215 11.9983 22.0833 11.6667 22.0833C11.3352 22.0833 11.0173 22.215 10.7829 22.4495C10.5484 22.6839 10.4167 23.0018 10.4167 23.3333H12.9167ZM31.3667 14.1667V15.4167C31.5759 15.4167 31.7816 15.3643 31.9652 15.2642C32.1488 15.1641 32.3044 15.0195 32.4176 14.8437C32.5309 14.6679 32.5982 14.4666 32.6135 14.258C32.6288 14.0495 32.5915 13.8404 32.5051 13.65L31.3667 14.1667ZM24.1667 6.96668L24.6834 5.82834C24.493 5.74191 24.284 5.70463 24.0754 5.71991C23.8669 5.73519 23.6655 5.80254 23.4897 5.9158C23.3139 6.02906 23.1694 6.18461 23.0693 6.3682C22.9692 6.5518 22.9167 6.75757 22.9167 6.96668H24.1667ZM26.3334 32.0833H17.0001V34.5833H26.3334V32.0833ZM17.0001 7.91668H21.9584V5.41668H17.0001V7.91668ZM30.4167 16.375V28H32.9167V16.375H30.4167ZM24.8451 9.11168L29.2201 13.4883L30.9884 11.7217L26.6134 7.34501L24.8451 9.11168ZM12.9167 16.6667V12H10.4167V16.6667H12.9167ZM12.9167 28V23.3333H10.4167V28H12.9167ZM29.2201 13.4883C29.8401 14.1067 29.9984 14.2783 30.1101 14.4583L32.2417 13.1533C31.9401 12.66 31.5234 12.2567 30.9884 11.7217L29.2201 13.4883ZM26.6134 7.34501C26.0784 6.81168 25.6734 6.39501 25.1801 6.09168L23.8751 8.22501C24.0551 8.33501 24.2251 8.49168 24.8451 9.11168L26.6134 7.34501ZM21.9584 7.91668C22.9201 7.91668 23.4201 7.94668 23.8751 8.22501L25.1801 6.09168C24.0351 5.39168 22.8184 5.41668 21.9567 5.41668L21.9584 7.91668ZM32.9167 16.375C32.9167 15.515 32.9434 14.2983 32.2417 13.1533L30.1101 14.4583C30.3901 14.9133 30.4167 15.4133 30.4167 16.375H32.9167ZM31.3667 12.9167H25.8334V15.4167H31.3667V12.9167ZM25.4167 12.5V6.96668H22.9167V12.5H25.4167ZM25.8334 12.9167C25.7229 12.9167 25.6169 12.8728 25.5388 12.7946C25.4606 12.7165 25.4167 12.6105 25.4167 12.5H22.9167C22.9167 14.11 24.2234 15.4167 25.8334 15.4167V12.9167ZM23.6501 8.10334C24.0167 8.27001 24.3017 8.56834 24.8451 9.11168L26.6117 7.34501C26.2034 6.93501 25.5601 6.22834 24.6834 5.82834L23.6501 8.10334ZM29.2201 13.4883C29.7634 14.0317 30.0617 14.3167 30.2301 14.685L32.5051 13.65C32.1051 12.775 31.3984 12.1317 30.9884 11.7217L29.2201 13.4883ZM17.0001 32.0833C15.1184 32.0833 14.2234 31.7717 13.7467 31.3117C13.2801 30.8617 12.9167 29.9783 12.9167 28H10.4167C10.4167 30.14 10.7801 31.9233 12.0117 33.11C13.2317 34.2883 15.0034 34.5833 17.0001 34.5833V32.0833ZM30.4167 28C30.4167 29.8817 30.1051 30.7767 29.6451 31.2533C29.1951 31.72 28.3117 32.0833 26.3334 32.0833V34.5833C28.4734 34.5833 30.2567 34.22 31.4434 32.9883C32.6217 31.7683 32.9167 29.9967 32.9167 28H30.4167ZM12.9167 12C12.9167 10.1183 13.2284 9.22334 13.6884 8.74668C14.1384 8.28001 15.0217 7.91668 17.0001 7.91668V5.41668C14.8601 5.41668 13.0767 5.78001 11.8884 7.01168C10.7117 8.23168 10.4167 10.0033 10.4167 12H12.9167Z" fill="white"/>
<path d="M31.3667 14.1667H25.8334C25.3914 14.1667 24.9675 13.9911 24.6549 13.6785C24.3423 13.366 24.1667 12.942 24.1667 12.5V6.96667C24.7884 7.25001 25.2534 7.75334 25.7284 8.22834L30.1051 12.605C30.5801 13.08 31.0851 13.545 31.3667 14.1667" fill="white"/>
</svg>
