<svg width="83" height="40" viewBox="0 0 83 40" fill="none" xmlns="http://www.w3.org/2000/svg">
<path d="M6.14062 25.8359C6.14062 26.7617 6.35742 27.4473 6.79102 27.8926C7.22461 28.3379 7.99219 28.6602 9.09375 28.8594L8.95312 29.2812C7.60547 29.0938 6.5625 29 5.82422 29C5.09766 29 4.27734 29.0938 3.36328 29.2812L3.25781 29.1055C3.49219 28.7656 3.60938 28.1445 3.60938 27.2422V6.18359C3.60938 4.51953 3.41016 3.40625 3.01172 2.84375C2.625 2.26953 1.79297 2.02344 0.515625 2.10547L0.445312 1.78906C2.37891 1.21484 4.1543 0.927734 5.77148 0.927734C6.01758 1.53711 6.14062 2.20508 6.14062 2.93164V25.8359ZM20.8887 10.7188C23.584 10.7188 25.6992 11.5449 27.2344 13.1973C28.7695 14.8496 29.5371 17.1523 29.5371 20.1055C29.5371 21.8164 29.1445 23.4102 28.3594 24.8867C27.5742 26.3633 26.5078 27.541 25.1602 28.4199C23.8125 29.2871 22.3535 29.7207 20.7832 29.7207C18.0762 29.7207 15.9551 28.9062 14.4199 27.2773C12.8965 25.6367 12.1348 23.3164 12.1348 20.3164C12.1348 18.5352 12.5273 16.9121 13.3125 15.4473C14.0977 13.9707 15.1582 12.8164 16.4941 11.9844C17.8418 11.1406 19.3066 10.7188 20.8887 10.7188ZM20.5371 11.9316C19.6113 11.9316 18.8086 12.0664 18.1289 12.3359C17.4492 12.6055 16.9043 12.9688 16.4941 13.4258C16.084 13.8828 15.7559 14.4629 15.5098 15.166C15.2637 15.8691 15.0938 16.5898 15 17.3281C14.918 18.0664 14.877 18.9219 14.877 19.8945C14.877 21.4414 15.0586 22.7949 15.4219 23.9551C15.7969 25.1035 16.2949 26 16.916 26.6445C17.5371 27.2773 18.1992 27.7461 18.9023 28.0508C19.6055 28.3438 20.3496 28.4902 21.1348 28.4902C22.0488 28.4902 22.8457 28.3496 23.5254 28.0684C24.2168 27.7754 24.7676 27.4004 25.1777 26.9434C25.5879 26.4746 25.916 25.8887 26.1621 25.1855C26.4082 24.4707 26.5723 23.75 26.6543 23.0234C26.748 22.2969 26.7949 21.4707 26.7949 20.5449C26.7949 19.2441 26.6719 18.084 26.4258 17.0645C26.1797 16.0449 25.8516 15.2188 25.4414 14.5859C25.043 13.9531 24.5625 13.4316 24 13.0215C23.4492 12.6113 22.8926 12.3301 22.3301 12.1777C21.7676 12.0137 21.1699 11.9316 20.5371 11.9316ZM49.2246 33.4648C49.2246 34.6367 48.7852 35.6738 47.9062 36.5762C47.0391 37.4902 45.9141 38.1758 44.5312 38.6328C43.1484 39.1016 41.6543 39.3359 40.0488 39.3359C38.8184 39.3359 37.7109 39.1719 36.7266 38.8438C35.7422 38.5156 34.9277 37.9707 34.2832 37.209C33.6387 36.4473 33.3164 35.5215 33.3164 34.4316C33.3164 33.2949 33.8145 32.2402 34.8105 31.2676C35.8066 30.2949 37.1191 29.4688 38.748 28.7891C37.2715 28.4609 36.2109 28.1035 35.5664 27.7168C34.9219 27.3184 34.5996 26.7031 34.5996 25.8711C34.5996 25.1328 34.8281 24.541 35.2852 24.0957C35.7422 23.6387 36.5215 23.2695 37.623 22.9883C36.334 22.5898 35.3262 21.9043 34.5996 20.9316C33.8848 19.959 33.5273 18.6992 33.5273 17.1523C33.5273 16.0273 33.8555 14.9668 34.5117 13.9707C35.1797 12.9746 36.0527 12.1836 37.1309 11.5977C38.2207 11.0117 39.3574 10.7188 40.541 10.7188C41.9004 10.7188 43.1016 10.9297 44.1445 11.3516L49.9102 10.7188L50.0508 11.3164L48.7852 12.6172L45.6562 12.3359C46.8633 13.4141 47.4668 14.9727 47.4668 17.0117C47.4668 18.043 47.1562 19.0449 46.5352 20.0176C45.9141 20.9902 45.0586 21.7871 43.9688 22.4082C42.8789 23.0293 41.7129 23.3398 40.4707 23.3398C38.7832 23.6328 37.6992 23.8906 37.2188 24.1133C36.75 24.3359 36.5156 24.6934 36.5156 25.1855C36.5156 25.4785 36.8379 25.7656 37.4824 26.0469C38.127 26.3164 39.3984 26.6914 41.2969 27.1719C42.1641 27.3828 42.8965 27.5762 43.4941 27.752C44.0918 27.916 44.6895 28.1094 45.2871 28.332C45.8848 28.543 46.3711 28.7598 46.7461 28.9824C47.1328 29.2051 47.4961 29.4629 47.8359 29.7559C48.1875 30.0605 48.4512 30.3887 48.627 30.7402C48.8145 31.1035 48.9609 31.5078 49.0664 31.9531C49.1719 32.3984 49.2246 32.9023 49.2246 33.4648ZM41.1211 29.2461L40.4004 29.0703C38.9238 29.6211 37.7578 30.3652 36.9023 31.3027C36.0469 32.2402 35.6191 33.1895 35.6191 34.1504C35.6191 34.8301 35.8008 35.4277 36.1641 35.9434C36.5391 36.4707 37.0371 36.8809 37.6582 37.1738C38.2793 37.4668 38.9414 37.6836 39.6445 37.8242C40.3477 37.9648 41.0801 38.0352 41.8418 38.0352C45.2754 38.0352 46.9922 36.6934 46.9922 34.0098C46.9922 32.709 46.5 31.6953 45.5156 30.9688C44.543 30.2422 43.0781 29.668 41.1211 29.2461ZM39.8203 11.9668C38.3438 11.9668 37.3184 12.3477 36.7441 13.1094C36.1816 13.8594 35.9004 15.1133 35.9004 16.8711C35.9004 17.6914 36.0293 18.4238 36.2871 19.0684C36.5566 19.7012 36.8906 20.2051 37.2891 20.5801C37.6875 20.9434 38.1504 21.248 38.6777 21.4941C39.2168 21.7285 39.7148 21.8867 40.1719 21.9688C40.6406 22.0508 41.1035 22.0918 41.5605 22.0918C42.7559 22.0918 43.6406 21.6641 44.2148 20.8086C44.7891 19.9531 45.0762 18.7812 45.0762 17.293C45.0762 16.4375 44.9414 15.6816 44.6719 15.0254C44.4141 14.3574 44.0918 13.8418 43.7051 13.4785C43.3301 13.1035 42.8906 12.7988 42.3867 12.5645C41.8828 12.3184 41.4258 12.1602 41.0156 12.0898C40.6055 12.0078 40.207 11.9668 39.8203 11.9668ZM55.0078 15.9746C55.0078 14.3105 54.8086 13.1973 54.4102 12.6348C54.0234 12.0605 53.1914 11.8145 51.9141 11.8965L51.8438 11.5801C53.7773 11.0059 55.5527 10.7188 57.1699 10.7188C57.416 11.3281 57.5391 11.9961 57.5391 12.7227V25.8359C57.5391 26.7617 57.7559 27.4473 58.1895 27.8926C58.623 28.3379 59.3906 28.6602 60.4922 28.8594L60.3516 29.2812C59.0039 29.0938 57.9609 29 57.2227 29C56.4961 29 55.6758 29.0938 54.7617 29.2812L54.6562 29.1055C54.8906 28.7656 55.0078 28.1445 55.0078 27.2422V15.9746ZM53.2148 4.19727C54.3281 3.55273 55.5879 3.01367 56.9941 2.58008C56.9941 3.55273 57.1523 4.51367 57.4688 5.46289L57.2402 5.7793C56.127 5.84961 54.9668 6.16016 53.7598 6.71094C53.4668 5.90234 53.2852 5.06445 53.2148 4.19727ZM65.4492 15.9746C65.4492 15.1895 65.4082 14.5332 65.3262 14.0059C65.2559 13.4785 65.1211 13.0566 64.9219 12.7402C64.7344 12.4238 64.4707 12.2012 64.1309 12.0723C63.791 11.9434 63.4277 11.8789 63.041 11.8789C62.666 11.8789 62.4375 11.8848 62.3555 11.8965L62.2852 11.5801C64.1953 11.0059 65.9707 10.7188 67.6113 10.7188C67.8574 11.3398 67.9805 12.0078 67.9805 12.7227V13.2324C68.6602 12.7754 69.2871 12.377 69.8613 12.0371C70.4355 11.6973 70.998 11.4102 71.5488 11.1758C72.1113 10.9414 72.6855 10.7656 73.2715 10.6484C73.8574 10.5312 74.502 10.4727 75.2051 10.4727C75.8379 10.4727 76.4648 10.5547 77.0859 10.7188C77.7188 10.8828 78.2812 11.1758 78.7734 11.5977C79.2773 12.0195 79.6816 12.5938 79.9863 13.3203C80.3027 14.0469 80.4609 14.9668 80.4609 16.0801V27.0137C80.4609 27.2949 80.5254 27.5293 80.6543 27.7168C80.7949 27.9043 80.9707 28.0625 81.1816 28.1914C81.4043 28.3203 81.6562 28.4316 81.9375 28.5254C82.2188 28.6074 82.5117 28.6953 82.8164 28.7891L82.6582 29.2109C82.002 29.0703 81.1289 29 80.0391 29C79.3711 29 78.5918 29.0938 77.7012 29.2812L77.5957 29.1055C77.8301 28.7656 77.9473 28.1445 77.9473 27.2422V16.7305C77.9473 15.7461 77.8535 14.9434 77.666 14.3223C77.4785 13.6895 77.2207 13.1973 76.8926 12.8457C76.5762 12.4824 76.2012 12.2305 75.7676 12.0898C75.3457 11.9492 74.8945 11.8789 74.4141 11.8789C73.8281 11.8789 73.2773 11.9316 72.7617 12.0371C72.2578 12.1426 71.748 12.3066 71.2324 12.5293C70.7285 12.7402 70.2129 13.0098 69.6855 13.3379C69.1582 13.6543 68.5898 14.0293 67.9805 14.4629V26.5918C67.9805 26.9668 68.0098 27.2715 68.0684 27.5059C68.127 27.7285 68.25 27.916 68.4375 28.0684C68.625 28.2207 68.8887 28.3555 69.2285 28.4727C69.5684 28.5898 70.0137 28.7188 70.5645 28.8594L70.4238 29.2812C69.7441 29.1875 69.1641 29.1172 68.6836 29.0703C68.2148 29.0234 67.834 29 67.541 29C66.873 29 66.0938 29.0938 65.2031 29.2812L65.0977 29.1055C65.332 28.7656 65.4492 28.1445 65.4492 27.2422V15.9746Z" fill="white"/>
</svg>
