<svg width="58" height="13" viewBox="0 0 58 13" fill="none" xmlns="http://www.w3.org/2000/svg">
<path d="M9.30425 4.08C9.01625 3.52533 8.61625 3.10933 8.10425 2.832C7.59225 2.544 7.00025 2.4 6.32825 2.4C5.59225 2.4 4.93625 2.56533 4.36025 2.896C3.78425 3.22667 3.33092 3.696 3.00025 4.304C2.68025 4.912 2.52025 5.616 2.52025 6.416C2.52025 7.216 2.68025 7.92533 3.00025 8.544C3.33092 9.152 3.78425 9.62133 4.36025 9.952C4.93625 10.2827 5.59225 10.448 6.32825 10.448C7.32025 10.448 8.12558 10.1707 8.74425 9.616C9.36292 9.06133 9.74158 8.30933 9.88025 7.36H5.70425V5.904H11.8323V7.328C11.7149 8.192 11.4056 8.98667 10.9043 9.712C10.4136 10.4373 9.76825 11.0187 8.96825 11.456C8.17892 11.8827 7.29892 12.096 6.32825 12.096C5.28292 12.096 4.32825 11.856 3.46425 11.376C2.60025 10.8853 1.91225 10.208 1.40025 9.344C0.898916 8.48 0.64825 7.504 0.64825 6.416C0.64825 5.328 0.898916 4.352 1.40025 3.488C1.91225 2.624 2.60025 1.952 3.46425 1.472C4.33892 0.981332 5.29358 0.735999 6.32825 0.735999C7.51225 0.735999 8.56292 1.02933 9.48025 1.616C10.4083 2.192 11.0803 3.01333 11.4963 4.08H9.30425ZM21.1353 9.728H16.4793L15.6793 12H13.7753L17.7593 0.863999H19.8713L23.8553 12H21.9353L21.1353 9.728ZM20.6233 8.24L18.8153 3.072L16.9913 8.24H20.6233ZM38.0995 0.879999V12H36.2755V4.384L32.8835 12H31.6195L28.2115 4.384V12H26.3875V0.879999H28.3555L32.2595 9.6L36.1475 0.879999H38.0995ZM43.1209 2.352V5.616H46.9609V7.104H43.1209V10.512H47.4409V12H41.2969V0.863999H47.4409V2.352H43.1209ZM54.1515 12.112C53.4048 12.112 52.7328 11.984 52.1355 11.728C51.5382 11.4613 51.0688 11.088 50.7275 10.608C50.3862 10.128 50.2155 9.568 50.2155 8.928H52.1675C52.2102 9.408 52.3968 9.80267 52.7275 10.112C53.0688 10.4213 53.5435 10.576 54.1515 10.576C54.7808 10.576 55.2715 10.4267 55.6235 10.128C55.9755 9.81867 56.1515 9.424 56.1515 8.944C56.1515 8.57067 56.0395 8.26667 55.8155 8.032C55.6022 7.79733 55.3302 7.616 54.9995 7.488C54.6795 7.36 54.2315 7.22133 53.6555 7.072C52.9302 6.88 52.3382 6.688 51.8795 6.496C51.4315 6.29333 51.0475 5.984 50.7275 5.568C50.4075 5.152 50.2475 4.59733 50.2475 3.904C50.2475 3.264 50.4075 2.704 50.7275 2.224C51.0475 1.744 51.4955 1.376 52.0715 1.12C52.6475 0.863999 53.3142 0.735999 54.0715 0.735999C55.1488 0.735999 56.0288 1.008 56.7115 1.552C57.4048 2.08533 57.7888 2.82133 57.8635 3.76H55.8475C55.8155 3.35467 55.6235 3.008 55.2715 2.72C54.9195 2.432 54.4555 2.288 53.8795 2.288C53.3568 2.288 52.9302 2.42133 52.5995 2.688C52.2688 2.95467 52.1035 3.33867 52.1035 3.84C52.1035 4.18133 52.2048 4.464 52.4075 4.688C52.6208 4.90133 52.8875 5.072 53.2075 5.2C53.5275 5.328 53.9648 5.46667 54.5195 5.616C55.2555 5.81867 55.8528 6.02133 56.3115 6.224C56.7808 6.42667 57.1755 6.74133 57.4955 7.168C57.8262 7.584 57.9915 8.144 57.9915 8.848C57.9915 9.41333 57.8368 9.94667 57.5275 10.448C57.2288 10.9493 56.7862 11.3547 56.1995 11.664C55.6235 11.9627 54.9408 12.112 54.1515 12.112Z" fill="#F8FAE5"/>
<path d="M9.30425 4.08L8.8605 4.31041L9.00048 4.58H9.30425V4.08ZM8.10425 2.832L7.85909 3.26784L7.86611 3.27165L8.10425 2.832ZM4.36025 2.896L4.60918 3.32963L4.60918 3.32963L4.36025 2.896ZM3.00025 4.304L2.56097 4.06509L2.55779 4.07113L3.00025 4.304ZM3.00025 8.544L2.55605 8.77376L2.56101 8.78289L3.00025 8.544ZM4.36025 9.952L4.60918 9.51837H4.60918L4.36025 9.952ZM8.74425 9.616L9.07802 9.98829V9.98828L8.74425 9.616ZM9.88025 7.36L10.375 7.43227L10.4586 6.86H9.88025V7.36ZM5.70425 7.36H5.20425V7.86H5.70425V7.36ZM5.70425 5.904V5.404H5.20425V5.904H5.70425ZM11.8323 5.904H12.3323V5.404H11.8323V5.904ZM11.8323 7.328L12.3277 7.39528L12.3323 7.3618V7.328H11.8323ZM10.9043 9.712L10.4929 9.4277L10.4901 9.43185L10.9043 9.712ZM8.96825 11.456L9.20601 11.8959L9.20809 11.8947L8.96825 11.456ZM3.46425 11.376L3.21733 11.8108L3.22143 11.8131L3.46425 11.376ZM1.40025 9.344L0.967762 9.59495L0.970104 9.5989L1.40025 9.344ZM1.40025 3.488L0.970086 3.23309L0.967781 3.23706L1.40025 3.488ZM3.46425 1.472L3.70707 1.90908L3.70888 1.90807L3.46425 1.472ZM9.48025 1.616L9.21084 2.03726L9.21657 2.04082L9.48025 1.616ZM11.4963 4.08V4.58H12.2279L11.9621 3.89833L11.4963 4.08ZM9.748 3.84959C9.41747 3.21302 8.94884 2.72085 8.34239 2.39235L7.86611 3.27165C8.28366 3.49782 8.61503 3.83764 8.8605 4.31041L9.748 3.84959ZM8.34938 2.39621C7.75233 2.06037 7.07359 1.9 6.32825 1.9V2.9C6.92691 2.9 7.43217 3.02763 7.85912 3.26779L8.34938 2.39621ZM6.32825 1.9C5.51458 1.9 4.77105 2.08364 4.11132 2.46237L4.60918 3.32963C5.10145 3.04703 5.66992 2.9 6.32825 2.9V1.9ZM4.11132 2.46237C3.45162 2.84109 2.93392 3.37943 2.56101 4.06511L3.43949 4.54288C3.72791 4.01257 4.11688 3.61224 4.60918 3.32963L4.11132 2.46237ZM2.55779 4.07113C2.19423 4.7619 2.02025 5.54823 2.02025 6.416H3.02025C3.02025 5.68377 3.16627 5.0621 3.44271 4.53687L2.55779 4.07113ZM2.02025 6.416C2.02025 7.284 2.1943 8.07415 2.55614 8.77371L3.44436 8.31429C3.1662 7.77652 3.02025 7.148 3.02025 6.416H2.02025ZM2.56101 8.78289C2.93392 9.46857 3.45162 10.0069 4.11132 10.3856L4.60918 9.51837C4.11688 9.23575 3.72791 8.83543 3.43949 8.30511L2.56101 8.78289ZM4.11132 10.3856C4.77105 10.7644 5.51458 10.948 6.32825 10.948V9.948C5.66992 9.948 5.10145 9.80097 4.60918 9.51837L4.11132 10.3856ZM6.32825 10.948C7.41825 10.948 8.35046 10.6406 9.07802 9.98829L8.41048 9.24372C7.9007 9.70075 7.22225 9.948 6.32825 9.948V10.948ZM9.07802 9.98828C9.79702 9.34367 10.2222 8.47848 10.375 7.43227L9.3855 7.28773C9.26098 8.14019 8.92881 8.779 8.41048 9.24372L9.07802 9.98828ZM9.88025 6.86H5.70425V7.86H9.88025V6.86ZM6.20425 7.36V5.904H5.20425V7.36H6.20425ZM5.70425 6.404H11.8323V5.404H5.70425V6.404ZM11.3323 5.904V7.328H12.3323V5.904H11.3323ZM11.3368 7.26072C11.2302 8.04586 10.9501 8.76633 10.4929 9.42771L11.3156 9.99629C11.8611 9.207 12.1997 8.33814 12.3277 7.39528L11.3368 7.26072ZM10.4901 9.43185C10.0459 10.0884 9.46148 10.6165 8.72841 11.0173L9.20809 11.8947C10.075 11.4208 10.7812 10.7862 11.3184 9.99215L10.4901 9.43185ZM8.73049 11.0161C8.02008 11.4002 7.22287 11.596 6.32825 11.596V12.596C7.37496 12.596 8.33775 12.3652 9.20601 11.8959L8.73049 11.0161ZM6.32825 11.596C5.36282 11.596 4.49249 11.3753 3.70707 10.9389L3.22143 11.8131C4.16401 12.3367 5.20301 12.596 6.32825 12.596V11.596ZM3.71116 10.9412C2.92371 10.494 2.29852 9.87906 1.8304 9.0891L0.970104 9.5989C1.52598 10.5369 2.27679 11.2766 3.21734 11.8108L3.71116 10.9412ZM1.83272 9.09306C1.37951 8.31201 1.14825 7.42396 1.14825 6.416H0.14825C0.14825 7.58404 0.418318 8.64799 0.967781 9.59494L1.83272 9.09306ZM1.14825 6.416C1.14825 5.40804 1.37951 4.51999 1.83272 3.73894L0.967781 3.23706C0.418318 4.18401 0.14825 5.24796 0.14825 6.416H1.14825ZM1.8304 3.7429C2.29797 2.95387 2.92186 2.34531 3.70707 1.90908L3.22143 1.03492C2.27864 1.55869 1.52653 2.29413 0.970104 3.2331L1.8304 3.7429ZM3.70888 1.90807C4.50639 1.46068 5.37643 1.236 6.32825 1.236V0.235999C5.21074 0.235999 4.17144 0.501983 3.21962 1.03593L3.70888 1.90807ZM6.32825 1.236C7.42545 1.236 8.38097 1.50648 9.21086 2.03722L9.74964 1.19477C8.74486 0.552185 7.59905 0.235999 6.32825 0.235999V1.236ZM9.21657 2.04082C10.048 2.5569 10.6517 3.29059 11.0304 4.26167L11.9621 3.89833C11.5088 2.73608 10.7685 1.8271 9.74393 1.19118L9.21657 2.04082ZM11.4963 3.58H9.30425V4.58H11.4963V3.58ZM21.1353 9.728L21.6069 9.56194L21.4893 9.228H21.1353V9.728ZM16.4793 9.728V9.228H16.1252L16.0076 9.56194L16.4793 9.728ZM15.6793 12V12.5H16.0333L16.1509 12.1661L15.6793 12ZM13.7753 12L13.3045 11.8316L13.0653 12.5H13.7753V12ZM17.7593 0.863999V0.363999H17.4071L17.2885 0.695574L17.7593 0.863999ZM19.8713 0.863999L20.342 0.695574L20.2234 0.363999H19.8713V0.863999ZM23.8553 12V12.5H24.5652L24.326 11.8316L23.8553 12ZM21.9353 12L21.4636 12.1661L21.5812 12.5H21.9353V12ZM20.6233 8.24V8.74H21.3279L21.0952 8.07489L20.6233 8.24ZM18.8153 3.072L19.2872 2.90689L18.8173 1.5638L18.3438 2.90559L18.8153 3.072ZM16.9913 8.24L16.5198 8.07359L16.2846 8.74H16.9913V8.24ZM21.1353 9.228H16.4793V10.228H21.1353V9.228ZM16.0076 9.56194L15.2076 11.8339L16.1509 12.1661L16.9509 9.89406L16.0076 9.56194ZM15.6793 11.5H13.7753V12.5H15.6793V11.5ZM14.246 12.1684L18.23 1.03242L17.2885 0.695574L13.3045 11.8316L14.246 12.1684ZM17.7593 1.364H19.8713V0.363999H17.7593V1.364ZM19.4005 1.03242L23.3845 12.1684L24.326 11.8316L20.342 0.695574L19.4005 1.03242ZM23.8553 11.5H21.9353V12.5H23.8553V11.5ZM22.4069 11.8339L21.6069 9.56194L20.6636 9.89406L21.4636 12.1661L22.4069 11.8339ZM21.0952 8.07489L19.2872 2.90689L18.3433 3.23711L20.1513 8.40511L21.0952 8.07489ZM18.3438 2.90559L16.5198 8.07359L17.4627 8.40641L19.2867 3.23841L18.3438 2.90559ZM16.9913 8.74H20.6233V7.74H16.9913V8.74ZM38.0995 0.879999H38.5995V0.379999H38.0995V0.879999ZM38.0995 12V12.5H38.5995V12H38.0995ZM36.2755 12H35.7755V12.5H36.2755V12ZM36.2755 4.384H36.7755L35.8188 4.18057L36.2755 4.384ZM32.8835 12V12.5H33.2082L33.3402 12.2034L32.8835 12ZM31.6195 12L31.1631 12.2042L31.2955 12.5H31.6195V12ZM28.2115 4.384L28.6679 4.17977L27.7115 4.384H28.2115ZM28.2115 12V12.5H28.7115V12H28.2115ZM26.3875 12H25.8875V12.5H26.3875V12ZM26.3875 0.879999V0.379999H25.8875V0.879999H26.3875ZM28.3555 0.879999L28.8119 0.675688L28.6795 0.379999H28.3555V0.879999ZM32.2595 9.6L31.8032 9.80431L32.2604 10.8257L32.7162 9.80361L32.2595 9.6ZM36.1475 0.879999V0.379999H35.823L35.6908 0.676386L36.1475 0.879999ZM37.5995 0.879999V12H38.5995V0.879999H37.5995ZM38.0995 11.5H36.2755V12.5H38.0995V11.5ZM36.7755 12V4.384H35.7755V12H36.7755ZM35.8188 4.18057L32.4268 11.7966L33.3402 12.2034L36.7322 4.58743L35.8188 4.18057ZM32.8835 11.5H31.6195V12.5H32.8835V11.5ZM32.0759 11.7958L28.6679 4.17977L27.7551 4.58823L31.1631 12.2042L32.0759 11.7958ZM27.7115 4.384V12H28.7115V4.384H27.7115ZM28.2115 11.5H26.3875V12.5H28.2115V11.5ZM26.8875 12V0.879999H25.8875V12H26.8875ZM26.3875 1.38H28.3555V0.379999H26.3875V1.38ZM27.8991 1.08431L31.8032 9.80431L32.7159 9.39569L28.8119 0.675688L27.8991 1.08431ZM32.7162 9.80361L36.6042 1.08361L35.6908 0.676386L31.8028 9.39639L32.7162 9.80361ZM36.1475 1.38H38.0995V0.379999H36.1475V1.38ZM43.1209 2.352V1.852H42.6209V2.352H43.1209ZM43.1209 5.616H42.6209V6.116H43.1209V5.616ZM46.9609 5.616H47.4609V5.116H46.9609V5.616ZM46.9609 7.104V7.604H47.4609V7.104H46.9609ZM43.1209 7.104V6.604H42.6209V7.104H43.1209ZM43.1209 10.512H42.6209V11.012H43.1209V10.512ZM47.4409 10.512H47.9409V10.012H47.4409V10.512ZM47.4409 12V12.5H47.9409V12H47.4409ZM41.2969 12H40.7969V12.5H41.2969V12ZM41.2969 0.863999V0.363999H40.7969V0.863999H41.2969ZM47.4409 0.863999H47.9409V0.363999H47.4409V0.863999ZM47.4409 2.352V2.852H47.9409V2.352H47.4409ZM42.6209 2.352V5.616H43.6209V2.352H42.6209ZM43.1209 6.116H46.9609V5.116H43.1209V6.116ZM46.4609 5.616V7.104H47.4609V5.616H46.4609ZM46.9609 6.604H43.1209V7.604H46.9609V6.604ZM42.6209 7.104V10.512H43.6209V7.104H42.6209ZM43.1209 11.012H47.4409V10.012H43.1209V11.012ZM46.9409 10.512V12H47.9409V10.512H46.9409ZM47.4409 11.5H41.2969V12.5H47.4409V11.5ZM41.7969 12V0.863999H40.7969V12H41.7969ZM41.2969 1.364H47.4409V0.363999H41.2969V1.364ZM46.9409 0.863999V2.352H47.9409V0.863999H46.9409ZM47.4409 1.852H43.1209V2.852H47.4409V1.852ZM52.1355 11.728L51.9317 12.1846L51.9385 12.1876L52.1355 11.728ZM50.7275 10.608L51.135 10.3182L50.7275 10.608ZM50.2155 8.928V8.428H49.7155V8.928H50.2155ZM52.1675 8.928L52.6655 8.88373L52.625 8.428H52.1675V8.928ZM52.7275 10.112L52.3859 10.4772L52.3917 10.4825L52.7275 10.112ZM55.6235 10.128L55.947 10.5093L55.9536 10.5036L55.6235 10.128ZM55.8155 8.032L55.4454 8.36844L55.4538 8.37724L55.8155 8.032ZM54.9995 7.488L54.8138 7.95227L54.819 7.95428L54.9995 7.488ZM53.6555 7.072L53.5275 7.55536L53.53 7.556L53.6555 7.072ZM51.8795 6.496L51.6734 6.95155L51.6799 6.95448L51.6864 6.95722L51.8795 6.496ZM50.7275 2.224L51.1435 2.50135L50.7275 2.224ZM52.0715 1.12L52.2746 1.57691L52.0715 1.12ZM56.7115 1.552L56.3999 1.94309L56.4066 1.94831L56.7115 1.552ZM57.8635 3.76V4.26H58.4049L58.3619 3.72035L57.8635 3.76ZM55.8475 3.76L55.349 3.79935L55.3854 4.26H55.8475V3.76ZM52.5995 2.688L52.9134 3.07721V3.07721L52.5995 2.688ZM52.4075 4.688L52.0367 5.02346L52.0451 5.03272L52.0539 5.04155L52.4075 4.688ZM54.5195 5.616L54.6522 5.13393L54.6495 5.13319L54.5195 5.616ZM56.3115 6.224L56.1094 6.68136L56.1133 6.68303L56.3115 6.224ZM57.4955 7.168L57.0953 7.46812L57.1041 7.47912L57.4955 7.168ZM57.5275 10.448L57.1019 10.1854L57.0979 10.1921L57.5275 10.448ZM56.1995 11.664L56.4297 12.1079L56.4327 12.1063L56.1995 11.664ZM54.1515 11.612C53.4625 11.612 52.859 11.4941 52.3325 11.2684L51.9385 12.1876C52.6067 12.4739 53.3471 12.612 54.1515 12.612V11.612ZM52.3393 11.2714C51.8143 11.037 51.419 10.7176 51.135 10.3182L50.32 10.8978C50.7187 11.4584 51.262 11.8856 51.9317 12.1846L52.3393 11.2714ZM51.135 10.3182C50.8591 9.93027 50.7155 9.47361 50.7155 8.928H49.7155C49.7155 9.66239 49.9132 10.3257 50.32 10.8978L51.135 10.3182ZM50.2155 9.428H52.1675V8.428H50.2155V9.428ZM51.6695 8.97227C51.7223 9.56625 51.9593 10.078 52.3859 10.4771L53.0691 9.74686C52.8344 9.5273 52.6981 9.24975 52.6655 8.88373L51.6695 8.97227ZM52.3917 10.4825C52.8512 10.8989 53.4599 11.076 54.1515 11.076V10.076C53.627 10.076 53.2864 9.94377 53.0633 9.74151L52.3917 10.4825ZM54.1515 11.076C54.8562 11.076 55.4765 10.9085 55.947 10.5093L55.3 9.74675C55.0665 9.94485 54.7054 10.076 54.1515 10.076V11.076ZM55.9536 10.5036C56.4165 10.0967 56.6515 9.56381 56.6515 8.944H55.6515C55.6515 9.28419 55.5345 9.54062 55.2934 9.75242L55.9536 10.5036ZM56.6515 8.944C56.6515 8.46296 56.5034 8.02852 56.1772 7.68676L55.4538 8.37724C55.5756 8.50482 55.6515 8.67838 55.6515 8.944H56.6515ZM56.1855 7.69566C55.914 7.39708 55.5744 7.17439 55.18 7.02172L54.819 7.95428C55.0859 8.05761 55.2903 8.19759 55.4455 8.36834L56.1855 7.69566ZM55.1852 7.02376C54.8365 6.88427 54.3651 6.73943 53.781 6.588L53.53 7.556C54.0979 7.70324 54.5225 7.83573 54.8138 7.95224L55.1852 7.02376ZM53.7834 6.58865C53.0704 6.39989 52.5023 6.21467 52.0726 6.03478L51.6864 6.95722C52.174 7.16133 52.79 7.36011 53.5276 7.55535L53.7834 6.58865ZM52.0856 6.04045C51.7174 5.8739 51.3972 5.61856 51.1238 5.26314L50.3312 5.87286C50.6978 6.34943 51.1456 6.71277 51.6734 6.95155L52.0856 6.04045ZM51.1238 5.26314C50.8898 4.95896 50.7475 4.52244 50.7475 3.904H49.7475C49.7475 4.67223 49.9252 5.34503 50.3312 5.87286L51.1238 5.26314ZM50.7475 3.904C50.7475 3.35149 50.8842 2.89035 51.1435 2.50135L50.3115 1.94665C49.9308 2.51765 49.7475 3.17651 49.7475 3.904H50.7475ZM51.1435 2.50135C51.4061 2.10742 51.7768 1.79813 52.2746 1.57691L51.8684 0.663094C51.2142 0.953866 50.6889 1.38058 50.3115 1.94665L51.1435 2.50135ZM52.2746 1.57691C52.7751 1.35445 53.3703 1.236 54.0715 1.236V0.235999C53.258 0.235999 52.5199 0.373551 51.8684 0.663094L52.2746 1.57691ZM54.0715 1.236C55.0629 1.236 55.8249 1.48486 56.3999 1.94303L57.0231 1.16097C56.2327 0.531139 55.2348 0.235999 54.0715 0.235999V1.236ZM56.4066 1.94831C56.9787 2.38832 57.3007 2.98978 57.3651 3.79965L58.3619 3.72035C58.277 2.65289 57.831 1.78234 57.0164 1.15569L56.4066 1.94831ZM57.8635 3.26H55.8475V4.26H57.8635V3.26ZM56.3459 3.72065C56.3019 3.16275 56.0318 2.69603 55.5881 2.33302L54.9549 3.10698C55.2152 3.31997 55.3291 3.54659 55.349 3.79935L56.3459 3.72065ZM55.5881 2.33302C55.1252 1.95424 54.5395 1.788 53.8795 1.788V2.788C54.3715 2.788 54.7138 2.90976 54.9549 3.10698L55.5881 2.33302ZM53.8795 1.788C53.2697 1.788 52.7242 1.9451 52.2856 2.29879L52.9134 3.07721C53.1361 2.89757 53.444 2.788 53.8795 2.788V1.788ZM52.2856 2.29879C51.8155 2.67794 51.6035 3.21785 51.6035 3.84H52.6035C52.6035 3.45948 52.7222 3.23139 52.9134 3.07721L52.2856 2.29879ZM51.6035 3.84C51.6035 4.28801 51.74 4.69546 52.0367 5.02346L52.7783 4.35254C52.6697 4.23254 52.6035 4.07466 52.6035 3.84H51.6035ZM52.0539 5.04155C52.3215 5.30911 52.6478 5.51465 53.0218 5.66424L53.3932 4.73576C53.1272 4.62935 52.9202 4.49355 52.7611 4.33445L52.0539 5.04155ZM53.0218 5.66424C53.368 5.8027 53.8266 5.94725 54.3895 6.09881L54.6495 5.13319C54.1031 4.98608 53.687 4.85329 53.3932 4.73576L53.0218 5.66424ZM54.3868 6.09806C55.1099 6.29719 55.6816 6.49231 56.1094 6.68134L56.5136 5.76666C56.0241 5.55036 55.4011 5.34014 54.6522 5.13394L54.3868 6.09806ZM56.1133 6.68303C56.4991 6.84964 56.8254 7.10788 57.0955 7.468L57.8955 6.868C57.5256 6.37479 57.0625 6.00369 56.5097 5.76497L56.1133 6.68303ZM57.1041 7.47912C57.3445 7.78162 57.4915 8.22021 57.4915 8.848H58.4915C58.4915 8.06779 58.3078 7.38638 57.8869 6.85688L57.1041 7.47912ZM57.4915 8.848C57.4915 9.3166 57.3648 9.75955 57.102 10.1854L57.953 10.7106C58.3089 10.1338 58.4915 9.51007 58.4915 8.848H57.4915ZM57.0979 10.1921C56.8525 10.6041 56.483 10.9493 55.9663 11.2217L56.4327 12.1063C57.0894 11.76 57.6052 11.2946 57.9571 10.7039L57.0979 10.1921ZM55.9693 11.2201C55.4783 11.4748 54.8779 11.612 54.1515 11.612V12.612C55.0038 12.612 55.7687 12.4506 56.4297 12.1079L55.9693 11.2201Z" fill="#11826C"/>
</svg>
