<svg width="91" height="30" viewBox="0 0 91 30" fill="none" xmlns="http://www.w3.org/2000/svg">
<path d="M10.0221 10.1738V15.3594H18.1256V15.9746C17.0592 16.4551 16.0983 16.6953 15.2428 16.6953H10.0221V24.7461H9.40686C8.9264 23.6797 8.68616 22.7188 8.68616 21.8633V16.6953H0.670536V16.0801C1.69007 15.5996 2.64515 15.3594 3.53577 15.3594H8.68616V7.29102H9.3014C9.78186 8.31055 10.0221 9.27148 10.0221 10.1738ZM44.5983 27.0137C44.5983 27.2129 44.6393 27.4004 44.7213 27.5762C44.8151 27.7402 44.9205 27.8809 45.0377 27.998C45.1666 28.1035 45.3483 28.209 45.5826 28.3145C45.817 28.4199 46.0221 28.502 46.1979 28.5605C46.3737 28.6191 46.6198 28.6953 46.9362 28.7891L46.7955 29.2109C46.0455 29.0703 45.3014 29 44.5631 29C43.6373 29 42.7233 29.0938 41.8209 29.2812L41.7155 29.1055C41.9616 28.7656 42.0846 28.1445 42.0846 27.2422V26.082C41.4987 27.1719 40.5846 28.0508 39.3424 28.7188C38.1119 29.3867 36.8639 29.7207 35.5983 29.7207C34.2506 29.7207 33.1608 29.375 32.3287 28.6836C31.5084 27.9805 31.0983 26.9434 31.0983 25.5723C31.0983 24.6816 31.2799 23.8906 31.6432 23.1992C32.0182 22.4961 32.5104 21.9043 33.1198 21.4238C33.7408 20.9316 34.5319 20.498 35.4928 20.123C36.4655 19.748 37.4616 19.4434 38.4811 19.209C39.5123 18.9746 40.7135 18.7578 42.0846 18.5586V16.9414C42.0846 13.7188 40.8131 12.1074 38.2701 12.1074C37.4498 12.1074 36.442 12.3125 35.2467 12.7227C34.0631 13.1211 33.067 13.6484 32.2584 14.3047L31.5377 13.4785C32.5573 12.6699 33.7643 12.002 35.1588 11.4746C36.5651 10.9473 37.8776 10.6836 39.0963 10.6836C39.6354 10.6836 40.1451 10.7363 40.6256 10.8418C41.1178 10.9355 41.61 11.1172 42.1022 11.3867C42.6061 11.6445 43.0338 11.9785 43.3854 12.3887C43.7487 12.7871 44.0416 13.3262 44.2643 14.0059C44.4869 14.6738 44.5983 15.4355 44.5983 16.291V27.0137ZM36.4244 28.3848C37.444 28.3848 38.5104 28.0508 39.6237 27.3828C40.7369 26.7031 41.5573 25.8594 42.0846 24.8516V19.4902C39.0846 19.9238 36.9401 20.5918 35.651 21.4941C34.3737 22.3848 33.735 23.6855 33.735 25.3965C33.735 26.4395 33.9576 27.2012 34.403 27.6816C34.8483 28.1504 35.5221 28.3848 36.4244 28.3848ZM63.442 6.18359C63.442 5.38672 63.4069 4.75391 63.3366 4.28516C63.2662 3.81641 63.1198 3.40625 62.8971 3.05469C62.6862 2.70312 62.3756 2.45703 61.9655 2.31641C61.5553 2.17578 61.0162 2.10547 60.3483 2.10547L60.278 1.78906C62.2116 1.21484 63.9869 0.927734 65.6041 0.927734C65.8385 1.54883 65.9557 2.2168 65.9557 2.93164V25.8359C65.9557 26.7617 66.1725 27.4473 66.6061 27.8926C67.0397 28.3379 67.8073 28.6602 68.9088 28.8594L68.7682 29.2812C67.4205 29.0938 66.3424 29 65.5338 29C64.901 29 64.1158 29.0938 63.1783 29.2812L63.0729 29.1055C63.319 28.7656 63.442 28.1445 63.442 27.2422V27.084C61.7194 28.8418 59.9205 29.7207 58.0455 29.7207C57.0494 29.7207 56.0885 29.5098 55.1627 29.0879C54.2487 28.666 53.4342 28.0859 52.7194 27.3477C52.0045 26.5977 51.4303 25.666 50.9967 24.5527C50.5748 23.4277 50.3639 22.209 50.3639 20.8965C50.3639 17.7559 51.1901 15.2773 52.8424 13.4609C54.5065 11.6328 56.9088 10.7188 60.0494 10.7188C61.0338 10.7188 62.1647 10.8125 63.442 11V6.18359ZM63.442 12.9512C62.1061 12.3418 60.5475 12.0371 58.7662 12.0371C57.8522 12.0371 57.0612 12.166 56.3932 12.4238C55.7252 12.6699 55.1803 13.0098 54.7584 13.4434C54.3483 13.877 54.0201 14.4395 53.7741 15.1309C53.528 15.8105 53.358 16.5312 53.2643 17.293C53.1823 18.0547 53.1412 18.9453 53.1412 19.9648C53.1412 22.6484 53.6393 24.6934 54.6354 26.0996C55.6315 27.5059 56.9205 28.209 58.5026 28.209C60.2252 28.209 61.8717 27.4062 63.442 25.8008V12.9512ZM84.6764 6.18359C84.6764 5.38672 84.6412 4.75391 84.5709 4.28516C84.5006 3.81641 84.3541 3.40625 84.1315 3.05469C83.9205 2.70312 83.61 2.45703 83.1998 2.31641C82.7897 2.17578 82.2506 2.10547 81.5826 2.10547L81.5123 1.78906C83.4459 1.21484 85.2213 0.927734 86.8385 0.927734C87.0729 1.54883 87.1901 2.2168 87.1901 2.93164V25.8359C87.1901 26.7617 87.4069 27.4473 87.8405 27.8926C88.274 28.3379 89.0416 28.6602 90.1432 28.8594L90.0026 29.2812C88.6549 29.0938 87.5768 29 86.7682 29C86.1354 29 85.3502 29.0938 84.4127 29.2812L84.3073 29.1055C84.5533 28.7656 84.6764 28.1445 84.6764 27.2422V27.084C82.9537 28.8418 81.1549 29.7207 79.2799 29.7207C78.2838 29.7207 77.3229 29.5098 76.3971 29.0879C75.483 28.666 74.6686 28.0859 73.9537 27.3477C73.2389 26.5977 72.6647 25.666 72.2311 24.5527C71.8092 23.4277 71.5983 22.209 71.5983 20.8965C71.5983 17.7559 72.4244 15.2773 74.0768 13.4609C75.7408 11.6328 78.1432 10.7188 81.2838 10.7188C82.2682 10.7188 83.399 10.8125 84.6764 11V6.18359ZM84.6764 12.9512C83.3405 12.3418 81.7819 12.0371 80.0006 12.0371C79.0865 12.0371 78.2955 12.166 77.6276 12.4238C76.9596 12.6699 76.4147 13.0098 75.9928 13.4434C75.5826 13.877 75.2545 14.4395 75.0084 15.1309C74.7623 15.8105 74.5924 16.5312 74.4987 17.293C74.4166 18.0547 74.3756 18.9453 74.3756 19.9648C74.3756 22.6484 74.8737 24.6934 75.8698 26.0996C76.8658 27.5059 78.1549 28.209 79.7369 28.209C81.4596 28.209 83.1061 27.4062 84.6764 25.8008V12.9512Z" fill="white"/>
</svg>
