<svg width="52" height="64" viewBox="0 0 52 64" fill="none" xmlns="http://www.w3.org/2000/svg">
<path d="M9.9091 0.181824H48.0909V3.36364H51.2727V60.6364H48.0909V63.8182H9.9091V60.6364H6.72728V41.5455H13.0909V57.4546H44.9091V6.54546H13.0909V22.4546H6.72728V3.36364H9.9091V0.181824ZM19.4546 16.0909H25.8182V19.2727H29V22.4546H32.1818V25.6364H35.3636V28.8182H38.5455V35.1818H35.3636V38.3636H32.1818V41.5455H29V44.7273H25.8182V47.9091H19.4546V41.5455H22.6364V38.3636H25.8182V35.1818H0.363647V28.8182H25.8182V25.6364H22.6364V22.4546H19.4546V16.0909Z" fill="url(#paint0_linear_76_12)"/>
<defs>
<linearGradient id="paint0_linear_76_12" x1="25.8182" y1="0.181824" x2="25.8182" y2="63.8182" gradientUnits="userSpaceOnUse">
<stop stop-color="#F8FAE5"/>
<stop offset="1" stop-color="#43766C"/>
</linearGradient>
</defs>
</svg>
