<svg width="30" height="30" viewBox="0 0 30 30" fill="none" xmlns="http://www.w3.org/2000/svg">
<path d="M12.75 3C12.5511 3 12.3603 3.07902 12.2197 3.21967C12.079 3.36032 12 3.55109 12 3.75C12 3.94891 12.079 4.13968 12.2197 4.28033C12.3603 4.42098 12.5511 4.5 12.75 4.5H14.25V25.5H12.75C12.5511 25.5 12.3603 25.579 12.2197 25.7197C12.079 25.8603 12 26.0511 12 26.25C12 26.4489 12.079 26.6397 12.2197 26.7803C12.3603 26.921 12.5511 27 12.75 27H17.25C17.4489 27 17.6397 26.921 17.7803 26.7803C17.921 26.6397 18 26.4489 18 26.25C18 26.0511 17.921 25.8603 17.7803 25.7197C17.6397 25.579 17.4489 25.5 17.25 25.5H15.75V4.5H17.25C17.4489 4.5 17.6397 4.42098 17.7803 4.28033C17.921 4.13968 18 3.94891 18 3.75C18 3.55109 17.921 3.36032 17.7803 3.21967C17.6397 3.07902 17.4489 3 17.25 3H12.75ZM6.75 6H12.75V24H6.75C5.75544 24 4.80161 23.6049 4.09835 22.9016C3.39509 22.1984 3 21.2446 3 20.25V9.75C3 8.75544 3.39509 7.80161 4.09835 7.09835C4.80161 6.39509 5.75544 6 6.75 6ZM23.25 24H17.25V6H23.25C24.2446 6 25.1984 6.39509 25.9016 7.09835C26.6049 7.80161 27 8.75544 27 9.75V20.25C27 21.2446 26.6049 22.1984 25.9016 22.9016C25.1984 23.6049 24.2446 24 23.25 24Z" fill="#F8FAE5"/>
</svg>
