<svg width="40" height="40" viewBox="0 0 40 40" fill="none" xmlns="http://www.w3.org/2000/svg">
<path fill-rule="evenodd" clip-rule="evenodd" d="M20.0001 36.6667C29.2051 36.6667 36.6667 29.205 36.6667 20C36.6667 10.795 29.2051 3.33333 20.0001 3.33333C10.7951 3.33333 3.33342 10.795 3.33342 20C3.33342 29.205 10.7951 36.6667 20.0001 36.6667ZM20.7834 14.1167C21.0178 13.8826 21.3355 13.7511 21.6667 13.7511C21.998 13.7511 22.3157 13.8826 22.5501 14.1167L27.5501 19.1167C27.7842 19.351 27.9156 19.6687 27.9156 20C27.9156 20.3312 27.7842 20.649 27.5501 20.8833L22.5501 25.8833C22.4356 26.0061 22.2976 26.1046 22.1443 26.173C21.991 26.2413 21.8255 26.278 21.6576 26.281C21.4898 26.2839 21.3231 26.2531 21.1674 26.1902C21.0118 26.1273 20.8704 26.0338 20.7517 25.9151C20.633 25.7964 20.5394 25.655 20.4765 25.4993C20.4137 25.3437 20.3828 25.177 20.3858 25.0091C20.3887 24.8413 20.4255 24.6758 20.4938 24.5224C20.5621 24.3691 20.6606 24.2311 20.7834 24.1167L23.6501 21.25H13.3334C13.0019 21.25 12.684 21.1183 12.4495 20.8839C12.2151 20.6495 12.0834 20.3315 12.0834 20C12.0834 19.6685 12.2151 19.3505 12.4495 19.1161C12.684 18.8817 13.0019 18.75 13.3334 18.75H23.6501L20.7834 15.8833C20.5493 15.649 20.4178 15.3312 20.4178 15C20.4178 14.6687 20.5493 14.351 20.7834 14.1167Z" fill="url(#paint0_linear_69_293)"/>
<defs>
<linearGradient id="paint0_linear_69_293" x1="36.6667" y1="20" x2="3.33342" y2="20" gradientUnits="userSpaceOnUse">
<stop stop-color="#43766C"/>
<stop offset="1" stop-color="#7DDCC9"/>
</linearGradient>
</defs>
</svg>
