<svg width="40" height="40" viewBox="0 0 40 40" fill="none" xmlns="http://www.w3.org/2000/svg">
<g clip-path="url(#clip0_345_7)">
<path d="M35.4334 21.3632H29.0719V18.1824H35.4334V21.3632ZM35.4334 23.1807H29.0719V26.3615H35.4334V23.1807ZM35.4334 8.18585H29.0719V11.3666H35.4334V8.18585ZM35.4334 13.1841H29.0719V16.3648H35.4334V13.1841ZM35.4334 28.179H29.0719V31.3598H35.4334V28.179ZM39.8273 34.4496C39.6455 35.3948 38.5095 35.4174 37.7507 35.4493H23.6192V39.5387H20.7974L0 35.9036V4.10093L20.9202 0.461243H23.6192V4.08273H37.2645C38.0325 4.11452 38.8777 4.05999 39.5455 4.5189C40.0136 5.1914 39.9682 6.0457 40 6.81812L39.9818 30.4737C39.9591 31.7959 40.1045 33.1455 39.8273 34.4496ZM16.6624 27.3202C15.4084 24.7757 14.1316 22.2492 12.882 19.7046C14.1179 17.2282 15.3357 14.7427 16.5489 12.2572C15.5174 12.3072 14.4859 12.3708 13.4591 12.4435C12.6911 14.311 11.7959 16.1286 11.1962 18.0598C10.6373 16.2376 9.89664 14.4837 9.21961 12.707C8.21992 12.7616 7.22023 12.8206 6.22063 12.8797C7.27477 15.2062 8.39719 17.5008 9.41953 19.8409C8.21539 22.1129 7.08852 24.4167 5.9207 26.7023C6.91578 26.7431 7.91094 26.7841 8.90602 26.7977C9.61492 24.9892 10.4964 23.2489 11.1144 21.4041C11.6688 23.3852 12.6093 25.2164 13.3818 27.1112C14.4769 27.1885 15.5673 27.2566 16.6624 27.3202ZM37.8328 6.24077H23.6192V8.18585H27.2544V11.3666H23.6192V13.1841H27.2544V16.3648H23.6192V18.1824H27.2544V21.3632H23.6192V23.1807H27.2544V26.3615H23.6192V28.179H27.2544V31.3598H23.6192V33.4611H37.8328V6.24077Z" fill="white"/>
</g>
<defs>
<clipPath id="clip0_345_7">
<rect width="40" height="40" fill="white"/>
</clipPath>
</defs>
</svg>
