<svg width="35" height="40" viewBox="0 0 35 40" fill="none" xmlns="http://www.w3.org/2000/svg">
<path d="M4 17.3333V16H2.66667V17.3333H4ZM14.6667 17.3333V16H13.3333V17.3333H14.6667ZM14.6667 28H13.3333V29.3333H14.6667V28ZM33.3333 9.33333H34.6667V8.78133L34.2773 8.38933L33.3333 9.33333ZM25.3333 1.33333L26.2773 0.389333L25.8853 0H25.3333V1.33333ZM4 18.6667H6.66667V16H4V18.6667ZM5.33333 29.3333V22.6667H2.66667V29.3333H5.33333ZM5.33333 22.6667V17.3333H2.66667V22.6667H5.33333ZM6.66667 21.3333H4V24H6.66667V21.3333ZM8 20C8 20.3536 7.85952 20.6928 7.60948 20.9428C7.35943 21.1929 7.02029 21.3333 6.66667 21.3333V24C7.72753 24 8.74495 23.5786 9.49509 22.8284C10.2452 22.0783 10.6667 21.0609 10.6667 20H8ZM6.66667 18.6667C7.02029 18.6667 7.35943 18.8071 7.60948 19.0572C7.85952 19.3072 8 19.6464 8 20H10.6667C10.6667 18.9391 10.2452 17.9217 9.49509 17.1716C8.74495 16.4214 7.72753 16 6.66667 16V18.6667ZM13.3333 17.3333V28H16V17.3333H13.3333ZM14.6667 29.3333H17.3333V26.6667H14.6667V29.3333ZM21.3333 25.3333V20H18.6667V25.3333H21.3333ZM17.3333 16H14.6667V18.6667H17.3333V16ZM21.3333 20C21.3333 18.9391 20.9119 17.9217 20.1618 17.1716C19.4116 16.4214 18.3942 16 17.3333 16V18.6667C17.687 18.6667 18.0261 18.8071 18.2761 19.0572C18.5262 19.3072 18.6667 19.6464 18.6667 20H21.3333ZM17.3333 29.3333C18.3942 29.3333 19.4116 28.9119 20.1618 28.1618C20.9119 27.4116 21.3333 26.3942 21.3333 25.3333H18.6667C18.6667 25.687 18.5262 26.0261 18.2761 26.2761C18.0261 26.5262 17.687 26.6667 17.3333 26.6667V29.3333ZM24 16V29.3333H26.6667V16H24ZM25.3333 18.6667H32V16H25.3333V18.6667ZM25.3333 24H29.3333V21.3333H25.3333V24ZM2.66667 13.3333V4H0V13.3333H2.66667ZM32 9.33333V13.3333H34.6667V9.33333H32ZM4 2.66667H25.3333V0H4V2.66667ZM24.3893 2.27733L32.3893 10.2773L34.2773 8.38933L26.2773 0.389333L24.3893 2.27733ZM2.66667 4C2.66667 3.64638 2.80714 3.30724 3.05719 3.05719C3.30724 2.80714 3.64638 2.66667 4 2.66667V0C2.93913 0 1.92172 0.421427 1.17157 1.17157C0.421428 1.92172 0 2.93913 0 4H2.66667ZM0 32V36H2.66667V32H0ZM4 40H30.6667V37.3333H4V40ZM34.6667 36V32H32V36H34.6667ZM30.6667 40C31.7275 40 32.7449 39.5786 33.4951 38.8284C34.2452 38.0783 34.6667 37.0609 34.6667 36H32C32 36.3536 31.8595 36.6928 31.6095 36.9428C31.3594 37.1929 31.0203 37.3333 30.6667 37.3333V40ZM0 36C0 37.0609 0.421428 38.0783 1.17157 38.8284C1.92172 39.5786 2.93913 40 4 40V37.3333C3.64638 37.3333 3.30724 37.1929 3.05719 36.9428C2.80714 36.6928 2.66667 36.3536 2.66667 36H0Z" fill="white"/>
</svg>
