<svg width="128" height="50" viewBox="0 0 128 50" fill="none" xmlns="http://www.w3.org/2000/svg">
<mask id="path-1-outside-1_89_48" maskUnits="userSpaceOnUse" x="3" y="0" width="123" height="54" fill="black">
<rect fill="white" x="3" width="123" height="54"/>
<path d="M15.3906 35.8086L21.875 35.5938C22.8255 35.5677 23.6328 35.4635 24.2969 35.2812C24.9609 35.0859 25.5339 34.7865 26.0156 34.3828C26.4974 33.9661 26.888 33.5365 27.1875 33.0938C27.5 32.638 27.8451 32.0326 28.2227 31.2773L28.7891 31.5117L26.875 36.7266L26.543 37H12.7539C12.5065 36.4531 12.3828 35.8151 12.3828 35.0859V14.5195C12.3828 12.6836 12.1615 11.4466 11.7188 10.8086C11.2891 10.1706 10.3646 9.90365 8.94531 10.0078L8.86719 9.63672C11.0156 8.9987 13.0599 8.67969 15 8.67969C15.2604 9.39583 15.3906 10.1445 15.3906 10.9258V35.8086ZM44.3047 16.6875C47.2995 16.6875 49.6497 17.6055 51.3555 19.4414C53.0612 21.2773 53.9141 23.8359 53.9141 27.1172C53.9141 29.0182 53.4779 30.7891 52.6055 32.4297C51.7331 34.0703 50.5482 35.3789 49.0508 36.3555C47.5534 37.319 45.9323 37.8008 44.1875 37.8008C41.1797 37.8008 38.8229 36.8958 37.1172 35.0859C35.4245 33.263 34.5781 30.6849 34.5781 27.3516C34.5781 25.3724 35.0143 23.569 35.8867 21.9414C36.7591 20.3008 37.9375 19.0182 39.4219 18.0938C40.9193 17.1562 42.5469 16.6875 44.3047 16.6875ZM43.9141 18.0352C42.8854 18.0352 41.9935 18.1849 41.2383 18.4844C40.4831 18.7839 39.8776 19.1875 39.4219 19.6953C38.9661 20.2031 38.6016 20.8477 38.3281 21.6289C38.0547 22.4102 37.8659 23.2109 37.7617 24.0312C37.6706 24.8516 37.625 25.8021 37.625 26.8828C37.625 28.6016 37.8268 30.1055 38.2305 31.3945C38.6471 32.6706 39.2005 33.6667 39.8906 34.3828C40.5807 35.0859 41.3164 35.6068 42.0977 35.9453C42.8789 36.2708 43.7057 36.4336 44.5781 36.4336C45.5938 36.4336 46.4792 36.2773 47.2344 35.9648C48.0026 35.6393 48.6146 35.2227 49.0703 34.7148C49.526 34.194 49.8906 33.543 50.1641 32.7617C50.4375 31.9674 50.6198 31.1667 50.7109 30.3594C50.8151 29.5521 50.8672 28.6341 50.8672 27.6055C50.8672 26.1602 50.7305 24.8711 50.457 23.7383C50.1836 22.6055 49.819 21.6875 49.3633 20.9844C48.9206 20.2812 48.3867 19.7018 47.7617 19.2461C47.1497 18.7904 46.5312 18.4779 45.9062 18.3086C45.2812 18.1263 44.6172 18.0352 43.9141 18.0352ZM77.7891 41.9609C77.7891 43.263 77.3008 44.4154 76.3242 45.418C75.3607 46.4336 74.1107 47.1953 72.5742 47.7031C71.0378 48.224 69.3776 48.4844 67.5938 48.4844C66.2266 48.4844 64.9961 48.3021 63.9023 47.9375C62.8086 47.5729 61.9036 46.9674 61.1875 46.1211C60.4714 45.2747 60.1133 44.2461 60.1133 43.0352C60.1133 41.7721 60.6667 40.6003 61.7734 39.5195C62.8802 38.4388 64.3385 37.5208 66.1484 36.7656C64.5078 36.401 63.3294 36.0039 62.6133 35.5742C61.8971 35.1315 61.5391 34.4479 61.5391 33.5234C61.5391 32.7031 61.793 32.0456 62.3008 31.5508C62.8086 31.043 63.6745 30.6328 64.8984 30.3203C63.4661 29.8776 62.3464 29.1159 61.5391 28.0352C60.7448 26.9544 60.3477 25.5547 60.3477 23.8359C60.3477 22.5859 60.7122 21.4076 61.4414 20.3008C62.1836 19.194 63.1536 18.3151 64.3516 17.6641C65.5625 17.013 66.8255 16.6875 68.1406 16.6875C69.651 16.6875 70.9857 16.9219 72.1445 17.3906L78.5508 16.6875L78.707 17.3516L77.3008 18.7969L73.8242 18.4844C75.1654 19.6823 75.8359 21.4141 75.8359 23.6797C75.8359 24.8255 75.4909 25.9388 74.8008 27.0195C74.1107 28.1003 73.1602 28.9857 71.9492 29.6758C70.7383 30.3659 69.4427 30.7109 68.0625 30.7109C66.1875 31.0365 64.9831 31.3229 64.4492 31.5703C63.9284 31.8177 63.668 32.2148 63.668 32.7617C63.668 33.0872 64.026 33.4062 64.7422 33.7188C65.4583 34.0182 66.8711 34.4349 68.9805 34.9688C69.944 35.2031 70.7578 35.418 71.4219 35.6133C72.0859 35.7956 72.75 36.0104 73.4141 36.2578C74.0781 36.4922 74.6185 36.7331 75.0352 36.9805C75.4648 37.2279 75.8685 37.5143 76.2461 37.8398C76.6367 38.1784 76.9297 38.543 77.125 38.9336C77.3333 39.3372 77.4961 39.7865 77.6133 40.2812C77.7305 40.776 77.7891 41.3359 77.7891 41.9609ZM68.7852 37.2734L67.9844 37.0781C66.3438 37.6901 65.0482 38.5169 64.0977 39.5586C63.1471 40.6003 62.6719 41.6549 62.6719 42.7227C62.6719 43.4779 62.8737 44.1419 63.2773 44.7148C63.694 45.3008 64.2474 45.7565 64.9375 46.082C65.6276 46.4076 66.3633 46.6484 67.1445 46.8047C67.9258 46.9609 68.7396 47.0391 69.5859 47.0391C73.401 47.0391 75.3086 45.5482 75.3086 42.5664C75.3086 41.1211 74.7617 39.9948 73.668 39.1875C72.5872 38.3802 70.9596 37.7422 68.7852 37.2734ZM67.3398 18.0742C65.6992 18.0742 64.5599 18.4974 63.9219 19.3438C63.2969 20.1771 62.9844 21.5703 62.9844 23.5234C62.9844 24.4349 63.1276 25.2487 63.4141 25.9648C63.7135 26.668 64.0846 27.2279 64.5273 27.6445C64.9701 28.0482 65.4844 28.3867 66.0703 28.6602C66.6693 28.9206 67.2227 29.0964 67.7305 29.1875C68.2513 29.2786 68.7656 29.3242 69.2734 29.3242C70.6016 29.3242 71.5846 28.849 72.2227 27.8984C72.8607 26.9479 73.1797 25.6458 73.1797 23.9922C73.1797 23.0417 73.0299 22.2018 72.7305 21.4727C72.444 20.7305 72.0859 20.1576 71.6562 19.7539C71.2396 19.3372 70.7513 18.9987 70.1914 18.7383C69.6315 18.4648 69.1237 18.2891 68.668 18.2109C68.2122 18.1198 67.7695 18.0742 67.3398 18.0742ZM86.2148 22.5273C86.2148 20.6784 85.9935 19.4414 85.5508 18.8164C85.1211 18.1784 84.1966 17.9049 82.7773 17.9961L82.6992 17.6445C84.8477 17.0065 86.8203 16.6875 88.6172 16.6875C88.8906 17.3646 89.0273 18.1068 89.0273 18.9141V33.4844C89.0273 34.513 89.2682 35.2747 89.75 35.7695C90.2318 36.2643 91.0846 36.6224 92.3086 36.8438L92.1523 37.3125C90.6549 37.1042 89.4961 37 88.6758 37C87.8685 37 86.957 37.1042 85.9414 37.3125L85.8242 37.1172C86.0846 36.7396 86.2148 36.0495 86.2148 35.0469V22.5273ZM84.2227 9.44141C85.4596 8.72526 86.8594 8.1263 88.4219 7.64453C88.4219 8.72526 88.5977 9.79297 88.9492 10.8477L88.6953 11.1992C87.4583 11.2773 86.1693 11.6224 84.8281 12.2344C84.5026 11.3359 84.3008 10.4049 84.2227 9.44141ZM99.8164 22.5273C99.8164 21.6549 99.7708 20.9258 99.6797 20.3398C99.6016 19.7539 99.4518 19.2852 99.2305 18.9336C99.0221 18.582 98.7292 18.3346 98.3516 18.1914C97.974 18.0482 97.5703 17.9766 97.1406 17.9766C96.724 17.9766 96.4701 17.9831 96.3789 17.9961L96.3008 17.6445C98.4232 17.0065 100.396 16.6875 102.219 16.6875C102.492 17.3776 102.629 18.1198 102.629 18.9141V19.4805C103.384 18.9727 104.081 18.5299 104.719 18.1523C105.357 17.7747 105.982 17.4557 106.594 17.1953C107.219 16.9349 107.857 16.7396 108.508 16.6094C109.159 16.4792 109.875 16.4141 110.656 16.4141C111.359 16.4141 112.056 16.5052 112.746 16.6875C113.449 16.8698 114.074 17.1953 114.621 17.6641C115.181 18.1328 115.63 18.7708 115.969 19.5781C116.32 20.3854 116.496 21.4076 116.496 22.6445V34.793C116.496 35.1055 116.568 35.3659 116.711 35.5742C116.867 35.7826 117.062 35.9583 117.297 36.1016C117.544 36.2448 117.824 36.3685 118.137 36.4727C118.449 36.5638 118.775 36.6615 119.113 36.7656L118.938 37.2344C118.208 37.0781 117.238 37 116.027 37C115.285 37 114.419 37.1042 113.43 37.3125L113.312 37.1172C113.573 36.7396 113.703 36.0495 113.703 35.0469V23.3672C113.703 22.2734 113.599 21.3815 113.391 20.6914C113.182 19.9883 112.896 19.4414 112.531 19.0508C112.18 18.6471 111.763 18.3672 111.281 18.2109C110.812 18.0547 110.311 17.9766 109.777 17.9766C109.126 17.9766 108.514 18.0352 107.941 18.1523C107.382 18.2695 106.815 18.4518 106.242 18.6992C105.682 18.9336 105.109 19.2331 104.523 19.5977C103.938 19.9492 103.306 20.3659 102.629 20.8477V34.3242C102.629 34.7409 102.661 35.0794 102.727 35.3398C102.792 35.5872 102.928 35.7956 103.137 35.9648C103.345 36.1341 103.638 36.2839 104.016 36.4141C104.393 36.5443 104.888 36.6875 105.5 36.8438L105.344 37.3125C104.589 37.2083 103.944 37.1302 103.41 37.0781C102.889 37.026 102.466 37 102.141 37C101.398 37 100.533 37.1042 99.543 37.3125L99.4258 37.1172C99.6862 36.7396 99.8164 36.0495 99.8164 35.0469V22.5273Z"/>
</mask>
<path d="M15.3906 35.8086L21.875 35.5938C22.8255 35.5677 23.6328 35.4635 24.2969 35.2812C24.9609 35.0859 25.5339 34.7865 26.0156 34.3828C26.4974 33.9661 26.888 33.5365 27.1875 33.0938C27.5 32.638 27.8451 32.0326 28.2227 31.2773L28.7891 31.5117L26.875 36.7266L26.543 37H12.7539C12.5065 36.4531 12.3828 35.8151 12.3828 35.0859V14.5195C12.3828 12.6836 12.1615 11.4466 11.7188 10.8086C11.2891 10.1706 10.3646 9.90365 8.94531 10.0078L8.86719 9.63672C11.0156 8.9987 13.0599 8.67969 15 8.67969C15.2604 9.39583 15.3906 10.1445 15.3906 10.9258V35.8086ZM44.3047 16.6875C47.2995 16.6875 49.6497 17.6055 51.3555 19.4414C53.0612 21.2773 53.9141 23.8359 53.9141 27.1172C53.9141 29.0182 53.4779 30.7891 52.6055 32.4297C51.7331 34.0703 50.5482 35.3789 49.0508 36.3555C47.5534 37.319 45.9323 37.8008 44.1875 37.8008C41.1797 37.8008 38.8229 36.8958 37.1172 35.0859C35.4245 33.263 34.5781 30.6849 34.5781 27.3516C34.5781 25.3724 35.0143 23.569 35.8867 21.9414C36.7591 20.3008 37.9375 19.0182 39.4219 18.0938C40.9193 17.1562 42.5469 16.6875 44.3047 16.6875ZM43.9141 18.0352C42.8854 18.0352 41.9935 18.1849 41.2383 18.4844C40.4831 18.7839 39.8776 19.1875 39.4219 19.6953C38.9661 20.2031 38.6016 20.8477 38.3281 21.6289C38.0547 22.4102 37.8659 23.2109 37.7617 24.0312C37.6706 24.8516 37.625 25.8021 37.625 26.8828C37.625 28.6016 37.8268 30.1055 38.2305 31.3945C38.6471 32.6706 39.2005 33.6667 39.8906 34.3828C40.5807 35.0859 41.3164 35.6068 42.0977 35.9453C42.8789 36.2708 43.7057 36.4336 44.5781 36.4336C45.5938 36.4336 46.4792 36.2773 47.2344 35.9648C48.0026 35.6393 48.6146 35.2227 49.0703 34.7148C49.526 34.194 49.8906 33.543 50.1641 32.7617C50.4375 31.9674 50.6198 31.1667 50.7109 30.3594C50.8151 29.5521 50.8672 28.6341 50.8672 27.6055C50.8672 26.1602 50.7305 24.8711 50.457 23.7383C50.1836 22.6055 49.819 21.6875 49.3633 20.9844C48.9206 20.2812 48.3867 19.7018 47.7617 19.2461C47.1497 18.7904 46.5312 18.4779 45.9062 18.3086C45.2812 18.1263 44.6172 18.0352 43.9141 18.0352ZM77.7891 41.9609C77.7891 43.263 77.3008 44.4154 76.3242 45.418C75.3607 46.4336 74.1107 47.1953 72.5742 47.7031C71.0378 48.224 69.3776 48.4844 67.5938 48.4844C66.2266 48.4844 64.9961 48.3021 63.9023 47.9375C62.8086 47.5729 61.9036 46.9674 61.1875 46.1211C60.4714 45.2747 60.1133 44.2461 60.1133 43.0352C60.1133 41.7721 60.6667 40.6003 61.7734 39.5195C62.8802 38.4388 64.3385 37.5208 66.1484 36.7656C64.5078 36.401 63.3294 36.0039 62.6133 35.5742C61.8971 35.1315 61.5391 34.4479 61.5391 33.5234C61.5391 32.7031 61.793 32.0456 62.3008 31.5508C62.8086 31.043 63.6745 30.6328 64.8984 30.3203C63.4661 29.8776 62.3464 29.1159 61.5391 28.0352C60.7448 26.9544 60.3477 25.5547 60.3477 23.8359C60.3477 22.5859 60.7122 21.4076 61.4414 20.3008C62.1836 19.194 63.1536 18.3151 64.3516 17.6641C65.5625 17.013 66.8255 16.6875 68.1406 16.6875C69.651 16.6875 70.9857 16.9219 72.1445 17.3906L78.5508 16.6875L78.707 17.3516L77.3008 18.7969L73.8242 18.4844C75.1654 19.6823 75.8359 21.4141 75.8359 23.6797C75.8359 24.8255 75.4909 25.9388 74.8008 27.0195C74.1107 28.1003 73.1602 28.9857 71.9492 29.6758C70.7383 30.3659 69.4427 30.7109 68.0625 30.7109C66.1875 31.0365 64.9831 31.3229 64.4492 31.5703C63.9284 31.8177 63.668 32.2148 63.668 32.7617C63.668 33.0872 64.026 33.4062 64.7422 33.7188C65.4583 34.0182 66.8711 34.4349 68.9805 34.9688C69.944 35.2031 70.7578 35.418 71.4219 35.6133C72.0859 35.7956 72.75 36.0104 73.4141 36.2578C74.0781 36.4922 74.6185 36.7331 75.0352 36.9805C75.4648 37.2279 75.8685 37.5143 76.2461 37.8398C76.6367 38.1784 76.9297 38.543 77.125 38.9336C77.3333 39.3372 77.4961 39.7865 77.6133 40.2812C77.7305 40.776 77.7891 41.3359 77.7891 41.9609ZM68.7852 37.2734L67.9844 37.0781C66.3438 37.6901 65.0482 38.5169 64.0977 39.5586C63.1471 40.6003 62.6719 41.6549 62.6719 42.7227C62.6719 43.4779 62.8737 44.1419 63.2773 44.7148C63.694 45.3008 64.2474 45.7565 64.9375 46.082C65.6276 46.4076 66.3633 46.6484 67.1445 46.8047C67.9258 46.9609 68.7396 47.0391 69.5859 47.0391C73.401 47.0391 75.3086 45.5482 75.3086 42.5664C75.3086 41.1211 74.7617 39.9948 73.668 39.1875C72.5872 38.3802 70.9596 37.7422 68.7852 37.2734ZM67.3398 18.0742C65.6992 18.0742 64.5599 18.4974 63.9219 19.3438C63.2969 20.1771 62.9844 21.5703 62.9844 23.5234C62.9844 24.4349 63.1276 25.2487 63.4141 25.9648C63.7135 26.668 64.0846 27.2279 64.5273 27.6445C64.9701 28.0482 65.4844 28.3867 66.0703 28.6602C66.6693 28.9206 67.2227 29.0964 67.7305 29.1875C68.2513 29.2786 68.7656 29.3242 69.2734 29.3242C70.6016 29.3242 71.5846 28.849 72.2227 27.8984C72.8607 26.9479 73.1797 25.6458 73.1797 23.9922C73.1797 23.0417 73.0299 22.2018 72.7305 21.4727C72.444 20.7305 72.0859 20.1576 71.6562 19.7539C71.2396 19.3372 70.7513 18.9987 70.1914 18.7383C69.6315 18.4648 69.1237 18.2891 68.668 18.2109C68.2122 18.1198 67.7695 18.0742 67.3398 18.0742ZM86.2148 22.5273C86.2148 20.6784 85.9935 19.4414 85.5508 18.8164C85.1211 18.1784 84.1966 17.9049 82.7773 17.9961L82.6992 17.6445C84.8477 17.0065 86.8203 16.6875 88.6172 16.6875C88.8906 17.3646 89.0273 18.1068 89.0273 18.9141V33.4844C89.0273 34.513 89.2682 35.2747 89.75 35.7695C90.2318 36.2643 91.0846 36.6224 92.3086 36.8438L92.1523 37.3125C90.6549 37.1042 89.4961 37 88.6758 37C87.8685 37 86.957 37.1042 85.9414 37.3125L85.8242 37.1172C86.0846 36.7396 86.2148 36.0495 86.2148 35.0469V22.5273ZM84.2227 9.44141C85.4596 8.72526 86.8594 8.1263 88.4219 7.64453C88.4219 8.72526 88.5977 9.79297 88.9492 10.8477L88.6953 11.1992C87.4583 11.2773 86.1693 11.6224 84.8281 12.2344C84.5026 11.3359 84.3008 10.4049 84.2227 9.44141ZM99.8164 22.5273C99.8164 21.6549 99.7708 20.9258 99.6797 20.3398C99.6016 19.7539 99.4518 19.2852 99.2305 18.9336C99.0221 18.582 98.7292 18.3346 98.3516 18.1914C97.974 18.0482 97.5703 17.9766 97.1406 17.9766C96.724 17.9766 96.4701 17.9831 96.3789 17.9961L96.3008 17.6445C98.4232 17.0065 100.396 16.6875 102.219 16.6875C102.492 17.3776 102.629 18.1198 102.629 18.9141V19.4805C103.384 18.9727 104.081 18.5299 104.719 18.1523C105.357 17.7747 105.982 17.4557 106.594 17.1953C107.219 16.9349 107.857 16.7396 108.508 16.6094C109.159 16.4792 109.875 16.4141 110.656 16.4141C111.359 16.4141 112.056 16.5052 112.746 16.6875C113.449 16.8698 114.074 17.1953 114.621 17.6641C115.181 18.1328 115.63 18.7708 115.969 19.5781C116.32 20.3854 116.496 21.4076 116.496 22.6445V34.793C116.496 35.1055 116.568 35.3659 116.711 35.5742C116.867 35.7826 117.062 35.9583 117.297 36.1016C117.544 36.2448 117.824 36.3685 118.137 36.4727C118.449 36.5638 118.775 36.6615 119.113 36.7656L118.938 37.2344C118.208 37.0781 117.238 37 116.027 37C115.285 37 114.419 37.1042 113.43 37.3125L113.312 37.1172C113.573 36.7396 113.703 36.0495 113.703 35.0469V23.3672C113.703 22.2734 113.599 21.3815 113.391 20.6914C113.182 19.9883 112.896 19.4414 112.531 19.0508C112.18 18.6471 111.763 18.3672 111.281 18.2109C110.812 18.0547 110.311 17.9766 109.777 17.9766C109.126 17.9766 108.514 18.0352 107.941 18.1523C107.382 18.2695 106.815 18.4518 106.242 18.6992C105.682 18.9336 105.109 19.2331 104.523 19.5977C103.938 19.9492 103.306 20.3659 102.629 20.8477V34.3242C102.629 34.7409 102.661 35.0794 102.727 35.3398C102.792 35.5872 102.928 35.7956 103.137 35.9648C103.345 36.1341 103.638 36.2839 104.016 36.4141C104.393 36.5443 104.888 36.6875 105.5 36.8438L105.344 37.3125C104.589 37.2083 103.944 37.1302 103.41 37.0781C102.889 37.026 102.466 37 102.141 37C101.398 37 100.533 37.1042 99.543 37.3125L99.4258 37.1172C99.6862 36.7396 99.8164 36.0495 99.8164 35.0469V22.5273Z" fill="#F8FAE5"/>
<path d="M15.3906 35.8086H10.3906V40.977L15.5562 40.8059L15.3906 35.8086ZM21.875 35.5938L21.7381 30.5956L21.7237 30.596L21.7094 30.5965L21.875 35.5938ZM24.2969 35.2812L25.6205 40.1029L25.6642 40.0909L25.7077 40.0781L24.2969 35.2812ZM26.0156 34.3828L29.2267 38.2154L29.2568 38.1903L29.2864 38.1646L26.0156 34.3828ZM27.1875 33.0938L23.0639 30.2661L23.0549 30.2791L23.0461 30.2922L27.1875 33.0938ZM28.2227 31.2773L30.1344 26.6573L25.8326 24.8772L23.7505 29.0413L28.2227 31.2773ZM28.7891 31.5117L33.4829 33.2345L35.1372 28.7274L30.7008 26.8916L28.7891 31.5117ZM26.875 36.7266L30.0535 40.5862L31.1012 39.7234L31.5688 38.4494L26.875 36.7266ZM26.543 37V42H28.3368L29.7215 40.8596L26.543 37ZM12.7539 37L8.19837 39.0608L9.52799 42H12.7539V37ZM11.7188 10.8086L7.57157 13.6016L7.59099 13.6304L7.61081 13.659L11.7188 10.8086ZM8.94531 10.0078L4.05256 11.0379L4.95286 15.3143L9.3113 14.9944L8.94531 10.0078ZM8.86719 9.63672L7.44378 4.84361L3.02478 6.15592L3.97444 10.6668L8.86719 9.63672ZM15 8.67969L19.699 6.97097L18.5021 3.67969H15V8.67969ZM15.5562 40.8059L22.0406 40.591L21.7094 30.5965L15.2251 30.8113L15.5562 40.8059ZM22.0119 40.5919C23.2236 40.5587 24.4542 40.423 25.6205 40.1029L22.9733 30.4596C22.8114 30.5041 22.4275 30.5767 21.7381 30.5956L22.0119 40.5919ZM25.7077 40.0781C26.9645 39.7084 28.1664 39.1038 29.2267 38.2154L22.8045 30.5502C22.8473 30.5144 22.885 30.4912 22.9083 30.479C22.9306 30.4674 22.927 30.4724 22.886 30.4844L25.7077 40.0781ZM29.2864 38.1646C30.0387 37.5139 30.7418 36.7632 31.3289 35.8953L23.0461 30.2922C23.0342 30.3097 22.9561 30.4183 22.7449 30.601L29.2864 38.1646ZM31.3111 35.9214C31.8019 35.2057 32.2622 34.3787 32.6948 33.5134L23.7505 29.0413C23.4279 29.6864 23.1981 30.0703 23.0639 30.2661L31.3111 35.9214ZM26.3109 35.8974L26.8773 36.1318L30.7008 26.8916L30.1344 26.6573L26.3109 35.8974ZM24.0952 29.7889L22.1812 35.0037L31.5688 38.4494L33.4829 33.2345L24.0952 29.7889ZM23.6965 32.8669L23.3644 33.1404L29.7215 40.8596L30.0535 40.5862L23.6965 32.8669ZM26.543 32H12.7539V42H26.543V32ZM17.3094 34.9392C17.4109 35.1635 17.3828 35.2539 17.3828 35.0859H7.38281C7.38281 36.3763 7.6021 37.7428 8.19837 39.0608L17.3094 34.9392ZM17.3828 35.0859V14.5195H7.38281V35.0859H17.3828ZM17.3828 14.5195C17.3828 13.4279 17.3191 12.3426 17.1386 11.3341C16.9705 10.3944 16.6342 9.12196 15.8267 7.95819L7.61081 13.659C7.40887 13.368 7.3222 13.1422 7.29614 13.0687C7.2682 12.9897 7.27573 12.988 7.29498 13.0956C7.33587 13.3241 7.38281 13.7752 7.38281 14.5195H17.3828ZM15.8659 8.01559C13.8089 4.96118 10.283 4.89618 8.57932 5.02123L9.3113 14.9944C9.68646 14.9669 9.62601 15.0231 9.31612 14.9337C8.942 14.8256 8.16371 14.4808 7.57157 13.6016L15.8659 8.01559ZM13.8381 8.97776L13.7599 8.60667L3.97444 10.6668L4.05256 11.0379L13.8381 8.97776ZM10.2906 14.4298C12.047 13.9082 13.6098 13.6797 15 13.6797V3.67969C12.51 3.67969 9.98422 4.08917 7.44378 4.84361L10.2906 14.4298ZM10.301 10.3884C10.3572 10.543 10.3906 10.7123 10.3906 10.9258H20.3906C20.3906 9.57672 20.1636 8.24867 19.699 6.97097L10.301 10.3884ZM10.3906 10.9258V35.8086H20.3906V10.9258H10.3906ZM51.3555 19.4414L55.0185 16.0382L51.3555 19.4414ZM52.6055 32.4297L48.1908 30.0822L52.6055 32.4297ZM49.0508 36.3555L51.7564 40.5602L51.7693 40.5519L51.7821 40.5435L49.0508 36.3555ZM37.1172 35.0859L33.4532 38.4882L33.4658 38.5017L33.4785 38.5152L37.1172 35.0859ZM35.8867 21.9414L40.2936 24.3035L40.2975 24.2962L40.3014 24.2889L35.8867 21.9414ZM39.4219 18.0938L42.0652 22.3379L42.0752 22.3317L39.4219 18.0938ZM37.7617 24.0312L32.8016 23.4014L32.7966 23.4402L32.7923 23.4791L37.7617 24.0312ZM38.2305 31.3945L33.4589 32.8886L33.468 32.9177L33.4774 32.9465L38.2305 31.3945ZM39.8906 34.3828L36.2902 37.8523L36.3061 37.8688L36.3222 37.8852L39.8906 34.3828ZM42.0977 35.9453L40.1096 40.5331L40.142 40.5471L40.1746 40.5607L42.0977 35.9453ZM47.2344 35.9648L49.1461 40.5849L49.1657 40.5768L49.1851 40.5686L47.2344 35.9648ZM49.0703 34.7148L52.7915 38.0544L52.8125 38.031L52.8332 38.0074L49.0703 34.7148ZM50.1641 32.7617L54.8834 34.4135L54.8876 34.4014L54.8918 34.3893L50.1641 32.7617ZM50.7109 30.3594L45.752 29.7195L45.747 29.7589L45.7425 29.7984L50.7109 30.3594ZM49.3633 20.9844L45.1321 23.6484L45.1496 23.6763L45.1675 23.7039L49.3633 20.9844ZM47.7617 19.2461L44.7754 23.2563L44.7955 23.2713L44.8159 23.2861L47.7617 19.2461ZM45.9062 18.3086L44.5062 23.1086L44.5526 23.1221L44.5992 23.1347L45.9062 18.3086ZM44.3047 21.6875C46.2036 21.6875 47.1158 22.224 47.6924 22.8447L55.0185 16.0382C52.1837 12.9869 48.3954 11.6875 44.3047 11.6875V21.6875ZM47.6924 22.8447C48.2998 23.4984 48.9141 24.6969 48.9141 27.1172H58.9141C58.9141 22.975 57.8226 19.0563 55.0185 16.0382L47.6924 22.8447ZM48.9141 27.1172C48.9141 28.2193 48.6697 29.1815 48.1908 30.0822L57.0201 34.7772C58.286 32.3966 58.9141 29.8172 58.9141 27.1172H48.9141ZM48.1908 30.0822C47.6988 31.0075 47.0808 31.6709 46.3194 32.1674L51.7821 40.5435C54.0155 39.087 55.7674 37.1331 57.0201 34.7772L48.1908 30.0822ZM46.3451 32.1508C45.6371 32.6064 44.9521 32.8008 44.1875 32.8008V42.8008C46.9124 42.8008 49.4697 42.0316 51.7564 40.5602L46.3451 32.1508ZM44.1875 32.8008C42.2463 32.8008 41.3229 32.2583 40.7559 31.6567L33.4785 38.5152C36.3229 41.5333 40.1131 42.8008 44.1875 42.8008V32.8008ZM40.7812 31.6837C40.2047 31.0628 39.5781 29.8604 39.5781 27.3516H29.5781C29.5781 31.5094 30.6443 35.4632 33.4532 38.4882L40.7812 31.6837ZM39.5781 27.3516C39.5781 26.1358 39.8383 25.1529 40.2936 24.3035L31.4798 19.5793C30.1903 21.9851 29.5781 24.609 29.5781 27.3516H39.5781ZM40.3014 24.2889C40.7874 23.3749 41.375 22.7678 42.0652 22.3379L36.7786 13.8496C34.5 15.2687 32.7309 17.2266 31.472 19.5939L40.3014 24.2889ZM42.0752 22.3317C42.7814 21.8895 43.4903 21.6875 44.3047 21.6875V11.6875C41.6035 11.6875 39.0571 12.423 36.7686 13.8558L42.0752 22.3317ZM43.9141 13.0352C42.4155 13.0352 40.8702 13.2515 39.3952 13.8365L43.0814 23.1323C43.1168 23.1182 43.3553 23.0352 43.9141 23.0352V13.0352ZM39.3952 13.8365C38.0571 14.3671 36.7624 15.1727 35.7007 16.3558L43.1431 23.0349C43.0728 23.1132 43.0145 23.1565 42.9913 23.172C42.9703 23.1859 42.993 23.1673 43.0814 23.1323L39.3952 13.8365ZM35.7007 16.3558C34.7209 17.4475 34.055 18.7024 33.6088 19.9772L43.0474 23.2807C43.1481 22.9929 43.2114 22.9587 43.1431 23.0349L35.7007 16.3558ZM33.6088 19.9772C33.2196 21.0893 32.95 22.2326 32.8016 23.4014L42.7219 24.6611C42.7818 24.1893 42.8898 23.731 43.0474 23.2807L33.6088 19.9772ZM32.7923 23.4791C32.6757 24.5287 32.625 25.6705 32.625 26.8828H42.625C42.625 25.9337 42.6655 25.1744 42.7311 24.5834L32.7923 23.4791ZM32.625 26.8828C32.625 28.9773 32.8691 31.0051 33.4589 32.8886L43.002 29.9004C42.7845 29.2058 42.625 28.2258 42.625 26.8828H32.625ZM33.4774 32.9465C34.0507 34.7021 34.926 36.4366 36.2902 37.8523L43.491 30.9133C43.475 30.8967 43.2436 30.6391 42.9835 29.8425L33.4774 32.9465ZM36.3222 37.8852C37.394 38.9772 38.6511 39.901 40.1096 40.5331L44.0857 31.3575C43.9818 31.3125 43.7675 31.1947 43.459 30.8805L36.3222 37.8852ZM40.1746 40.5607C41.5841 41.148 43.0664 41.4336 44.5781 41.4336V31.4336C44.3451 31.4336 44.1738 31.3937 44.0207 31.3299L40.1746 40.5607ZM44.5781 41.4336C46.0957 41.4336 47.6571 41.2011 49.1461 40.5849L45.3226 31.3448C45.3013 31.3536 45.0918 31.4336 44.5781 31.4336V41.4336ZM49.1851 40.5686C50.4816 40.0192 51.7488 39.2163 52.7915 38.0544L45.3491 31.3753C45.4123 31.3049 45.4563 31.2747 45.4556 31.2752C45.4528 31.2771 45.4027 31.3106 45.2836 31.3611L49.1851 40.5686ZM52.8332 38.0074C53.7834 36.9215 54.4393 35.6821 54.8834 34.4135L45.4448 31.11C45.3419 31.4038 45.2687 31.4666 45.3074 31.4223L52.8332 38.0074ZM54.8918 34.3893C55.2801 33.2611 55.5458 32.103 55.6794 30.9203L45.7425 29.7984C45.6937 30.2303 45.5949 30.6738 45.4364 31.1342L54.8918 34.3893ZM55.6698 30.9992C55.8074 29.9331 55.8672 28.7951 55.8672 27.6055H45.8672C45.8672 28.4731 45.8228 29.1711 45.752 29.7195L55.6698 30.9992ZM55.8672 27.6055C55.8672 25.8552 55.7026 24.1609 55.3174 22.5651L45.5966 24.9115C45.7583 25.5813 45.8672 26.4651 45.8672 27.6055H55.8672ZM55.3174 22.5651C54.9593 21.0814 54.4163 19.5876 53.559 18.2649L45.1675 23.7039C45.2217 23.7874 45.4079 24.1295 45.5966 24.9115L55.3174 22.5651ZM53.5944 18.3203C52.8396 17.1214 51.8812 16.0618 50.7076 15.2061L44.8159 23.2861C44.8922 23.3418 45.0016 23.4411 45.1321 23.6484L53.5944 18.3203ZM50.7481 15.2359C49.7207 14.4708 48.5421 13.8423 47.2133 13.4825L44.5992 23.1347C44.5204 23.1134 44.5788 23.1099 44.7754 23.2563L50.7481 15.2359ZM47.3063 13.5086C46.1916 13.1835 45.0533 13.0352 43.9141 13.0352V23.0352C44.1811 23.0352 44.3709 23.0691 44.5062 23.1086L47.3063 13.5086ZM76.3242 45.418L72.7425 41.9293L72.7195 41.9528L72.6969 41.9767L76.3242 45.418ZM72.5742 47.7031L71.0052 42.9557L70.9871 42.9617L70.969 42.9678L72.5742 47.7031ZM66.1484 36.7656L68.0739 41.38L82.63 35.3062L67.2331 31.8847L66.1484 36.7656ZM62.6133 35.5742L59.9842 39.8272L60.0124 39.8446L60.0408 39.8617L62.6133 35.5742ZM62.3008 31.5508L65.7901 35.1319L65.8134 35.1093L65.8363 35.0863L62.3008 31.5508ZM64.8984 30.3203L66.1354 35.1649L83.3138 30.7789L66.375 25.5433L64.8984 30.3203ZM61.5391 28.0352L57.5101 30.9962L57.5216 31.0119L57.5333 31.0274L61.5391 28.0352ZM61.4414 20.3008L57.2887 17.516L57.2773 17.533L57.2661 17.55L61.4414 20.3008ZM64.3516 17.6641L61.9839 13.2602L61.9739 13.2655L61.964 13.2709L64.3516 17.6641ZM72.1445 17.3906L70.2696 22.0258L71.4376 22.4982L72.69 22.3608L72.1445 17.3906ZM78.5508 16.6875L83.4179 15.5423L82.4043 11.2345L78.0053 11.7173L78.5508 16.6875ZM78.707 17.3516L82.2907 20.8383L84.2018 18.8741L83.5741 16.2064L78.707 17.3516ZM77.3008 18.7969L76.8531 23.7768L79.2242 23.9899L80.8844 22.2836L77.3008 18.7969ZM73.8242 18.4844L74.2719 13.5045L59.2294 12.1523L70.4934 22.2134L73.8242 18.4844ZM74.8008 27.0195L79.0149 29.7105L74.8008 27.0195ZM68.0625 30.7109V25.7109H67.6317L67.2072 25.7846L68.0625 30.7109ZM64.4492 31.5703L62.3469 27.0338L62.3254 27.0437L62.3039 27.0539L64.4492 31.5703ZM64.7422 33.7188L62.7425 38.3014L62.7777 38.3168L62.8132 38.3316L64.7422 33.7188ZM68.9805 34.9688L67.7537 39.8159L67.7762 39.8216L67.7987 39.8271L68.9805 34.9688ZM71.4219 35.6133L70.011 40.4101L70.0546 40.4229L70.0983 40.4349L71.4219 35.6133ZM73.4141 36.2578L71.6685 40.9432L71.7091 40.9583L71.75 40.9728L73.4141 36.2578ZM75.0352 36.9805L72.4825 41.2797L72.5113 41.2969L72.5403 41.3136L75.0352 36.9805ZM76.2461 37.8398L79.5208 34.0614L79.5108 34.0528L76.2461 37.8398ZM77.125 38.9336L72.6529 41.1697L72.6672 41.1983L72.6819 41.2268L77.125 38.9336ZM68.7852 37.2734L67.6004 42.131L67.6657 42.147L67.7315 42.1612L68.7852 37.2734ZM67.9844 37.0781L69.1692 32.2205L67.6765 31.8565L66.2369 32.3934L67.9844 37.0781ZM64.0977 39.5586L60.4042 36.1883L64.0977 39.5586ZM63.2773 44.7148L59.1899 47.5946L59.1962 47.6035L59.2026 47.6125L63.2773 44.7148ZM73.668 39.1875L70.6757 43.1933L70.6872 43.2019L70.6987 43.2104L73.668 39.1875ZM63.9219 19.3438L59.9292 16.3339L59.9219 16.3438L63.9219 19.3438ZM63.4141 25.9648L58.7717 27.8218L58.7922 27.8732L58.8139 27.9242L63.4141 25.9648ZM64.5273 27.6445L61.1005 31.2855L61.1293 31.3127L61.1586 31.3393L64.5273 27.6445ZM66.0703 28.6602L63.9559 33.1911L64.0159 33.2191L64.0767 33.2455L66.0703 28.6602ZM67.7305 29.1875L66.8471 34.1089L66.8579 34.1108L66.8686 34.1127L67.7305 29.1875ZM72.2227 27.8984L68.0712 25.1118L72.2227 27.8984ZM72.7305 21.4727L68.0658 23.273L68.0851 23.3229L68.1054 23.3722L72.7305 21.4727ZM71.6562 19.7539L68.1207 23.2894L68.1759 23.3447L68.2329 23.3981L71.6562 19.7539ZM70.1914 18.7383L67.9972 23.2311L68.0398 23.2519L68.0828 23.2719L70.1914 18.7383ZM68.668 18.2109L67.6874 23.1138L67.7551 23.1274L67.8232 23.139L68.668 18.2109ZM72.7891 41.9609C72.7891 41.9722 72.7882 41.9611 72.7936 41.9338C72.7962 41.921 72.7997 41.9067 72.8043 41.8917C72.8089 41.8767 72.814 41.863 72.8191 41.851C72.8298 41.8257 72.8366 41.8173 72.83 41.8271C72.8228 41.8377 72.7977 41.8726 72.7425 41.9293L79.906 48.9067C81.7169 47.0475 82.7891 44.67 82.7891 41.9609H72.7891ZM72.6969 41.9767C72.384 42.3064 71.8812 42.6662 71.0052 42.9557L74.1433 52.4506C76.3402 51.7245 78.3373 50.5608 79.9515 48.8593L72.6969 41.9767ZM70.969 42.9678C69.9984 43.2968 68.8858 43.4844 67.5938 43.4844V53.4844C69.8695 53.4844 72.0771 53.1511 74.1794 52.4385L70.969 42.9678ZM67.5938 43.4844C66.6668 43.4844 65.9828 43.3605 65.4835 43.1941L62.3212 52.6809C64.0094 53.2437 65.7863 53.4844 67.5938 53.4844V43.4844ZM65.4835 43.1941C65.2233 43.1074 65.1039 43.009 65.0044 42.8914L57.3706 49.3508C58.7034 50.9259 60.3939 52.0385 62.3212 52.6809L65.4835 43.1941ZM65.0044 42.8914C65.0163 42.9054 65.0355 42.9308 65.056 42.9666C65.0765 43.0025 65.0927 43.0388 65.1039 43.0711C65.115 43.103 65.1179 43.1211 65.1177 43.1198C65.1174 43.1178 65.1133 43.0912 65.1133 43.0352H55.1133C55.1133 45.3115 55.8181 47.5161 57.3706 49.3508L65.0044 42.8914ZM65.1133 43.0352C65.1133 43.0879 65.1071 43.1496 65.0927 43.2131C65.0784 43.2761 65.0604 43.321 65.0496 43.344C65.0282 43.3892 65.0587 43.3 65.2666 43.0969L58.2802 35.9422C56.4411 37.738 55.1133 40.1334 55.1133 43.0352H65.1133ZM65.2666 43.0969C65.8178 42.5587 66.6975 41.9543 68.0739 41.38L64.223 32.1512C61.9795 33.0873 59.9426 34.3189 58.2802 35.9422L65.2666 43.0969ZM67.2331 31.8847C66.5302 31.7285 66.0055 31.5824 65.631 31.4562C65.2341 31.3224 65.1257 31.2507 65.1858 31.2868L60.0408 39.8617C61.4802 40.7253 63.3179 41.2586 65.0638 41.6466L67.2331 31.8847ZM65.2424 31.3212C65.5751 31.5269 65.9625 31.8858 66.2368 32.4095C66.5001 32.9122 66.5391 33.3365 66.5391 33.5234H56.5391C56.5391 35.9772 57.6291 38.3713 59.9842 39.8272L65.2424 31.3212ZM66.5391 33.5234C66.5391 33.6299 66.5219 33.8845 66.3938 34.2161C66.2601 34.5624 66.0482 34.8804 65.7901 35.1319L58.8115 27.9696C57.1845 29.5549 56.5391 31.5846 56.5391 33.5234H66.5391ZM65.8363 35.0863C65.7003 35.2224 65.5877 35.3048 65.5268 35.3455C65.466 35.3861 65.442 35.3949 65.4715 35.381C65.5003 35.3674 65.5673 35.338 65.6816 35.2985C65.7954 35.2591 65.9449 35.2135 66.1354 35.1649L63.6615 25.4757C62.1409 25.864 60.2251 26.5554 58.7652 28.0152L65.8363 35.0863ZM66.375 25.5433C65.8353 25.3765 65.649 25.1823 65.5448 25.0429L57.5333 31.0274C59.0438 33.0495 61.097 34.3787 63.4219 35.0973L66.375 25.5433ZM65.568 25.0741C65.5622 25.0662 65.3477 24.7906 65.3477 23.8359H55.3477C55.3477 26.3188 55.9274 28.8426 57.5101 30.9962L65.568 25.0741ZM65.3477 23.8359C65.3477 23.624 65.3914 23.3935 65.6167 23.0516L57.2661 17.55C56.0331 19.4216 55.3477 21.5479 55.3477 23.8359H65.3477ZM65.5941 23.0855C65.8758 22.6655 66.2338 22.3318 66.7391 22.0572L61.964 13.2709C60.0735 14.2984 58.4914 15.7225 57.2887 17.516L65.5941 23.0855ZM66.7192 22.0679C67.2366 21.7898 67.6899 21.6875 68.1406 21.6875V11.6875C65.9611 11.6875 63.8884 12.2362 61.9839 13.2602L66.7192 22.0679ZM68.1406 21.6875C69.1389 21.6875 69.8166 21.8425 70.2696 22.0258L74.0194 12.7555C72.1548 12.0012 70.1631 11.6875 68.1406 11.6875V21.6875ZM72.69 22.3608L79.0963 21.6577L78.0053 11.7173L71.599 12.4205L72.69 22.3608ZM73.6837 17.8327L73.8399 18.4968L83.5741 16.2064L83.4179 15.5423L73.6837 17.8327ZM75.1234 13.8648L73.7171 15.3101L80.8844 22.2836L82.2907 20.8383L75.1234 13.8648ZM77.7484 13.817L74.2719 13.5045L73.3766 23.4643L76.8531 23.7768L77.7484 13.817ZM70.4934 22.2134C70.5086 22.2269 70.8359 22.441 70.8359 23.6797H80.8359C80.8359 20.3872 79.8222 17.1376 77.155 14.7553L70.4934 22.2134ZM70.8359 23.6797C70.8359 23.7612 70.8266 23.9528 70.5867 24.3286L79.0149 29.7105C80.1552 27.9248 80.8359 25.8898 80.8359 23.6797H70.8359ZM70.5867 24.3286C70.3706 24.667 70.0422 25.0077 69.4736 25.3317L74.4249 34.0199C76.2782 32.9637 77.8508 31.5335 79.0149 29.7105L70.5867 24.3286ZM69.4736 25.3317C69.0091 25.5964 68.5656 25.7109 68.0625 25.7109V35.7109C70.3198 35.7109 72.4674 35.1354 74.4249 34.0199L69.4736 25.3317ZM67.2072 25.7846C65.482 26.0841 63.5893 26.458 62.3469 27.0338L66.5515 36.1069C66.4003 36.1769 66.3396 36.189 66.4433 36.1571C66.5287 36.1309 66.6788 36.0892 66.9099 36.0342C67.3743 35.9238 68.034 35.7907 68.9178 35.6372L67.2072 25.7846ZM62.3039 27.0539C61.3927 27.4867 60.4133 28.1968 59.6821 29.3119C58.9402 30.4432 58.668 31.6656 58.668 32.7617H68.668C68.668 33.311 68.5259 34.0614 68.0445 34.7955C67.5737 35.5135 66.9849 35.9013 66.5945 36.0867L62.3039 27.0539ZM58.668 32.7617C58.668 34.9156 59.8774 36.3253 60.6105 36.9784C61.3533 37.6401 62.1644 38.0492 62.7425 38.3014L66.7419 29.1361C66.6038 29.0758 66.8779 29.1691 67.2626 29.5118C67.6376 29.8459 68.668 30.9334 68.668 32.7617H58.668ZM62.8132 38.3316C63.9228 38.7957 65.6868 39.2928 67.7537 39.8159L70.2072 30.1216C68.0554 29.577 66.9939 29.2408 66.6712 29.1059L62.8132 38.3316ZM67.7987 39.8271C68.7152 40.05 69.4474 40.2443 70.011 40.4101L72.8327 30.8165C72.0682 30.5916 71.1728 30.3562 70.1622 30.1104L67.7987 39.8271ZM70.0983 40.4349C70.6157 40.5769 71.139 40.746 71.6685 40.9432L75.1596 31.5724C74.361 31.2749 73.5562 31.0142 72.7455 30.7917L70.0983 40.4349ZM71.75 40.9728C72.2306 41.1424 72.4428 41.2562 72.4825 41.2797L77.5879 32.6812C76.7941 32.2099 75.9257 31.842 75.0782 31.5429L71.75 40.9728ZM72.5403 41.3136C72.6952 41.4028 72.8413 41.5061 72.9814 41.6269L79.5108 34.0528C78.8957 33.5225 78.2344 33.053 77.53 32.6474L72.5403 41.3136ZM72.9714 41.6183C72.955 41.604 72.8002 41.4644 72.6529 41.1697L81.5971 36.6975C81.0592 35.6216 80.3184 34.7527 79.5207 34.0614L72.9714 41.6183ZM72.6819 41.2268C72.6829 41.2287 72.7135 41.2885 72.7479 41.4336L82.4787 39.1289C82.2787 38.2845 81.9838 37.4458 81.5681 36.6404L72.6819 41.2268ZM72.7479 41.4336C72.758 41.4764 72.7891 41.6392 72.7891 41.9609H82.7891C82.7891 41.0326 82.7029 40.0757 82.4787 39.1289L72.7479 41.4336ZM69.9699 32.4158L69.1692 32.2205L66.7996 41.9357L67.6004 42.131L69.9699 32.4158ZM66.2369 32.3934C64.0288 33.2171 62.0038 34.4354 60.4042 36.1883L67.7911 42.9288C68.0926 42.5984 68.6587 42.1631 69.7318 41.7628L66.2369 32.3934ZM60.4042 36.1883C58.8888 37.8491 57.6719 40.0518 57.6719 42.7227H67.6719C67.6719 42.83 67.6596 42.9302 67.6402 43.0169C67.621 43.1024 67.5984 43.1594 67.5869 43.185C67.566 43.2314 67.5968 43.1418 67.7911 42.9288L60.4042 36.1883ZM57.6719 42.7227C57.6719 44.4246 58.1457 46.1124 59.1899 47.5946L67.3648 41.8351C67.4665 41.9795 67.5518 42.1508 67.6072 42.3332C67.6616 42.5121 67.6719 42.6508 67.6719 42.7227H57.6719ZM59.2026 47.6125C60.147 48.9405 61.3876 49.9359 62.8044 50.6042L67.0706 41.5599C67.0761 41.5625 67.1206 41.5847 67.1834 41.6364C67.2475 41.6892 67.3061 41.7525 67.3521 41.8172L59.2026 47.6125ZM62.8044 50.6042C63.8777 51.1104 65.0021 51.4752 66.1639 51.7076L68.1251 41.9018C67.7245 41.8217 67.3775 41.7047 67.0706 41.5599L62.8044 50.6042ZM66.1639 51.7076C67.2874 51.9323 68.4307 52.0391 69.5859 52.0391V42.0391C69.0485 42.0391 68.5641 41.9896 68.1251 41.9018L66.1639 51.7076ZM69.5859 52.0391C72.0077 52.0391 74.745 51.5892 76.9569 49.8604C79.4032 47.9485 80.3086 45.2018 80.3086 42.5664H70.3086C70.3086 42.7863 70.2731 42.7462 70.3517 42.5617C70.3915 42.4685 70.4521 42.3588 70.5378 42.2472C70.6235 42.1356 70.7153 42.0467 70.7989 41.9814C70.9656 41.8511 71.0259 41.8697 70.8291 41.921C70.6242 41.9744 70.2304 42.0391 69.5859 42.0391V52.0391ZM80.3086 42.5664C80.3086 39.651 79.0995 36.982 76.6372 35.1646L70.6987 43.2104C70.6838 43.1994 70.6351 43.1607 70.5732 43.0877C70.5101 43.0133 70.4496 42.9225 70.4006 42.8216C70.2961 42.6064 70.3086 42.4836 70.3086 42.5664H80.3086ZM76.6602 35.1817C74.7483 33.7535 72.3161 32.9197 69.8388 32.3857L67.7315 42.1612C69.6032 42.5646 70.4262 43.0069 70.6757 43.1933L76.6602 35.1817ZM67.3398 13.0742C65.0088 13.0742 61.9387 13.6683 59.9293 16.3339L67.9145 22.3536C67.7586 22.5604 67.5796 22.7291 67.4006 22.857C67.2255 22.9821 67.079 23.0478 66.9958 23.0787C66.8512 23.1325 66.9192 23.0742 67.3398 23.0742V13.0742ZM59.9219 16.3438C58.2868 18.5239 57.9844 21.3054 57.9844 23.5234H67.9844C67.9844 22.7906 68.0451 22.3415 68.0975 22.108C68.1529 21.861 68.1603 22.0258 67.9219 22.3438L59.9219 16.3438ZM57.9844 23.5234C57.9844 24.9576 58.2102 26.4182 58.7717 27.8218L68.0564 24.1079C68.045 24.0792 67.9844 23.9122 67.9844 23.5234H57.9844ZM58.8139 27.9242C59.3168 29.1049 60.0431 30.2903 61.1005 31.2855L67.9542 24.0035C68.0402 24.0845 68.0798 24.1424 68.0847 24.1498C68.0886 24.1557 68.0605 24.1143 68.0142 24.0055L58.8139 27.9242ZM61.1586 31.3393C62.0032 32.1094 62.9482 32.7208 63.9559 33.1911L68.1847 24.1292C68.0206 24.0526 67.9369 23.987 67.8961 23.9498L61.1586 31.3393ZM64.0767 33.2455C64.9421 33.6218 65.8722 33.9339 66.8471 34.1089L68.6138 24.2661C68.5731 24.2588 68.3964 24.2194 68.0639 24.0748L64.0767 33.2455ZM66.8686 34.1127C67.6623 34.2516 68.4651 34.3242 69.2734 34.3242V24.3242C69.0662 24.3242 68.8403 24.3057 68.5924 24.2623L66.8686 34.1127ZM69.2734 34.3242C71.9583 34.3242 74.6474 33.2576 76.3741 30.685L68.0712 25.1118C68.2218 24.8875 68.4838 24.6339 68.8306 24.4662C69.1485 24.3125 69.3441 24.3242 69.2734 24.3242V34.3242ZM76.3741 30.685C77.7605 28.6196 78.1797 26.2181 78.1797 23.9922H68.1797C68.1797 24.5073 68.129 24.8355 68.0841 25.0192C68.0407 25.1962 68.0128 25.1988 68.0712 25.1118L76.3741 30.685ZM78.1797 23.9922C78.1797 22.521 77.9479 21.0153 77.3556 19.5731L68.1054 23.3722C68.112 23.3884 68.1797 23.5623 68.1797 23.9922H78.1797ZM77.3951 19.6723C76.9281 18.4624 76.2125 17.1739 75.0796 16.1097L68.2329 23.3981C68.0921 23.2659 68.0238 23.163 68.0071 23.1363C67.9914 23.1113 68.0174 23.1474 68.0658 23.273L77.3951 19.6723ZM75.1918 16.2184C74.3419 15.3685 73.3646 14.6998 72.3001 14.2047L68.0828 23.2719C68.1144 23.2866 68.1277 23.2958 68.1286 23.2965C68.1295 23.2971 68.1287 23.2966 68.1267 23.2949C68.1247 23.2932 68.1226 23.2913 68.1207 23.2894L75.1918 16.2184ZM72.3856 14.2454C71.5367 13.8309 70.567 13.4636 69.5128 13.2828L67.8232 23.139C67.7433 23.1254 67.7185 23.1136 67.7551 23.1263C67.791 23.1388 67.8708 23.1694 67.9972 23.2311L72.3856 14.2454ZM69.6486 13.308C68.896 13.1575 68.1243 13.0742 67.3398 13.0742V23.0742C67.4148 23.0742 67.5285 23.0821 67.6874 23.1138L69.6486 13.308ZM85.5508 18.8164L81.4036 21.6094L81.4366 21.6583L81.4707 21.7065L85.5508 18.8164ZM82.7773 17.9961L77.8964 19.0807L78.8252 23.2602L83.0978 22.9858L82.7773 17.9961ZM82.6992 17.6445L81.2758 12.8514L76.807 14.1785L77.8183 18.7292L82.6992 17.6445ZM88.6172 16.6875L93.2534 14.8152L91.9903 11.6875H88.6172V16.6875ZM92.3086 36.8438L97.052 38.4249L98.8768 32.9505L93.1984 31.9236L92.3086 36.8438ZM92.1523 37.3125L91.4633 42.2648L95.5811 42.8377L96.8958 38.8936L92.1523 37.3125ZM85.9414 37.3125L81.6539 39.885L83.4763 42.9223L86.9461 42.2105L85.9414 37.3125ZM85.8242 37.1172L81.7082 34.2785L79.8803 36.9289L81.5368 39.6897L85.8242 37.1172ZM84.2227 9.44141L81.7175 5.11427L78.9837 6.69697L79.239 9.84549L84.2227 9.44141ZM88.4219 7.64453H93.4219V0.870586L86.9486 2.8665L88.4219 7.64453ZM88.9492 10.8477L93.0026 13.7751L94.503 11.6976L93.6926 9.26652L88.9492 10.8477ZM88.6953 11.1992L89.0105 16.1893L91.3665 16.0405L92.7487 14.1267L88.6953 11.1992ZM84.8281 12.2344L80.1272 13.9376L81.9733 19.033L86.9038 16.7832L84.8281 12.2344ZM91.2148 22.5273C91.2148 21.4317 91.1514 20.3422 90.9706 19.3321C90.8035 18.3978 90.4647 17.1035 89.6309 15.9263L81.4707 21.7065C81.2536 21.4001 81.1603 21.1594 81.1319 21.0795C81.1012 20.9936 81.1079 20.9869 81.127 21.0936C81.1676 21.3205 81.2148 21.7741 81.2148 22.5273H91.2148ZM89.698 16.0234C87.6585 12.9951 84.1653 12.8967 82.4569 13.0064L83.0978 22.9858C83.4734 22.9617 83.4185 23.0166 83.117 22.9275C82.7544 22.8202 81.989 22.4786 81.4036 21.6094L89.698 16.0234ZM87.6583 16.9114L87.5802 16.5599L77.8183 18.7292L77.8964 19.0807L87.6583 16.9114ZM84.1226 22.4376C85.918 21.9045 87.4041 21.6875 88.6172 21.6875V11.6875C86.2366 11.6875 83.7773 12.1085 81.2758 12.8514L84.1226 22.4376ZM83.981 18.5598C83.99 18.5821 84.0273 18.6806 84.0273 18.9141H94.0273C94.0273 17.5329 93.7913 16.147 93.2534 14.8152L83.981 18.5598ZM84.0273 18.9141V33.4844H94.0273V18.9141H84.0273ZM84.0273 33.4844C84.0273 35.1865 84.4162 37.4589 86.1676 39.2576L93.3324 32.2814C93.7149 32.6743 93.8975 33.0736 93.9753 33.3195C94.0461 33.5433 94.0273 33.6263 94.0273 33.4844H84.0273ZM86.1676 39.2576C87.7577 40.8906 89.8879 41.4871 91.4188 41.7639L93.1984 31.9236C93.0226 31.8918 92.8933 31.861 92.8039 31.836C92.7136 31.8108 92.6785 31.7957 92.6865 31.799C92.6939 31.8021 92.7636 31.8317 92.8733 31.9018C92.9838 31.9724 93.1492 32.0934 93.3324 32.2814L86.1676 39.2576ZM87.5652 35.2626L87.4089 35.7314L96.8958 38.8936L97.052 38.4249L87.5652 35.2626ZM92.8414 32.3602C91.2716 32.1418 89.8434 32 88.6758 32V42C89.1488 42 90.0382 42.0665 91.4633 42.2648L92.8414 32.3602ZM88.6758 32C87.4516 32 86.1948 32.1564 84.9367 32.4145L86.9461 42.2105C87.7192 42.0519 88.2854 42 88.6758 42V32ZM90.2289 34.74L90.1117 34.5447L81.5368 39.6897L81.6539 39.885L90.2289 34.74ZM89.9403 39.9559C90.6204 38.9696 90.8979 37.9461 91.0305 37.2434C91.1719 36.4939 91.2148 35.7392 91.2148 35.0469H81.2148C81.2148 35.3571 81.1927 35.4488 81.2039 35.3894C81.2108 35.3527 81.2354 35.2328 81.2995 35.0575C81.3627 34.8847 81.4844 34.6029 81.7082 34.2785L89.9403 39.9559ZM91.2148 35.0469V22.5273H81.2148V35.0469H91.2148ZM86.7278 13.7685C87.5962 13.2658 88.642 12.8089 89.8951 12.4226L86.9486 2.8665C85.0767 3.44368 83.3231 4.18472 81.7175 5.11427L86.7278 13.7685ZM83.4219 7.64453C83.4219 9.27806 83.6892 10.8791 84.2058 12.4288L93.6926 9.26652C93.5061 8.70685 93.4219 8.17246 93.4219 7.64453H83.4219ZM84.8958 7.9202L84.6419 8.27177L92.7487 14.1267L93.0026 13.7751L84.8958 7.9202ZM88.3801 6.20916C86.431 6.33227 84.5459 6.86721 82.7525 7.68557L86.9038 16.7832C87.7926 16.3776 88.4857 16.2224 89.0105 16.1893L88.3801 6.20916ZM89.5291 10.5311C89.357 10.0561 89.2489 9.56237 89.2063 9.03733L79.239 9.84549C79.3527 11.2475 79.6482 12.6158 80.1272 13.9376L89.5291 10.5311ZM99.6797 20.3398L94.7235 21.0007L94.7307 21.0546L94.7391 21.1084L99.6797 20.3398ZM99.2305 18.9336L94.929 21.4826L94.9634 21.5406L94.9993 21.5977L99.2305 18.9336ZM96.3789 17.9961L91.498 19.0807L92.5024 23.6006L97.086 22.9458L96.3789 17.9961ZM96.3008 17.6445L94.8613 12.8562L90.412 14.1938L91.4198 18.7292L96.3008 17.6445ZM102.219 16.6875L106.867 14.8457L105.616 11.6875H102.219V16.6875ZM102.629 19.4805H97.6289V28.8678L105.419 23.6297L102.629 19.4805ZM104.719 18.1523L107.265 22.4552L104.719 18.1523ZM106.594 17.1953L104.671 12.5799L104.653 12.5872L104.636 12.5945L106.594 17.1953ZM112.746 16.6875L111.469 21.5217L111.48 21.5246L111.491 21.5275L112.746 16.6875ZM114.621 17.6641L111.367 21.4603L111.389 21.4792L111.411 21.4979L114.621 17.6641ZM115.969 19.5781L111.358 21.5118L111.371 21.5432L111.385 21.5745L115.969 19.5781ZM116.711 35.5742L112.591 38.4069L112.649 38.4918L112.711 38.5742L116.711 35.5742ZM117.297 36.1016L114.69 40.368L114.74 40.3989L114.792 40.4287L117.297 36.1016ZM118.137 36.4727L116.556 41.2161L116.646 41.2461L116.737 41.2727L118.137 36.4727ZM119.113 36.7656L123.795 38.5212L125.66 33.5486L120.584 31.9867L119.113 36.7656ZM118.938 37.2344L117.89 42.1234L122.105 43.0267L123.619 38.99L118.938 37.2344ZM113.43 37.3125L109.142 39.885L110.975 42.939L114.46 42.2052L113.43 37.3125ZM113.312 37.1172L109.196 34.2785L107.369 36.9289L109.025 39.6897L113.312 37.1172ZM113.391 20.6914L108.597 22.1118L108.6 22.1241L108.604 22.1364L113.391 20.6914ZM112.531 19.0508L108.761 22.3347L108.817 22.3995L108.876 22.4624L112.531 19.0508ZM111.281 18.2109L109.7 22.9544L109.719 22.9608L109.739 22.9671L111.281 18.2109ZM107.941 18.1523L106.939 13.2538L106.928 13.2561L106.917 13.2584L107.941 18.1523ZM106.242 18.6992L108.173 23.3114L108.199 23.3006L108.224 23.2895L106.242 18.6992ZM104.523 19.5977L107.096 23.8851L107.131 23.8643L107.165 23.8429L104.523 19.5977ZM102.629 20.8477L99.7301 16.7737L97.6289 18.2688V20.8477H102.629ZM102.727 35.3398L97.8758 36.5525L97.8833 36.5825L97.8912 36.6123L102.727 35.3398ZM105.5 36.8438L110.243 38.4249L111.942 33.3282L106.737 31.9992L105.5 36.8438ZM105.344 37.3125L104.661 42.2656L108.774 42.833L110.087 38.8936L105.344 37.3125ZM103.41 37.0781L102.913 42.0533L102.925 42.0545L103.41 37.0781ZM99.543 37.3125L95.2555 39.885L97.0879 42.939L100.573 42.2052L99.543 37.3125ZM99.4258 37.1172L95.3097 34.2785L93.4819 36.9289L95.1383 39.6897L99.4258 37.1172ZM104.816 22.5273C104.816 21.5056 104.765 20.4996 104.62 19.5713L94.7391 21.1084C94.777 21.3519 94.8164 21.8043 94.8164 22.5273H104.816ZM104.636 19.679C104.5 18.6607 104.192 17.4294 103.462 16.2695L94.9993 21.5977C94.8485 21.3581 94.7765 21.1661 94.7459 21.0703C94.7154 20.9748 94.7159 20.9435 94.7235 21.0007L104.636 19.679ZM103.532 16.3846C102.754 15.071 101.575 14.0666 100.125 13.5164L96.5783 22.8664C96.2664 22.7481 95.9371 22.565 95.6286 22.3045C95.3207 22.0445 95.091 21.7559 94.929 21.4826L103.532 16.3846ZM100.125 13.5164C99.1453 13.1449 98.1371 12.9766 97.1406 12.9766V22.9766C97.0035 22.9766 96.8026 22.9515 96.5783 22.8664L100.125 13.5164ZM97.1406 12.9766C96.8866 12.9766 96.2013 12.9707 95.6718 13.0463L97.086 22.9458C97.0274 22.9542 96.9783 22.9601 96.9421 22.964C96.9052 22.9681 96.8744 22.9709 96.8512 22.9729C96.8277 22.975 96.8084 22.9764 96.7941 22.9774C96.7796 22.9784 96.7682 22.9791 96.7604 22.9796C96.7452 22.9804 96.738 22.9807 96.7408 22.9806C96.7432 22.9805 96.7512 22.9802 96.7659 22.9798C96.796 22.979 96.8421 22.9782 96.9072 22.9775C96.9715 22.9769 97.049 22.9766 97.1406 22.9766V12.9766ZM101.26 16.9114L101.182 16.5599L91.4198 18.7292L91.498 19.0807L101.26 16.9114ZM97.7402 22.4329C99.4926 21.9061 100.975 21.6875 102.219 21.6875V11.6875C99.8165 11.6875 97.3538 12.107 94.8613 12.8562L97.7402 22.4329ZM97.5703 18.5293C97.5956 18.5931 97.6289 18.7059 97.6289 18.9141H107.629C107.629 17.5337 107.389 16.1621 106.867 14.8457L97.5703 18.5293ZM97.6289 18.9141V19.4805H107.629V18.9141H97.6289ZM105.419 23.6297C106.112 23.1639 106.726 22.7745 107.265 22.4552L102.172 13.8495C101.436 14.2854 100.657 14.7814 99.8389 15.3313L105.419 23.6297ZM107.265 22.4552C107.735 22.1772 108.164 21.9611 108.552 21.7961L104.636 12.5945C103.8 12.9503 102.978 13.3722 102.172 13.8495L107.265 22.4552ZM108.517 21.8107C108.844 21.6744 109.167 21.5766 109.488 21.5123L107.527 11.7065C106.547 11.9025 105.594 12.1954 104.671 12.5799L108.517 21.8107ZM109.488 21.5123C109.766 21.4568 110.148 21.4141 110.656 21.4141V11.4141C109.602 11.4141 108.552 11.5016 107.527 11.7065L109.488 21.5123ZM110.656 21.4141C110.922 21.4141 111.189 21.4478 111.469 21.5217L114.023 11.8533C112.923 11.5626 111.797 11.4141 110.656 11.4141V21.4141ZM111.491 21.5275C111.491 21.5275 111.491 21.5274 111.49 21.5271C111.489 21.5269 111.488 21.5265 111.486 21.526C111.483 21.525 111.479 21.5235 111.473 21.5213C111.462 21.517 111.448 21.5109 111.433 21.5029C111.4 21.4857 111.377 21.4685 111.367 21.4603L117.875 13.8678C116.745 12.8991 115.435 12.2192 114.001 11.8475L111.491 21.5275ZM111.411 21.4979C111.375 21.4675 111.347 21.4393 111.325 21.4161C111.305 21.3931 111.293 21.3775 111.29 21.3726C111.283 21.3633 111.311 21.4013 111.358 21.5118L120.58 17.6445C119.993 16.2463 119.113 14.9038 117.831 13.8303L111.411 21.4979ZM111.385 21.5745C111.375 21.5516 111.496 21.8358 111.496 22.6445H121.496C121.496 20.9793 121.266 19.2193 120.553 17.5818L111.385 21.5745ZM111.496 22.6445V34.793H121.496V22.6445H111.496ZM111.496 34.793C111.496 35.8761 111.752 37.1865 112.591 38.4069L120.831 32.7416C121.384 33.5453 121.496 34.3348 121.496 34.793H111.496ZM112.711 38.5742C113.268 39.3164 113.945 39.9129 114.69 40.368L119.904 31.8352C120.18 32.0038 120.467 32.2487 120.711 32.5742L112.711 38.5742ZM114.792 40.4287C115.373 40.765 115.969 41.0206 116.556 41.2161L119.718 31.7292C119.679 31.7164 119.716 31.7246 119.802 31.7744L114.792 40.4287ZM116.737 41.2727C117.024 41.3564 117.326 41.4469 117.643 41.5445L120.584 31.9867C120.224 31.876 119.875 31.7712 119.537 31.6727L116.737 41.2727ZM114.432 35.01L114.256 35.4788L123.619 38.99L123.795 38.5212L114.432 35.01ZM119.985 32.3454C118.766 32.0842 117.402 32 116.027 32V42C117.075 42 117.65 42.0721 117.89 42.1234L119.985 32.3454ZM116.027 32C114.84 32 113.615 32.1639 112.4 32.4198L114.46 42.2052C115.223 42.0445 115.73 42 116.027 42V32ZM117.717 34.74L117.6 34.5447L109.025 39.6897L109.142 39.885L117.717 34.74ZM117.429 39.9559C118.109 38.9696 118.386 37.9461 118.519 37.2434C118.66 36.4939 118.703 35.7392 118.703 35.0469H108.703C108.703 35.3571 108.681 35.4488 108.692 35.3894C108.699 35.3527 108.724 35.2328 108.788 35.0575C108.851 34.8847 108.973 34.6029 109.196 34.2785L117.429 39.9559ZM118.703 35.0469V23.3672H108.703V35.0469H118.703ZM118.703 23.3672C118.703 22.0093 118.58 20.5807 118.177 19.2464L108.604 22.1364C108.604 22.1352 108.611 22.16 108.622 22.2158C108.633 22.2712 108.646 22.3509 108.659 22.4579C108.684 22.6753 108.703 22.9741 108.703 23.3672H118.703ZM118.185 19.271C117.834 18.0867 117.239 16.7669 116.187 15.6392L108.876 22.4624C108.709 22.284 108.624 22.1373 108.59 22.0739C108.558 22.0125 108.568 22.0152 108.597 22.1118L118.185 19.271ZM116.302 15.7669C115.39 14.7201 114.218 13.9069 112.824 13.4548L109.739 22.9671C109.542 22.9033 109.347 22.8095 109.167 22.6883C108.988 22.5682 108.854 22.4416 108.761 22.3347L116.302 15.7669ZM112.862 13.4675C111.844 13.1282 110.805 12.9766 109.777 12.9766V22.9766C109.8 22.9766 109.801 22.9782 109.784 22.9755C109.766 22.9728 109.737 22.9667 109.7 22.9544L112.862 13.4675ZM109.777 12.9766C108.827 12.9766 107.877 13.062 106.939 13.2538L108.943 23.0509C109.152 23.0083 109.426 22.9766 109.777 22.9766V12.9766ZM106.917 13.2584C106 13.4503 105.114 13.7403 104.26 14.1089L108.224 23.2895C108.517 23.1633 108.763 23.0888 108.966 23.0463L106.917 13.2584ZM104.312 14.087C103.475 14.4374 102.664 14.8655 101.882 15.3524L107.165 23.8429C107.554 23.6007 107.89 23.4298 108.173 23.3114L104.312 14.087ZM101.951 15.3102C101.233 15.7411 100.491 16.232 99.7301 16.7737L105.528 24.9216C106.121 24.4998 106.642 24.1574 107.096 23.8851L101.951 15.3102ZM97.6289 20.8477V34.3242H107.629V20.8477H97.6289ZM97.6289 34.3242C97.6289 34.9515 97.6729 35.7408 97.8758 36.5525L107.577 34.1272C107.599 34.2129 107.611 34.2803 107.619 34.3253C107.626 34.3706 107.629 34.4004 107.63 34.4121C107.632 34.4325 107.629 34.4068 107.629 34.3242H97.6289ZM97.8912 36.6123C98.2401 37.9382 98.9954 39.0424 99.9838 39.8454L106.29 32.0843C106.861 32.5487 107.343 33.2363 107.562 34.0674L97.8912 36.6123ZM99.9838 39.8454C100.811 40.5173 101.699 40.904 102.386 41.1409L105.646 31.6872C105.633 31.6829 105.688 31.7006 105.788 31.7519C105.886 31.8021 106.069 31.9053 106.29 32.0843L99.9838 39.8454ZM102.386 41.1409C102.944 41.3336 103.585 41.5152 104.263 41.6883L106.737 31.9992C106.191 31.8598 105.842 31.755 105.646 31.6872L102.386 41.1409ZM100.757 35.2626L100.6 35.7314L110.087 38.8936L110.243 38.4249L100.757 35.2626ZM106.027 32.3594C105.231 32.2496 104.517 32.1623 103.896 32.1018L102.925 42.0545C103.371 42.0981 103.946 42.1671 104.661 42.2656L106.027 32.3594ZM103.908 32.1029C103.308 32.0429 102.701 32 102.141 32V42C102.231 42 102.471 42.0091 102.913 42.0533L103.908 32.1029ZM102.141 32C100.953 32 99.7284 32.1639 98.5129 32.4198L100.573 42.2052C101.337 42.0445 101.843 42 102.141 42V32ZM103.83 34.74L103.713 34.5447L95.1383 39.6897L95.2555 39.885L103.83 34.74ZM103.542 39.9559C104.222 38.9696 104.499 37.9461 104.632 37.2434C104.773 36.4939 104.816 35.7392 104.816 35.0469H94.8164C94.8164 35.3571 94.7942 35.4488 94.8054 35.3894C94.8124 35.3527 94.8369 35.2328 94.9011 35.0575C94.9643 34.8847 95.086 34.6029 95.3097 34.2785L103.542 39.9559ZM104.816 35.0469V22.5273H94.8164V35.0469H104.816Z" fill="#43766C" mask="url(#path-1-outside-1_89_48)"/>
</svg>
